<?xml version="1.0"?>
<svg xmlns="http://www.w3.org/2000/svg" xmlns:xlink="http://www.w3.org/1999/xlink" version="1.1" id="Capa_1" x="0px" y="0px" viewBox="0 0 512 512" style="enable-background:new 0 0 512 512;" xml:space="preserve" width="512px" height="512px"><g><g>
	<g>
		<path d="M437.019,74.981C388.667,26.628,324.379,0,256,0S123.333,26.627,74.981,74.98C26.628,123.332,0,187.619,0,256    s26.627,132.667,74.98,181.02C123.332,485.372,187.619,512,256,512s132.667-26.627,181.02-74.98    C485.372,388.668,512,324.381,512,256S485.372,123.333,437.019,74.981z M256,481.442C131.691,481.442,30.557,380.308,30.557,256    S131.69,30.557,256,30.557c124.31,0,225.442,101.134,225.442,225.443S380.308,481.442,256,481.442z" data-original="#000000" class="active-path" data-old_color="#000000" fill="#F22C16"/>
	</g>
</g><g>
	<g>
		<path d="M256,117.482c-8.438,0-15.279,6.841-15.279,15.279v192.5c0,8.438,6.841,15.279,15.279,15.279    c8.439,0,15.279-6.841,15.279-15.279v-192.5C271.278,124.322,264.437,117.482,256,117.482z" data-original="#000000" class="active-path" data-old_color="#000000" fill="#F22C16"/>
	</g>
</g><g>
	<g>
		<path d="M256,363.961c-7.992,0-15.648,7.027-15.279,15.279c0.372,8.278,6.713,15.279,15.279,15.279    c7.992,0,15.648-7.027,15.279-15.279C270.907,370.962,264.565,363.961,256,363.961z" data-original="#000000" class="active-path" data-old_color="#000000" fill="#F22C16"/>
	</g>
</g></g> </svg>
