<?xml version="1.0"?>
<svg xmlns="http://www.w3.org/2000/svg" xmlns:xlink="http://www.w3.org/1999/xlink" version="1.1" id="Layer_1" x="0px" y="0px" viewBox="0 0 512 512" style="enable-background:new 0 0 512 512;" xml:space="preserve" width="512px" height="512px"><g><script xmlns="" id="tinyhippos-injected" class="active-path" style=""/><g>
	<g>
		<path d="M256,21.952c-141.163,0-256,95.424-256,212.715c0,60.267,30.805,117.269,84.885,157.717l-41.109,82.219    c-2.176,4.331-1.131,9.579,2.496,12.779c2.005,1.771,4.501,2.667,7.04,2.667c2.069,0,4.139-0.597,5.952-1.813l89.963-60.395    c33.877,12.971,69.781,19.541,106.752,19.541C397.141,447.381,512,351.957,512,234.667S397.163,21.952,256,21.952z     M255.979,426.048c-36.16,0-71.168-6.741-104.043-20.032c-3.264-1.323-6.997-0.96-9.941,1.024l-61.056,40.981l27.093-54.187    c2.368-4.757,0.896-10.517-3.477-13.547c-52.907-36.629-83.243-89.707-83.243-145.6c0-105.536,105.28-191.381,234.667-191.381    s234.667,85.824,234.667,191.36S385.365,426.048,255.979,426.048z" data-original="#000000" class="active-path" fill="#999999"/>
	</g>
</g></g> </svg>
