<?xml version="1.0"?>
<svg xmlns="http://www.w3.org/2000/svg" xmlns:xlink="http://www.w3.org/1999/xlink" version="1.1" id="Capa_1" x="0px" y="0px" width="512px" height="512px" viewBox="0 0 124 124" style="enable-background:new 0 0 124 124;" xml:space="preserve" class=""><g><g>
	<path d="M62,0C27.8,0,0,27.8,0,62s27.8,62,62,62s62-27.8,62-62S96.2,0,62,0z M62,109c-25.9,0-47-21.1-47-47c0-25.9,21.1-47,47-47   c25.9,0,47,21.1,47,47C109,87.9,87.9,109,62,109z" data-original="#000000" class="active-path" data-old_color="#000000" fill="#FFFFFF"/>
	<path d="M65,23h-6c-3.3,0-6,2.7-6,6v41c0,3.3,2.7,6,6,6h6c3.3,0,6-2.7,6-6V29C71,25.7,68.3,23,65,23z" data-original="#000000" class="active-path" data-old_color="#000000" fill="#FFFFFF"/>
	<circle cx="62" cy="91.5" r="9" data-original="#000000" class="active-path" data-old_color="#000000" fill="#FFFFFF"/>
</g></g> </svg>
