<svg width="220" height="13" viewBox="0 0 220 13" fill="none" xmlns="http://www.w3.org/2000/svg">
<path fill-rule="evenodd" clip-rule="evenodd" d="M88.7084 7.20533C90.4446 9.64019 92.4505 12.4531 96.3542 12.4531C100.17 12.4531 102.073 9.9171 103.83 7.57666C103.976 7.38209 104.121 7.18888 104.266 6.99858L104.318 6.9226C105.949 4.57427 107.365 2.53577 110.052 2.53577C110.081 2.53577 110.109 2.5351 110.138 2.53377C112.731 2.62841 114.12 4.67123 115.734 7.09233C115.783 7.16089 115.833 7.22982 115.882 7.29907C117.618 9.73393 119.624 12.5469 123.528 12.5469C127.507 12.5469 129.514 9.62428 131.274 7.06194L131.321 6.99316L131.374 6.91716C133.005 4.56883 134.42 2.53035 137.107 2.53035C139.823 2.53035 141.24 4.61299 142.893 7.09233C144.664 9.67084 146.672 12.5469 150.686 12.5469C154.708 12.5469 156.717 9.72962 158.454 7.29347C158.502 7.22611 158.55 7.15904 158.598 7.09233L158.651 7.01637C160.281 4.66803 161.697 2.62952 164.384 2.62952C167.071 2.62952 168.486 4.66801 170.117 7.01633L170.17 7.09233C170.26 7.21866 170.351 7.34627 170.442 7.47471C172.139 9.86713 174.041 12.5469 177.963 12.5469C181.867 12.5469 183.873 9.73397 185.609 7.29912C185.658 7.22986 185.707 7.16091 185.756 7.09233L185.809 7.0164C187.44 4.66805 188.855 2.62952 191.542 2.62952C194.229 2.62952 195.645 4.66803 197.276 7.01637L197.328 7.09233C197.377 7.16091 197.427 7.22986 197.476 7.29912C199.212 9.73397 201.218 12.5469 205.122 12.5469C208.937 12.5469 210.841 10.0109 212.597 7.67042C212.743 7.47585 212.888 7.28263 213.033 7.09233L213.086 7.01637C214.717 4.66803 216.132 2.62952 218.819 2.62952C219.528 2.62952 220 2.23283 220 1.63778C220 1.04274 219.41 0.646049 218.819 0.646049C214.686 0.646049 212.679 3.52208 210.908 6.10059L210.855 6.17656C209.224 8.52489 207.809 10.5634 205.122 10.5634C202.435 10.5634 201.019 8.52489 199.389 6.17656L199.336 6.10059C197.565 3.52208 195.557 0.646049 191.542 0.646049C187.528 0.646049 185.52 3.52208 183.749 6.10059L183.696 6.17656C182.066 8.52489 180.65 10.5634 177.963 10.5634C175.276 10.5634 173.861 8.52492 172.23 6.1766L172.177 6.10059C170.406 3.52208 168.399 0.646049 164.384 0.646049C160.251 0.646049 158.244 3.52208 156.472 6.10059L156.42 6.17656C154.789 8.52489 153.373 10.5634 150.686 10.5634C147.999 10.5634 146.584 8.52492 144.953 6.1766L144.9 6.10059C143.129 3.52208 141.122 0.646049 137.107 0.646049C133.092 0.646049 131.085 3.52208 129.314 6.10059L129.261 6.17658C127.63 8.52491 126.215 10.5634 123.528 10.5634C120.812 10.5634 119.395 8.48076 117.742 6.00142C115.971 3.42291 113.963 0.546875 109.948 0.546875C109.881 0.546875 109.817 0.550423 109.754 0.557352C105.821 0.691955 103.868 3.49102 102.14 6.00684L102.087 6.08279C100.457 8.43113 99.0411 10.4697 96.3542 10.4697C93.6673 10.4697 92.2517 8.43114 90.621 6.08281L90.5682 6.00684C88.797 3.42833 86.7896 0.552299 82.7749 0.552299C78.7601 0.552299 76.7527 3.42833 74.9815 6.00684L74.9287 6.08282C73.298 8.43116 71.8825 10.4697 69.1955 10.4697C66.5086 10.4697 65.093 8.43116 63.4623 6.08282L63.4096 6.00684C61.6383 3.42833 59.631 0.552299 55.6162 0.552299C51.4834 0.552299 49.476 3.42833 47.7048 6.00684L47.652 6.0828C46.0213 8.43114 44.6057 10.4697 41.9188 10.4697C39.2319 10.4697 37.8163 8.43116 36.1856 6.08282L36.1328 6.00684C34.3616 3.42833 32.3542 0.552299 28.3395 0.552299C24.3247 0.552299 22.3173 3.42833 20.5461 6.00684L20.4934 6.08281C18.8626 8.43115 17.4471 10.4697 14.7601 10.4697C12.0443 10.4697 10.6273 8.38701 8.97416 5.90767C7.20295 3.32916 5.19557 0.453125 1.18081 0.453125C0.472324 0.453125 0 0.849819 0 1.44486C0 2.0399 0.590406 2.4366 1.18081 2.4366C3.89668 2.4366 5.31365 4.51924 6.96679 6.99858C7.01577 7.06714 7.06493 7.13609 7.11431 7.20534C8.85056 9.6402 10.8564 12.4531 14.7601 12.4531C18.7393 12.4531 20.7465 9.53051 22.5063 6.96817L22.5535 6.89941L22.6063 6.82344C24.237 4.4751 25.6525 2.4366 28.3395 2.4366C31.0553 2.4366 32.4723 4.51924 34.1254 6.99858C35.8967 9.57709 37.904 12.4531 41.9188 12.4531C45.9404 12.4531 47.9495 9.63587 49.6867 7.19973C49.7347 7.13236 49.7826 7.06529 49.8302 6.99858L49.883 6.92259C51.5137 4.57426 52.9293 2.53577 55.6162 2.53577C58.3031 2.53577 59.7187 4.57428 61.3494 6.92263L61.4022 6.99858C61.4924 7.1249 61.583 7.25251 61.6741 7.38094C63.3717 9.77337 65.2733 12.4531 69.1955 12.4531C73.0993 12.4531 75.1051 9.64021 76.8413 7.20535C76.8907 7.1361 76.9399 7.06715 76.9889 6.99858L77.0416 6.92262C78.6723 4.57428 80.0879 2.53577 82.7749 2.53577C85.4618 2.53577 86.8774 4.57429 88.5081 6.92264L88.5608 6.99858C88.6098 7.06714 88.659 7.13608 88.7084 7.20533Z" fill="#ACCE23"/>
</svg>
