<?xml version="1.0"?>
<svg xmlns="http://www.w3.org/2000/svg" height="512px" viewBox="0 0 469.33333 469.33333" width="512px"><g><script xmlns="" id="tinyhippos-injected" class="active-path" style=""/><path d="m414.378906 0h-359.425781c-30.3125 0-54.953125 24.660156-54.953125 54.953125v359.425781c0 30.292969 24.640625 54.953125 54.953125 54.953125h359.425781c30.3125 0 54.953125-24.660156 54.953125-54.953125v-359.425781c0-30.292969-24.640625-54.953125-54.953125-54.953125zm-158.378906 252.074219v67.925781c0 11.777344-9.535156 21.332031-21.332031 21.332031s-21.335938-9.554687-21.335938-21.332031v-67.925781c-24.765625-8.832031-42.664062-32.296875-42.664062-60.074219 0-35.285156 28.714843-64 64-64 35.285156 0 64 28.714844 64 64 0 27.777344-17.898438 51.242188-42.667969 60.074219zm0 0" data-original="#000000" class="active-path" fill="#999999"/></g> </svg>
