<svg width="44" height="26" viewBox="0 0 44 26" version="1.1" xmlns="http://www.w3.org/2000/svg" xmlns:xlink="http://www.w3.org/1999/xlink">
<g id="Canvas" fill="none">
<g id="Maestro">
<g id="layer1">
<g id="path618">
<path d="M 22 22.6359C 24.6619 20.2571 26.3257 16.8193 26.3257 12.9985C 26.3257 9.17795 24.6619 5.74288 22 3.3638C 19.6709 1.27258 16.5588 9.79877e-06 13.1727 9.79877e-06C 5.89142 9.79877e-06 1.28301e-06 5.81934 1.28301e-06 12.9985C 1.28301e-06 20.1803 5.89142 25.9997 13.1727 25.9997C 16.5584 26 19.6706 24.7247 22 22.6359Z" fill="#0066CB"/>
</g>
<g id="path620">
<path d="M 5.98736e-06 19.2721C 2.66194 16.8934 4.32573 13.4555 4.32573 9.63466C 4.32573 5.81416 2.66194 2.37909 5.98736e-06 4.5615e-06" transform="translate(22 3.36377)" fill="#0066CB"/>
</g>
<g id="path622">
<path d="M 5.98736e-06 19.2721C 2.66194 16.8934 4.32573 13.4555 4.32573 9.63466C 4.32573 5.81416 2.66194 2.37909 5.98736e-06 4.5615e-06" stroke-width="0.3097" transform="translate(22 3.36377)" stroke="#0066CB"/>
</g>
<g id="path624">
<path d="M 12.8791 1.68944e-06C 9.47335 1.68944e-06 6.36124 1.27258 4.03214 3.36379C 3.56233 3.79144 3.11213 4.25094 2.70117 4.74191L 5.36311 4.74191C 5.73518 5.17752 6.068 5.63699 6.36159 6.11758L 1.70304 6.11758C 1.42906 6.55838 1.17471 7.01787 0.939626 7.49327L 7.12464 7.49327C 7.33975 7.93961 7.51598 8.39876 7.67259 8.87139L 0.391333 8.87139C 0.234728 9.31773 0.0977517 9.7772 5.04649e-06 10.2471L 8.06427 10.2471C 8.26011 11.1342 8.35786 12.0556 8.35786 12.9984C 8.35786 14.4423 8.12278 15.8315 7.67259 17.1279L 0.391686 17.1279C 0.54829 17.6002 0.724513 18.0597 0.939626 18.5057L 7.12464 18.5057C 6.88955 18.9814 6.65484 19.4406 6.36125 19.8817L 1.70269 19.8817C 1.99628 20.3623 2.34872 20.8218 2.70117 21.2578L 5.36311 21.2578C 4.95216 21.7484 4.50196 22.2079 4.03214 22.6355C 6.36124 24.7243 9.47335 25.9997 12.8791 25.9997C 20.1407 25.9997 26.0321 20.1803 26.0321 12.9984C 26.0321 5.81934 20.1403 1.68944e-06 12.8791 1.68944e-06Z" transform="translate(17.9678 0.000366211)" fill="#CC0001"/>
</g>
<g id="path626">
<path d="M 0.371724 0.393389L 0.430572 0.393389C 0.450541 0.393389 0.469468 0.39616 0.469468 0.387856C 0.489438 0.377476 0.508707 0.36157 0.508707 0.346C 0.508707 0.329738 0.489088 0.314172 0.469468 0.306214C 0.469468 0.298256 0.430572 0.300681 0.430572 0.300681L 0.371724 0.300681L 0.371724 0.393389ZM 0.371724 0.604464L 0.293589 0.604464L 0.293589 0.234941L 0.450202 0.234941C 0.48909 0.234941 0.508707 0.234925 0.547945 0.253609C 0.567565 0.274715 0.586821 0.30897 0.586821 0.346338C 0.586821 0.388204 0.567212 0.425575 0.527973 0.440799L 0.586821 0.604802L 0.489077 0.604802L 0.450202 0.45706L 0.371361 0.45706L 0.371361 0.604464L 0.371724 0.604464ZM 0.430572 0.739387C 0.606796 0.739387 0.763405 0.596853 0.763405 0.419702C 0.763405 0.242551 0.606796 0.0999963 0.430572 0.0999963C 0.254698 0.0999963 0.117368 0.242551 0.117368 0.419702C 0.117368 0.596853 0.254698 0.739387 0.430572 0.739387ZM -5.30309e-06 0.419702C -5.30309e-06 0.187192 0.19584 2.36522e-06 0.430572 2.36522e-06C 0.665654 2.36522e-06 0.861149 0.187192 0.861149 0.419702C 0.861149 0.652213 0.665304 0.839381 0.430572 0.839381C 0.19584 0.839381 -5.30309e-06 0.652213 -5.30309e-06 0.419702Z" transform="translate(42.2383 19.8267)" fill="#231F20"/>
</g>
<g id="path628">
<path d="M 7.1835 6.59023L 5.51971 6.59023L 6.49823 1.52308L 4.24724 6.59023L 2.87705 6.59023L 2.60307 1.55214L 1.50719 6.59023L 1.71068e-07 6.59023L 1.27211 6.25094e-06L 3.87554 6.25094e-06L 3.91442 4.07931L 5.7152 6.25094e-06L 8.47488 6.25094e-06L 7.1835 6.59023Z" transform="translate(3.93359 10.026)" fill="#231F20"/>
</g>
<g id="path630">
<path d="M 2.46643 6.52448C 2.01624 6.64627 1.6638 6.69887 1.29208 6.69887C 0.450546 6.69887 4.44776e-06 6.28436 4.44776e-06 5.52144C 4.44776e-06 5.37093 -8.89585e-06 5.21004 0.0388795 5.0405L 0.136645 4.51527L 0.215122 4.0928L 0.978511 1.35155e-06L 2.60308 1.35155e-06L 2.36835 1.23036L 3.20987 1.23036L 2.97515 2.53201L 2.1336 2.53201L 1.70302 4.76854C 1.68341 4.86853 1.68342 4.94015 1.68342 4.99032C 1.68342 5.26746 1.84001 5.38892 2.23135 5.38892C 2.42719 5.38892 2.56384 5.37335 2.68155 5.33875L 2.46643 6.52448Z" transform="translate(26.9512 10.0253)" fill="#231F20"/>
</g>
<g id="path632">
<path d="M 0.626417 1.81129C 0.626417 2.48979 0.998489 2.95483 1.87891 3.30567C 2.54457 3.5752 2.66159 3.65442 2.66159 3.89731C 2.66159 4.23293 2.36799 4.38275 1.70303 4.38275C 1.2136 4.38275 0.743792 4.31735 0.21547 4.16927L 1.04351e-05 5.40725L 0.0588577 5.41798L 0.372061 5.47335C 0.469808 5.48926 0.607145 5.50517 0.802638 5.52074C 1.19397 5.5498 1.50718 5.56608 1.7223 5.56608C 3.46457 5.56608 4.26723 4.99829 4.26723 3.77588C 4.26723 3.04167 3.9344 2.60883 3.11214 2.2836C 2.40759 2.01164 2.32946 1.9535 2.32946 1.703C 2.32946 1.41236 2.60341 1.26463 3.13209 1.26463C 3.46456 1.26463 3.91478 1.29646 4.32573 1.34663L 4.5608 0.105524C 4.13022 0.0473968 3.4842 -2.36522e-06 3.11214 -2.36522e-06C 1.25285 -2.36522e-06 0.606798 0.823814 0.626417 1.81129Z" transform="translate(22.2935 11.1373)" fill="#231F20"/>
</g>
<g id="path634">
<path d="M 3.4453 3.09461C 3.26943 3.07593 3.19096 3.07107 3.07324 3.07107C 2.15358 3.07107 1.68377 3.34546 1.68377 3.8866C 1.68377 4.21911 1.9185 4.43327 2.27095 4.43327C 2.93625 4.43361 3.42568 3.88695 3.4453 3.09461ZM 4.56081 5.48165L 3.1906 5.48165L 3.22984 4.9246C 2.79927 5.3654 2.25133 5.57402 1.50719 5.57402C 0.606803 5.57402 2.65155e-06 4.97718 2.65155e-06 4.11115C 2.65155e-06 2.80432 1.057 2.0438 2.87705 2.0438C 3.07289 2.0438 3.30762 2.05662 3.5427 2.08568C 3.60121 1.90887 3.62083 1.8324 3.62083 1.73725C 3.62083 1.38088 3.32724 1.24871 2.56383 1.24871C 2.09402 1.24871 1.56569 1.30684 1.19363 1.39922L 0.978167 1.45457L 0.821565 1.48882L 1.05629 0.285093C 1.8782 0.0788779 2.40653 -8.44721e-07 3.01333 -8.44721e-07C 4.42242 -8.44721e-07 5.16655 0.543899 5.16655 1.57359C 5.16655 1.83758 5.14694 2.03828 5.02957 2.63513L 4.69675 4.53603L 4.63823 4.87649L 4.59899 5.14845L 4.55975 5.33598L 4.55975 5.48165" transform="translate(11.8608 11.1345)" fill="#231F20"/>
</g>
<g id="path636">
<path d="M 3.66042 2.18879C 3.66042 2.07807 3.68003 1.98569 3.68003 1.91683C 3.68003 1.48122 3.38645 1.22484 2.89701 1.22484C 2.36869 1.22484 1.99662 1.56806 1.85964 2.18566L 3.66042 2.18879ZM 4.46271 5.37854C 3.89515 5.52663 3.34686 5.59756 2.7793 5.59479C 0.93963 5.59479 -3.67795e-06 4.77096 -3.67795e-06 3.19494C -3.67795e-06 1.35458 1.2136 -9.46088e-06 2.85778 -9.46088e-06C 4.20801 -9.46088e-06 5.06951 0.757741 5.06951 1.94832C 5.06951 2.34483 5.01065 2.72716 4.85405 3.27107L 1.60494 3.27107C 1.58532 3.35272 1.58532 3.39008 1.58532 3.43991C 1.58532 4.06028 2.07476 4.37721 3.03365 4.37721C 3.62084 4.37721 4.14949 4.27445 4.73667 4.03917L 4.46271 5.37854Z" transform="translate(17.3413 11.1215)" fill="#231F20"/>
</g>
<g id="path638">
<path d="M 4.11026 2.4424C 4.11026 1.88258 3.87554 1.35181 3.21023 1.35181C 2.3687 1.35181 1.85999 2.32892 1.85999 3.18941C 1.85999 3.91566 2.21209 4.40421 2.79962 4.39314C 3.15172 4.39314 3.91511 3.91531 4.0521 3.08076C 4.09063 2.88839 4.11026 2.67491 4.11026 2.4424ZM 5.77406 3.08353C 5.53898 4.86576 4.26687 5.65568 2.5838 5.65568C 0.743783 5.65568 -2.56601e-06 4.54676 -2.56601e-06 3.18698C -2.56601e-06 1.28573 1.25284 -2.02733e-06 3.21023 -2.02733e-06C 4.91291 -2.02733e-06 5.81364 1.05876 5.81364 2.41888C 5.81329 2.74861 5.8133 2.77213 5.77406 3.08353Z" transform="translate(33.5088 11.1031)" fill="#231F20"/>
</g>
<g id="path640">
<path d="M 0.371709 0.39339L 0.430235 0.39339C 0.430235 0.39339 0.450205 0.393408 0.469474 0.38545C 0.488743 0.377492 0.489083 0.359151 0.489083 0.343235C 0.489083 0.330087 0.489093 0.314165 0.469474 0.306553C 0.469474 0.298595 0.430217 0.298591 0.410948 0.298591L 0.371709 0.298591L 0.371709 0.39339ZM 0.371709 0.602036L 0.293232 0.602036L 0.293232 0.232513L 0.449844 0.232513C 0.469463 0.232513 0.508699 0.235285 0.547588 0.253969C 0.567207 0.272307 0.586484 0.309317 0.586484 0.346339C 0.586484 0.385783 0.566868 0.425568 0.527979 0.441138L 0.586484 0.602374L 0.48874 0.602374L 0.429872 0.457061L 0.371709 0.457061L 0.371709 0.602036ZM 0.430235 0.736621C 0.60681 0.736621 0.743781 0.594088 0.743781 0.416937C 0.743781 0.242554 0.60681 0.0999973 0.430235 0.0999973C 0.254362 0.0999973 0.0977442 0.242554 0.0977442 0.416937C 0.0977442 0.594088 0.254362 0.736621 0.430235 0.736621ZM 5.13203e-07 0.416937C 5.13203e-07 0.187194 0.195845 3.37889e-06 0.430578 3.37889e-06C 0.66566 3.37889e-06 0.861155 0.187194 0.861155 0.416937C 0.861155 0.649447 0.66531 0.836615 0.430578 0.836615C 0.195495 0.836615 5.13203e-07 0.649447 5.13203e-07 0.416937Z" transform="translate(39.459 15.399)" fill="white"/>
</g>
<g id="path642">
<path d="M 7.14426 6.59021L 5.50009 6.59021L 6.47861 1.52343L 4.22763 6.59021L 2.74005 6.59021L 2.46609 1.55525L 1.48757 6.59021L 1.45407e-06 6.59021L 1.2721 -6.41988e-06L 3.83595 -6.41988e-06L 3.95331 4.08209L 5.77371 -6.41988e-06L 8.43564 -6.41988e-06L 7.14426 6.59021Z" transform="translate(4.38379 9.64539)" fill="white"/>
</g>
<g id="path644">
<path d="M 2.46679 6.52724C 2.01659 6.64868 1.66414 6.70129 1.29207 6.70129C 0.450537 6.70129 -4.78989e-06 6.28435 -4.78989e-06 5.5242C -4.78989e-06 5.37334 0.0196144 5.21281 0.0392338 5.04361L 0.136978 4.51769L 0.215113 4.09246L 0.978865 -6.41988e-06L 2.60343 -6.41988e-06L 2.36868 1.23037L 3.21023 1.23037L 2.97514 2.53477L 2.13361 2.53477L 1.70304 4.77096C 1.68342 4.86888 1.68341 4.94258 1.68341 4.9931C 1.68341 5.27059 1.85963 5.38925 2.25097 5.38925C 2.42719 5.38925 2.56453 5.37334 2.68154 5.33874L 2.46679 6.52724Z" transform="translate(27.3623 9.64539)" fill="white"/>
</g>
<g id="path646">
<path d="M 4.09064 1.15078L 4.05176 0.981945L 4.38458 0.142208C 4.30575 0.13425 4.26686 0.131834 4.26686 0.126644C 4.16911 0.10796 4.12989 0.0975645 4.11027 0.0975645C 4.07138 0.0868385 4.01251 0.084429 3.954 0.084429C 3.40606 0.084429 3.034 0.319357 2.52494 0.953225L 2.70153 -8.44721e-07L 0.998487 -8.44721e-07L 8.38231e-06 5.3519L 1.62491 5.3519C 1.84003 4.12395 1.93812 3.42469 2.0751 2.84342C 2.29021 1.87981 3.01473 1.44143 3.54305 1.539C 3.60156 1.54972 3.6408 1.54972 3.71893 1.57878L 3.81667 1.61547L 4.09064 1.15078Z" transform="translate(29.9468 11.2643)" fill="#231F20"/>
</g>
<g id="path648">
<path d="M 4.24759 0.103113C 4.11061 0.0501754 4.091 0.0501651 4.07174 0.0449752C 3.99291 0.0262913 3.93439 0.0159183 3.93439 0.0131503C 3.87588 0.00519233 3.81703 -6.25094e-06 3.75817 -6.25094e-06C 3.22985 -6.25094e-06 2.83851 0.237709 2.32946 0.871577L 2.48607 0.0581317L 0.998486 0.0581317L 7.3559e-06 5.41797L 1.64418 5.41797C 2.23136 2.14137 2.4857 1.56598 3.26872 1.56598C 3.32758 1.56598 3.3861 1.57118 3.46457 1.57914L 3.66043 1.61859L 4.24759 0.103113Z" transform="translate(30.3574 10.8176)" fill="white"/>
</g>
<g id="path650">
<path d="M 0.626066 1.8144C 0.626066 2.49014 1.01741 2.95759 1.89853 3.30878C 2.56384 3.57554 2.66194 3.65478 2.66194 3.90044C 2.66194 4.23295 2.36835 4.38346 1.72231 4.38346C 1.21326 4.38346 0.763049 4.31736 0.234727 4.17204L 1.19747e-06 5.40795L 0.0781363 5.42075L 0.37171 5.47334C 0.469456 5.49237 0.626423 5.50795 0.821917 5.52144C 1.21325 5.55051 1.50685 5.56607 1.72231 5.56607C 3.4835 5.56607 4.28614 5.00105 4.28614 3.77863C 4.28614 3.04201 3.95367 2.6116 3.11178 2.28671C 2.42686 2.01475 2.34803 1.9542 2.34803 1.70301C 2.34803 1.41514 2.62234 1.26738 3.15066 1.26738C 3.48314 1.26738 3.91407 1.29645 4.34465 1.34662L 4.57937 0.105871C 4.1488 0.0477431 3.50312 6.08199e-06 3.11178 6.08199e-06C 1.27212 0.00035208 0.626066 0.824158 0.626066 1.8144Z" transform="translate(22.7046 10.7567)" fill="white"/>
</g>
<g id="path652">
<path d="M 3.34756 3.09185C 3.17134 3.07351 3.09285 3.07073 2.97549 3.07073C 2.05548 3.07073 1.58567 3.3451 1.58567 3.88624C 1.58567 4.21909 1.80113 4.43293 2.17285 4.43293C 2.83851 4.43327 3.30832 3.88384 3.34756 3.09185ZM 4.54118 5.47852L 3.17099 5.47852L 3.21023 4.92424C 2.79927 5.36469 2.23171 5.57091 1.48758 5.57091C 0.606805 5.57091 3.93455e-06 4.97406 3.93455e-06 4.10803C 3.93455e-06 2.80327 1.05699 2.0407 2.87704 2.0407C 3.05326 2.0407 3.288 2.05627 3.54235 2.08291C 3.58159 1.90576 3.60086 1.83206 3.60086 1.73449C 3.60086 1.38053 3.30727 1.24871 2.54386 1.24871C 2.07405 1.24871 1.54537 1.30407 1.19327 1.39645L 0.958549 1.45457L 0.821566 1.48918L 1.03703 0.282325C 1.85894 0.0764562 2.38726 -2.02733e-06 2.99406 -2.02733e-06C 4.40315 -2.02733e-06 5.14729 0.543912 5.14729 1.57118C 5.14729 1.83518 5.12767 2.03586 5.02992 2.63236L 4.67747 4.53638L 4.61897 4.87685L 4.57973 5.14879L 4.56011 5.33321L 4.54118 5.47852Z" transform="translate(12.311 10.7571)" fill="white"/>
</g>
<g id="path654">
<path d="M 3.60157 2.18879C 3.60157 2.0753 3.60157 1.98534 3.60157 1.91406C 3.60157 1.47845 3.32759 1.22484 2.83816 1.22484C 2.30984 1.22484 1.93776 1.5653 1.78115 2.18602L 3.60157 2.18879ZM 4.46306 5.37818C 3.91477 5.5235 3.36683 5.59479 2.79892 5.59479C 0.959251 5.59479 -2.22388e-06 4.77096 -2.22388e-06 3.19217C -2.22388e-06 1.35458 1.21325 1.04745e-05 2.85742 1.04745e-05C 4.20801 1.04745e-05 5.06916 0.757733 5.06916 1.94589C 5.06916 2.34206 5.0103 2.7275 4.87296 3.27107L 1.6242 3.27107C 1.60458 3.35307 1.60459 3.39008 1.60459 3.43991C 1.60459 4.06063 2.09367 4.37757 3.0333 4.37757C 3.62048 4.37757 4.14915 4.2717 4.73598 4.03676L 4.46306 5.37818Z" transform="translate(17.7524 10.7439)" fill="white"/>
</g>
<g id="path656">
<path d="M 4.09064 2.39742C 4.09064 1.8376 3.85592 1.30718 3.19061 1.30718C 2.34908 1.30718 1.84038 2.28393 1.84038 3.14477C 1.84038 3.87344 2.19283 4.36234 2.78001 4.35126C 3.13246 4.35126 3.89549 3.87345 4.03248 3.0389C 4.07137 2.84342 4.09064 2.62993 4.09064 2.39742ZM 5.79368 3.08422C 5.53898 4.86611 4.28614 5.65811 2.60342 5.65811C 0.743784 5.65811 9.57978e-06 4.54642 9.57978e-06 3.18665C 9.57978e-06 1.28816 1.27212 -1.68944e-06 3.22985 -1.68944e-06C 4.93218 -1.68944e-06 5.83292 1.05875 5.83292 2.41852C 5.83292 2.75102 5.83292 2.77248 5.79368 3.08422Z" transform="translate(33.9199 10.7228)" fill="white"/>
</g>
</g>
</g>
</g>
</svg>

