<svg width="43" height="26" viewBox="0 0 43 26" version="1.1" xmlns="http://www.w3.org/2000/svg" xmlns:xlink="http://www.w3.org/1999/xlink">
<g id="Canvas" fill="none">
<g id="MasterCard">
<g id="layer1">
<g id="g10305">
<g id="path2268">
<path d="M 25.7375 13.0001C 25.7396 20.1781 19.9794 25.9981 12.872 26C 5.76451 26.0018 0.00188828 20.1847 1.80368e-07 13.0067C 1.80368e-07 13.0043 1.80368e-07 13.0024 1.80368e-07 13.0001C -0.00188792 5.82222 5.75827 0.00190732 12.8654 4.6557e-07C 19.9729 -0.00190639 25.7357 5.81548 25.7375 12.9935C 25.7375 12.9957 25.7375 12.9977 25.7375 13.0001Z" transform="translate(17.2627 0)" fill="#FF9900"/>
</g>
<g id="path1350">
<path d="M 12.7859 6.51889e-05C 5.72065 0.0453897 1.10808e-09 5.8506 1.10808e-09 12.9968C 1.10808e-09 20.1708 5.76524 25.9933 12.8688 25.9933C 16.2028 25.9933 19.2418 24.7101 21.5285 22.607C 21.5284 22.607 21.5281 22.6067 21.5275 22.6064L 21.5303 22.6064C 21.9985 22.1755 22.4353 21.7105 22.8367 21.2147L 20.2002 21.2147C 19.8481 20.7852 19.5282 20.3377 19.2407 19.876L 23.7879 19.876C 24.0644 19.429 24.3148 18.9649 24.537 18.4843L 18.49 18.4843C 18.2839 18.0381 18.105 17.5817 17.9522 17.1188L 25.0754 17.1188C 25.5047 15.8233 25.7377 14.4373 25.7377 12.9966C 25.7377 12.0414 25.6352 11.1101 25.4411 10.2135L 17.5744 10.2135C 17.6719 9.75203 17.7949 9.29614 17.9416 8.84818L 25.0674 8.84818C 24.9081 8.37146 24.7231 7.90692 24.5126 7.45661L 18.4893 7.45661C 18.7066 6.98782 18.9527 6.53179 19.2277 6.09145L 23.7715 6.09145C 23.4691 5.60491 23.1344 5.14007 22.7727 4.69974L 20.2393 4.69974C 20.631 4.23417 21.0622 3.79574 21.5303 3.38694C 19.2434 1.28353 16.2035 6.51889e-05 12.8688 6.51889e-05C 12.8411 6.51889e-05 12.8137 -8.14924e-05 12.7859 6.51889e-05Z" transform="translate(0 0.0045166)" fill="#CC0000"/>
</g>
<g id="use9412">
<path d="M 0.416399 1.07433e-06C 0.486404 1.07433e-06 0.55452 0.0183343 0.62104 0.0544179C 0.687849 0.0905015 0.739265 0.142575 0.776446 0.210195C 0.813627 0.277082 0.832218 0.347635 0.832218 0.420683C 0.832218 0.49285 0.813773 0.562669 0.777173 0.629556C 0.740718 0.696296 0.689303 0.748369 0.623074 0.785479C 0.557572 0.822003 0.488291 0.840484 0.416253 0.840484C 0.344215 0.840484 0.275082 0.822003 0.209144 0.785479C 0.14306 0.748222 0.0919381 0.696443 0.0547571 0.629556C 0.018157 0.562669 1.41834e-07 0.49285 1.41834e-07 0.420683C 1.41834e-07 0.347635 0.0184458 0.277082 0.0557721 0.210195C 0.0932436 0.142575 0.144946 0.0909416 0.21132 0.0544179C 0.27842 0.0183343 0.34654 1.07433e-06 0.416399 1.07433e-06ZM 0.416399 0.0696734C 0.358159 0.0696734 0.301226 0.0849289 0.2456 0.115292C 0.190409 0.145655 0.14727 0.188633 0.116189 0.245545C 0.0846723 0.301577 0.0689893 0.359663 0.0689893 0.420683C 0.0689893 0.481115 0.0843849 0.539495 0.11474 0.59494C 0.145821 0.650239 0.188811 0.693656 0.243711 0.724753C 0.299047 0.755702 0.356415 0.770958 0.416253 0.770958C 0.476382 0.770958 0.533895 0.755702 0.588941 0.724753C 0.643841 0.693656 0.686687 0.650239 0.717332 0.59494C 0.747687 0.539495 0.762794 0.481262 0.762794 0.420683C 0.762794 0.359663 0.747397 0.301431 0.716171 0.245545C 0.685235 0.188633 0.641952 0.145655 0.586326 0.115292C 0.53128 0.0847822 0.47464 0.0696734 0.416399 0.0696734ZM 0.233978 0.652732L 0.233978 0.200661L 0.388223 0.200661C 0.440509 0.200661 0.478561 0.204767 0.502089 0.213568C 0.525618 0.221929 0.544354 0.236157 0.558442 0.257132C 0.57224 0.277814 0.579358 0.299817 0.579358 0.323286C 0.579358 0.356436 0.567738 0.385185 0.54421 0.409534C 0.521262 0.433883 0.490035 0.447819 0.451401 0.450752C 0.467232 0.457353 0.479869 0.465714 0.489745 0.474808C 0.5079 0.49241 0.529684 0.522187 0.555827 0.564284L 0.610291 0.652732L 0.522279 0.652732L 0.482773 0.581592C 0.451547 0.52556 0.426421 0.490649 0.407105 0.476274C 0.393888 0.466153 0.374571 0.460874 0.349445 0.460874L 0.30689 0.460874L 0.30689 0.653171L 0.234271 0.653171L 0.233978 0.652732ZM 0.306309 0.39824L 0.394034 0.39824C 0.435862 0.39824 0.464181 0.391787 0.479431 0.379319C 0.494827 0.366411 0.502524 0.349981 0.502524 0.329152C 0.502524 0.315658 0.499041 0.303631 0.491633 0.293364C 0.484081 0.282656 0.473913 0.275028 0.460696 0.269601C 0.44777 0.264467 0.423659 0.261532 0.388511 0.261532L 0.306597 0.261532L 0.306597 0.39824" transform="translate(41.2925 19.7944)" fill="#FCB340"/>
</g>
</g>
<g id="g16480">
<g id="g13802">
<g id="path13804">
<path d="M 2.11859 6.09124L 2.28997 4.91485C 2.19629 4.91485 2.05861 4.95578 1.9369 4.95578C 1.45994 4.95578 1.40039 4.69835 1.43786 4.5103L 1.90785 2.14433L 2.63288 2.14433L 2.78233 0.809094L 2.09898 0.809094L 2.23812 -2.55152e-07L 0.808687 -2.55152e-07C 0.778477 0.0305095 5.49608e-07 4.55035 5.49608e-07 5.10099C 5.49608e-07 5.91581 0.452854 6.2784 1.09161 6.27268C 1.59152 6.26843 1.9812 6.12864 2.11859 6.09124Z" transform="translate(15.021 10.6375)" fill="#000066"/>
</g>
<g id="path13806">
<path d="M -9.21923e-07 3.19369C -9.21923e-07 5.14925 1.27795 5.61379 2.36695 5.61379C 3.37215 5.61379 3.89921 5.37851 3.89921 5.37851L 4.1406 4.04371C 4.1406 4.04371 3.29125 4.39252 2.60093 4.39252C 1.12952 4.39252 1.38746 3.28449 1.38746 3.28449L 4.21424 3.29314C 4.21424 3.29314 4.39419 2.39677 4.39419 2.03139C 4.39419 1.11947 3.90226 2.462e-07 2.39789 2.462e-07C 1.02015 0.000293609 -9.21923e-07 1.49952 -9.21923e-07 3.19369ZM 2.40311 1.23916C 3.17636 1.23916 3.03374 2.1169 3.03374 2.18805L 1.51251 2.18805C 1.51251 2.0971 1.65615 1.23916 2.40311 1.23916Z" transform="translate(17.5737 11.2925)" fill="#000066"/>
</g>
<g id="path13808">
<path d="M 3.74149 6.8106L 3.98679 5.30213C 3.98679 5.30213 3.31405 5.64257 2.85292 5.64257C 1.88084 5.64257 1.49087 4.89303 1.49087 4.0876C 1.49087 2.45401 2.32716 1.55515 3.25813 1.55515C 3.95644 1.55515 4.51662 1.95104 4.51662 1.95104L 4.74029 0.485258C 4.74029 0.485258 4.07887 0.00282289 3.36692 3.59406e-05C 1.22538 -0.00847158 5.67337e-07 1.49736 5.67337e-07 4.10051C 5.67337e-07 5.82592 0.907449 7.00011 2.54254 7.00011C 3.00484 7.00011 3.74149 6.8106 3.74149 6.8106Z" transform="translate(24.9116 9.9176)" fill="#000066"/>
</g>
<g id="path13810">
<path d="M 2.54632 1.52196e-07C 1.60677 1.52196e-07 0.88668 0.304951 0.88668 0.304951L 0.687703 1.49703C 0.687703 1.49703 1.28216 1.2531 2.1809 1.2531C 2.69112 1.2531 3.06438 1.31104 3.06438 1.72981C 3.06438 1.98416 3.01878 2.07803 3.01878 2.07803C 3.01878 2.07803 2.61618 2.04415 2.42969 2.04415C 1.09205 2.04415 -5.05285e-07 2.5549 -5.05285e-07 4.09476C -5.05285e-07 5.30825 0.816675 5.5865 1.32283 5.5865C 2.28968 5.5865 2.67239 4.97 2.69446 4.96824L 2.68328 5.47987C 2.68328 5.47987 3.88963 5.47987 3.88977 5.47987L 4.42803 1.66909C 4.42803 0.0519251 3.03142 1.52196e-07 2.54632 1.52196e-07ZM 2.75517 3.09439C 2.78146 3.32703 2.69562 4.42714 1.87038 4.42714C 1.44483 4.42714 1.3343 4.09857 1.3343 3.90466C 1.3343 3.52563 1.53807 3.07107 2.54196 3.07107C 2.7758 3.07107 2.71581 3.08808 2.75517 3.09439Z" transform="translate(7.05713 11.314)" fill="#000066"/>
</g>
<g id="path13812">
<path d="M 1.53764 5.54983C 1.84627 5.54983 3.61048 5.62919 3.61048 3.79054C 3.61048 2.07129 1.97742 2.41115 1.97742 1.72028C 1.97742 1.37675 2.24364 1.2685 2.73034 1.2685C 2.92336 1.2685 3.66669 1.33055 3.66669 1.33055L 3.83938 0.108691C 3.83938 0.108838 3.35835 -4.47636e-08 2.57522 -4.47636e-08C 1.5616 -4.47636e-08 0.532734 0.408654 0.532734 1.80682C 0.532734 3.39127 2.24829 3.23212 2.24829 3.89952C 2.24829 4.34499 1.769 4.38166 1.39952 4.38166C 0.760323 4.38166 0.184889 4.16003 0.182855 4.17074L -1.77293e-08 5.38012C 0.0332596 5.39039 0.388367 5.54983 1.53764 5.54983Z" transform="translate(11.23 11.3225)" fill="#000066"/>
</g>
<g id="path13814">
<path d="M 3.87293 2.68582e-07L 3.62529 1.86417C 3.62529 1.86417 3.10926 1.1447 2.30188 1.1447C 0.782833 1.1447 -1.27651e-06 2.67356 -1.27651e-06 4.42978C -1.27651e-06 5.56362 0.558296 6.67503 1.69914 6.67503C 2.51989 6.67503 2.97492 6.09696 2.97492 6.09696L 2.91465 6.59054L 4.24764 6.59054L 5.29437 0.0101208L 3.87293 2.68582e-07ZM 3.28442 3.62318C 3.28442 4.35409 2.92597 5.33055 2.18337 5.33055C 1.69014 5.33055 1.45892 4.91236 1.45892 4.25625C 1.45892 3.18328 1.93603 2.47554 2.53833 2.47554C 3.03127 2.47554 3.28442 2.81731 3.28442 3.62318Z" transform="translate(36.082 10.2056)" fill="#000066"/>
</g>
<g id="path13816">
<path d="M 1.36335 6.60638L 2.19746 1.63828L 2.32004 6.60638L 3.26394 6.60638L 5.02496 1.63828L 4.24488 6.60638L 5.64759 6.60638L 6.72773 0.0171616L 4.49948 -1.65625e-07L 3.17404 4.03432L 3.13773 0.0171616L 1.09568 0.0171616L -7.09172e-08 6.60638L 1.36335 6.60638Z" transform="translate(0.821289 10.1951)" fill="#000066"/>
</g>
<g id="path13818">
<path d="M 1.40721 5.84378C 1.80604 3.55336 1.94808 1.74448 3.11115 2.11911C 3.27817 1.23256 3.67627 0.461606 3.85811 0.0863953C 3.85811 0.0863953 3.8006 -9.40035e-08 3.44113 -9.40035e-08C 2.8275 -9.40035e-08 2.00821 1.25765 2.00821 1.25765L 2.13065 0.480088L 0.854583 0.480088L 3.72315e-07 5.84364L 1.40721 5.84364L 1.40721 5.84378Z" transform="translate(21.8882 10.967)" fill="#000066"/>
</g>
<g id="use14699">
<g id="path13810 1">
<path d="M 2.54647 1.52196e-07C 1.60648 1.52196e-07 0.886393 0.304951 0.886393 0.304951L 0.687559 1.49703C 0.687559 1.49703 1.28231 1.2531 2.18061 1.2531C 2.69098 1.2531 3.06409 1.31104 3.06409 1.72981C 3.06409 1.98416 3.01863 2.07803 3.01863 2.07803C 3.01863 2.07803 2.61618 2.04415 2.42969 2.04415C 1.0919 2.04415 -1.13467e-06 2.5549 -1.13467e-06 4.09476C -1.13467e-06 5.30825 0.816528 5.5865 1.32268 5.5865C 2.28925 5.5865 2.67224 4.97 2.69417 4.96824L 2.68284 5.47987L 3.88963 5.47987L 4.42774 1.66909C 4.42788 0.0519251 3.03127 1.52196e-07 2.54647 1.52196e-07ZM 2.75502 3.09439C 2.78117 3.32703 2.69533 4.42714 1.87024 4.42714C 1.4444 4.42714 1.33401 4.09857 1.33401 3.90466C 1.33401 3.52563 1.53764 3.07107 2.54167 3.07107C 2.77565 3.07107 2.71581 3.08808 2.75502 3.09439Z" transform="translate(28.9766 11.314)" fill="#000066"/>
</g>
</g>
<g id="use14701">
<path d="M 1.40751 5.36384C 1.62653 3.67877 2.03189 1.31309 3.1113 1.63916C 3.27818 0.752622 3.11725 0.754969 2.75793 0.754969C 2.14386 0.754969 2.00792 0.777558 2.00792 0.777558L 2.1305 -1.88007e-07L 0.854583 -1.88007e-07L -4.43232e-07 5.3637L 1.40751 5.3637L 1.40751 5.36384Z" transform="translate(33.3857 11.4471)" fill="#000066"/>
</g>
</g>
<g id="g10289">
<g id="path4157">
<path d="M 2.11888 6.09138L 2.29041 4.91514C 2.19673 4.91514 2.0589 4.95563 1.93733 4.95563C 1.46037 4.95563 1.4078 4.69952 1.43815 4.51016L 1.82347 2.11016L 2.54835 2.11016L 2.72337 0.809094L 2.03987 0.809094L 2.17901 -2.59629e-07L 0.808833 -2.59629e-07C 0.778623 0.0305095 1.77293e-07 4.55049 1.77293e-07 5.10084C 1.77293e-07 5.91566 0.452999 6.27855 1.09176 6.27268C 1.59196 6.26843 1.98149 6.12864 2.11888 6.09138Z" transform="translate(15.3779 10.2177)" fill="white"/>
</g>
<g id="path4155">
<path d="M -5.05285e-07 3.19384C -5.05285e-07 5.14939 1.2781 5.61408 2.36695 5.61408C 3.372 5.61408 3.81425 5.38717 3.81425 5.38717L 4.05564 4.05251C 4.05564 4.05251 3.2911 4.39267 2.60064 4.39267C 1.12937 4.39267 1.38703 3.28478 1.38703 3.28478L 4.17154 3.28478C 4.17154 3.28478 4.35134 2.38812 4.35134 2.02274C 4.35134 1.11096 3.90197 3.22298e-07 2.3976 3.22298e-07C 1.01986 0.000293685 -5.05285e-07 1.49952 -5.05285e-07 3.19384ZM 2.40282 1.23931C 3.17607 1.23931 3.03345 2.11691 3.03345 2.1879L 1.51222 2.1879C 1.51222 2.09725 1.65601 1.23931 2.40282 1.23931Z" transform="translate(17.9312 10.8726)" fill="white"/>
</g>
<g id="path4151">
<path d="M 3.66465 6.66476L 3.90982 5.15614C 3.90982 5.15614 3.23751 5.49659 2.77609 5.49659C 1.80415 5.49659 1.41433 4.74705 1.41433 3.94177C 1.41433 2.30818 2.25061 1.40946 3.18159 1.40946C 3.87975 1.40946 4.44008 1.80535 4.44008 1.80535L 4.66375 0.339567C 4.66375 0.339567 3.83284 -5.55068e-07 3.12059 -5.55068e-07C 1.5388 -5.55068e-07 8.86465e-07 1.38584 8.86465e-07 3.98856C 8.86465e-07 5.71441 0.830908 6.85427 2.466 6.85427C 2.9283 6.85442 3.66465 6.66476 3.66465 6.66476Z" transform="translate(25.3457 9.64368)" fill="white"/>
</g>
<g id="path4149">
<path d="M 2.54646 -3.31251e-07C 1.60692 -3.31251e-07 0.88668 0.304951 0.88668 0.304951L 0.687849 1.49703C 0.687849 1.49703 1.28231 1.2531 2.1809 1.2531C 2.69112 1.2531 3.06438 1.31104 3.06438 1.72981C 3.06438 1.98416 3.01863 2.07803 3.01863 2.07803C 3.01863 2.07803 2.61618 2.044 2.42984 2.044C 1.24484 2.044 -8.86465e-09 2.55475 -8.86465e-09 4.09461C -8.86465e-09 5.30796 0.816676 5.58636 1.32283 5.58636C 2.28954 5.58636 2.70623 4.95284 2.72845 4.95094L 2.68328 5.47972L 3.88977 5.47972L 4.42803 1.66879C 4.42803 0.0520714 3.03156 -3.31251e-07 2.54646 -3.31251e-07ZM 2.83999 3.1029C 2.86613 3.33568 2.69548 4.42684 1.87052 4.42684C 1.44498 4.42684 1.3343 4.09857 1.3343 3.90436C 1.3343 3.52563 1.53807 3.07092 2.54211 3.07092C 2.77565 3.07121 2.80063 3.09644 2.83999 3.1029Z" transform="translate(7.41455 10.8942)" fill="white"/>
</g>
<g id="path4145">
<path d="M 1.53749 5.54998C 1.84613 5.54998 3.61048 5.62919 3.61048 3.79054C 3.61048 2.07158 1.97728 2.41115 1.97728 1.72057C 1.97728 1.37675 2.2435 1.2685 2.73005 1.2685C 2.92321 1.2685 3.6664 1.33055 3.6664 1.33055L 3.83923 0.108691C 3.83923 0.108838 3.3582 -5.2821e-07 2.57508 -5.2821e-07C 1.56146 -5.2821e-07 0.53259 0.408654 0.53259 1.80682C 0.53259 3.39113 2.24814 3.23212 2.24814 3.89952C 2.24814 4.34499 1.76886 4.38122 1.39952 4.38122C 0.760322 4.38122 0.184743 4.15974 0.18271 4.1703L 3.98909e-07 5.37983C 0.0331147 5.3901 0.388077 5.54998 1.53749 5.54998Z" transform="translate(11.5874 10.9027)" fill="white"/>
</g>
<g id="path4139">
<path d="M 3.92056 0.00220011L 3.625 1.85435C 3.625 1.85435 3.10926 1.13487 2.30188 1.13487C 1.04644 1.13487 2.4821e-07 2.66359 2.4821e-07 4.4201C 2.4821e-07 5.55394 0.558152 6.66491 1.69914 6.66491C 2.51989 6.66491 2.97492 6.08698 2.97492 6.08698L 2.91464 6.58056L 4.24735 6.58056L 5.29408 -1.79054e-08L 3.92056 0.00220011ZM 3.28428 3.6135C 3.28428 4.34441 2.92597 5.32072 2.18308 5.32072C 1.68999 5.32072 1.45892 4.90268 1.45892 4.24657C 1.45892 3.17374 1.93603 2.46586 2.53804 2.46586C 3.03127 2.46571 3.28428 2.80792 3.28428 3.6135Z" transform="translate(36.4395 9.79553)" fill="white"/>
</g>
<g id="path4133">
<path d="M 1.32109 6.58937L 2.15519 1.62127L 2.27763 6.58937L 3.22168 6.58937L 4.98269 1.62127L 4.20262 6.58937L 5.60533 6.58937L 6.68561 5.55069e-07L 4.51648 5.55069e-07L 3.16562 4.04298L 3.09532 5.55069e-07L 1.09582 5.55069e-07L -1.66212e-08 6.58937L 1.32109 6.58937Z" transform="translate(1.2207 9.79248)" fill="white"/>
</g>
<g id="path4131">
<path d="M 1.40707 5.43278C 1.80589 3.14221 1.87982 1.28229 2.83157 1.62274C 2.99816 0.736193 3.15894 0.393253 3.34077 0.0180423C 3.34077 0.0180423 3.25552 3.49156e-07 3.07659 3.49156e-07C 2.46295 3.49156e-07 2.00836 0.846644 2.00836 0.846644L 2.1305 0.0690874L 0.854728 0.0690874L 7.09172e-07 5.43278L 1.40707 5.43278L 1.40707 5.43278Z" transform="translate(22.2456 10.9581)" fill="white"/>
</g>
<g id="use8523">
<g id="path4149 1">
<path d="M 2.54632 -3.31251e-07C 1.60677 -3.31251e-07 0.886537 0.304951 0.886537 0.304951L 0.687845 1.49703C 0.687845 1.49703 1.28231 1.2531 2.1809 1.2531C 2.69112 1.2531 3.06409 1.31104 3.06409 1.72981C 3.06409 1.98416 3.01864 2.07803 3.01864 2.07803C 3.01864 2.07803 2.61618 2.044 2.42969 2.044C 1.24484 2.044 1.70201e-06 2.55475 1.70201e-06 4.09461C 1.70201e-06 5.30796 0.816531 5.58636 1.32269 5.58636C 2.28939 5.58636 2.70608 4.95284 2.72816 4.95094L 2.68328 5.47972C 2.68328 5.47972 3.88934 5.47972 3.88977 5.47972L 4.42788 1.66879C 4.42803 0.0520714 3.03141 -3.31251e-07 2.54632 -3.31251e-07ZM 2.84028 3.1029C 2.86642 3.33568 2.69562 4.42684 1.87038 4.42684C 1.44483 4.42684 1.33445 4.09857 1.33445 3.90436C 1.33445 3.52563 1.53822 3.07092 2.54211 3.07092C 2.77565 3.07121 2.80048 3.09644 2.84028 3.1029Z" transform="translate(29.626 10.8942)" fill="white"/>
</g>
</g>
<g id="use8525">
<g id="path4131 1">
<path d="M 1.40692 5.43278C 1.80589 3.14221 1.87982 1.28229 2.83128 1.62274C 2.99816 0.736193 3.15908 0.393253 3.34077 0.0180423C 3.34077 0.0180423 3.25552 3.49156e-07 3.07658 3.49156e-07C 2.46295 3.49156e-07 2.00836 0.846644 2.00836 0.846644L 2.1305 0.0690874L 0.854727 0.0690874L 4.43232e-07 5.43278L 1.40692 5.43278L 1.40692 5.43278Z" transform="translate(33.7495 10.9581)" fill="white"/>
</g>
</g>
<g id="text9407">
<path d="M 0.416691 -2.23818e-07C 0.48626 -2.23818e-07 0.554809 0.0180417 0.620892 0.0547121C 0.687557 0.090209 0.73941 0.142427 0.776591 0.210047C 0.813917 0.277227 0.832216 0.347195 0.832216 0.420389C 0.832216 0.492703 0.813917 0.562523 0.777171 0.629263C 0.740717 0.696003 0.689449 0.748369 0.623365 0.785186C 0.557427 0.821856 0.488292 0.840338 0.416544 0.840338C 0.344216 0.840338 0.27508 0.821856 0.208996 0.785186C 0.143058 0.748075 0.0919365 0.696003 0.0553365 0.629263C 0.0181554 0.562523 -1.09922e-06 0.492703 -1.09922e-06 0.420389C -1.09922e-06 0.347195 0.0184446 0.277227 0.0557708 0.210047C 0.0932423 0.142427 0.145237 0.0905023 0.211611 0.0547121C 0.278566 0.0180417 0.347121 -2.23818e-07 0.416691 -2.23818e-07ZM 0.416691 0.0692334C 0.35845 0.0692334 0.301513 0.0844888 0.245887 0.115145C 0.190405 0.145068 0.147272 0.188338 0.116046 0.244957C 0.084965 0.300843 0.0692806 0.359369 0.0692806 0.420095C 0.0692806 0.480821 0.0843836 0.538907 0.114738 0.594353C 0.145674 0.649652 0.188664 0.69307 0.244145 0.724313C 0.299045 0.754822 0.356417 0.770223 0.416691 0.770223C 0.476529 0.770223 0.534332 0.754822 0.589232 0.724313C 0.644132 0.69307 0.687123 0.649652 0.717623 0.594353C 0.748268 0.538467 0.763227 0.480821 0.763227 0.420095C 0.763227 0.359369 0.747689 0.300843 0.716608 0.244957C 0.685672 0.188338 0.642535 0.145068 0.586763 0.115145C 0.531573 0.0846354 0.475076 0.0692334 0.416691 0.0692334ZM 0.234416 0.652438L 0.234416 0.200219L 0.388514 0.200219C 0.440945 0.200219 0.479289 0.204474 0.502527 0.213128C 0.526056 0.221196 0.544501 0.235717 0.558879 0.256692C 0.572968 0.277521 0.580084 0.299377 0.580084 0.322846C 0.580084 0.355849 0.568171 0.384745 0.544643 0.409094C 0.521695 0.433443 0.49076 0.447525 0.452127 0.450165C 0.467522 0.456912 0.480302 0.46498 0.490178 0.474074C 0.508043 0.491969 0.530121 0.521892 0.556264 0.563697L 0.611017 0.652291L 0.52257 0.652291L 0.483206 0.581151C 0.451835 0.524972 0.426709 0.490063 0.407538 0.475835C 0.394321 0.46542 0.375006 0.460286 0.34959 0.460286L 0.307323 0.460286L 0.307323 0.652586L 0.234416 0.652438ZM 0.306742 0.397947L 0.394467 0.397947C 0.436441 0.397947 0.464764 0.391639 0.479869 0.379024C 0.495119 0.366703 0.503108 0.349835 0.503108 0.32886C 0.503108 0.315512 0.499475 0.303483 0.492213 0.293362C 0.484806 0.282508 0.474492 0.274734 0.461275 0.269306C 0.448059 0.264173 0.424387 0.261533 0.388949 0.261533L 0.306889 0.261533L 0.306889 0.397947" transform="translate(41.2871 15.5634)" fill="white"/>
</g>
</g>
</g>
</g>
</g>
</g>
</svg>

