<svg width="57" height="16" viewBox="0 0 57 16" version="1.1" xmlns="http://www.w3.org/2000/svg" xmlns:xlink="http://www.w3.org/1999/xlink">
<g id="Canvas" fill="none">
<g id="Mir">
<g id="g5">
<g id="path7">
<path fill-rule="evenodd" clip-rule="evenodd" d="M 15.3597 3.0441e-07L 15.3597 0.0069872C 15.3527 0.0069872 13.1333 2.66529e-07 12.5414 2.10306C 11.9989 4.03144 10.47 9.35546 10.4277 9.50218L 10.0049 9.50218C 10.0049 9.50218 8.44079 4.05939 7.89122 2.09607C 7.29938 -0.00698666 5.07293 3.0441e-07 5.07293 3.0441e-07L 0 3.0441e-07L 0 16L 5.07293 16L 5.07293 6.49782L 5.2843 6.49782L 5.49567 6.49782L 8.45488 16L 11.9778 16L 14.937 6.5048L 15.3597 6.5048L 15.3597 16L 20.4326 16L 20.4326 3.0441e-07L 15.3597 3.0441e-07Z" fill="#4DB45E"/>
</g>
</g>
<g id="g9">
<g id="path11">
<path fill-rule="evenodd" clip-rule="evenodd" d="M 11.2732 0C 11.2732 0 9.78653 0.132751 9.089 1.67686L 5.49567 9.50218L 5.07293 9.50218L 5.07293 0L 0 0L 0 16L 4.7911 16C 4.7911 16 6.34821 15.8603 7.04574 14.3231L 10.5686 6.49782L 10.9913 6.49782L 10.9913 16L 16.0643 16L 16.0643 0L 11.2732 0Z" transform="translate(22.6172 0)" fill="#4DB45E"/>
</g>
</g>
<g id="g13">
<g id="path15">
<path fill-rule="evenodd" clip-rule="evenodd" d="M 0 0L 0 8.73362L 5.07293 8.73362L 5.07293 3.63319L 10.5686 3.63319C 12.9642 3.63319 14.9933 2.11703 15.7472 0L 0 0Z" transform="translate(40.9355 7.26636)" fill="#4DB45E"/>
</g>
</g>
<g id="g17">
<g id="path24">
<path fill-rule="evenodd" clip-rule="evenodd" d="M 11.2802 0L 1.72015e-06 0C 0.563661 3.04629 2.86762 5.4917 5.84796 6.28821C 6.52435 6.46987 7.23597 6.56769 7.96873 6.56769L 16.6632 6.56769C 16.7407 6.20437 16.7759 5.83406 16.7759 5.44978C 16.7759 2.43843 14.3169 0 11.2802 0Z" transform="translate(40.2241 0)" fill="url(#paint0_linear)"/>
</g>
</g>
</g>
</g>
<defs>

<linearGradient id="paint0_linear" x2="1" gradientUnits="userSpaceOnUse" gradientTransform="translate(0.00136687 -5.03338) scale(16.7745 16.6345)">
<stop offset="0.3" stop-color="#00B4E6"/>
<stop offset="1" stop-color="#088CCB"/>
</linearGradient>

</defs>
</svg>

