<?xml version="1.0" encoding="iso-8859-1"?>
<!-- Generator: Adobe Illustrator 19.0.0, SVG Export Plug-In . SVG Version: 6.00 Build 0)  -->
<svg version="1.1" id="Capa_1" xmlns="http://www.w3.org/2000/svg" xmlns:xlink="http://www.w3.org/1999/xlink" x="0px" y="0px"
	 viewBox="0 0 512 512" style="enable-background:new 0 0 512 512;" xml:space="preserve">
<circle style="fill:#2196F3;" cx="256" cy="256" r="256"/>
<path style="fill:#FAFAFA;" d="M320,128h-80c-8.832,0-16,7.168-16,16v144h-48c-8.832,0-16,7.168-16,16s7.168,16,16,16h48v48
	c0,8.832,7.168,16,16,16s16-7.168,16-16v-48h48c8.832,0,16-7.168,16-16s-7.168-16-16-16h-48v-32h64c35.296,0,64-28.704,64-64
	S355.296,128,320,128z M320,224h-64v-64h64c17.664,0,32,14.368,32,32S337.664,224,320,224z"/>
<g>
</g>
<g>
</g>
<g>
</g>
<g>
</g>
<g>
</g>
<g>
</g>
<g>
</g>
<g>
</g>
<g>
</g>
<g>
</g>
<g>
</g>
<g>
</g>
<g>
</g>
<g>
</g>
<g>
</g>
</svg>
