<svg width="24" height="24" viewBox="0 0 24 24" fill="none" xmlns="http://www.w3.org/2000/svg">
<path d="M16.8242 15.5166C17.2539 15.0317 17.3086 14.2246 16.8242 13.7402C16.3398 13.2554 15.5859 13.2554 15.0469 13.7402C14.6133 14.2246 14.5625 15.0317 15.0469 15.5166C15.5312 15.9468 16.3906 16.001 16.8242 15.5166Z" fill="#FA4D62"/>
<path d="M7.17969 8.57227C6.75 9.05664 6.69531 9.86426 7.17969 10.3486C7.61328 10.833 8.47266 10.833 8.96094 10.3486C9.39062 9.86426 9.44531 9.05664 8.96094 8.57227C8.47266 8.1416 7.66797 8.08789 7.17969 8.57227Z" fill="#FA4D62"/>
<path fill-rule="evenodd" clip-rule="evenodd" d="M12 24C15.3125 24 18.3125 22.6401 20.4844 20.4688C20.7539 20.1973 21.0156 19.9297 21.2617 19.6333C22.9727 17.5591 24 14.8994 24 12C24 8.68652 22.6562 5.68359 20.4844 3.51221C20.2148 3.24072 19.9297 2.98486 19.6328 2.74023C17.5586 1.02832 14.8984 0 12 0C8.69922 0 5.70703 1.33252 3.53906 3.48926C3.53125 3.49756 3.52734 3.50391 3.51953 3.51221C1.34766 5.68359 0 8.68652 0 12C0 14.8413 1.01562 17.6782 3.03516 19.9302L3.14062 20.0381C3.13281 20.0542 3.13672 20.0659 3.12891 20.082C3.94141 20.9731 4.89453 21.7383 5.94141 22.3525C6.05469 22.4199 6.16406 22.4883 6.28125 22.5518C7.98047 23.4756 9.92969 24 12 24ZM15.9609 17.562C17.5781 17.562 18.9766 16.2163 18.9766 14.6011C18.9766 12.9863 17.6289 11.6406 16.0156 11.5869C14.3984 11.5869 13 12.9326 13 14.5474C13 16.1621 14.3438 17.562 15.9609 17.562ZM17.1445 7.33447L15.8008 6.2041L6.91406 16.7544L8.25781 17.8848L17.1445 7.33447ZM11.0586 9.4873C11.0586 7.87256 9.71484 6.47314 8.09766 6.47314C6.42578 6.47314 5.08203 7.81885 5.08203 9.43359C5.08203 11.0483 6.42578 12.4482 8.04297 12.4482C9.66016 12.4482 11.0586 11.1025 11.0586 9.4873Z" fill="#FA4D62"/>
</svg>
