<?xml version="1.0"?>
<svg xmlns="http://www.w3.org/2000/svg" xmlns:xlink="http://www.w3.org/1999/xlink" version="1.1" id="Capa_1" x="0px" y="0px" width="512px" height="512px" viewBox="0 0 947.3 947.3" style="enable-background:new 0 0 947.3 947.3;" xml:space="preserve" class="hovered-paths"><g><script xmlns="" id="tinyhippos-injected" class="hovered-path active-path" style=""/><g>
	<g>
		<path d="M515.1,649.9c0,57.701,22.5,112,63.3,152.801C619.2,843.5,673.5,866,731.2,866c57.699,0,112-22.5,152.8-63.299    c40.899-40.801,63.3-95,63.3-152.801c0-34.9-8.5-69.5-24.6-100.199L775.399,247.2h24.7c13.8,0,25-11.2,25-25v-41.7    c0-13.8-11.2-25-25-25H612c-4.601-41.4-66.3-74.2-141.8-74.2s-137.2,32.8-141.801,74.2H140.3c-13.8,0-25,11.2-25,25v41.7    c0,13.8,11.2,25,25,25h31.6l-147.3,302.5C8.5,580.4,0,615.101,0,649.9c0,57.701,22.5,112,63.3,152.801    C104.1,843.5,158.4,866,216.1,866c57.7,0,112-22.5,152.8-63.299c40.9-40.801,63.4-95,63.4-152.801c0-34.9-8.5-69.5-24.6-100.199    L260.3,247.2h426.8L539.7,549.701C523.6,580.4,515.1,615.101,515.1,649.9z M353.899,576.4l0.4,0.9c11.9,22.6,17.9,47,17.9,72.699    H60c0-25.699,6-50.1,17.9-72.699l0.2-0.4l138-283.2L353.899,576.4z M593,577.3l0.2-0.4l138-283.2L869,576.5l0.399,0.9    c11.9,22.6,17.9,47,17.9,72.701H575.1C575.1,624.3,581.1,599.8,593,577.3z" data-original="#000000" class="hovered-path active-path" fill="#FFFFFF"/>
	</g>
</g></g> </svg>
