<?xml version="1.0" encoding="iso-8859-1"?>
<!-- Generator: Adobe Illustrator 19.0.0, SVG Export Plug-In . SVG Version: 6.00 Build 0)  -->
<svg version="1.1" id="Capa_1" xmlns="http://www.w3.org/2000/svg" xmlns:xlink="http://www.w3.org/1999/xlink" x="0px" y="0px"
	 viewBox="0 0 201.506 201.506" style="enable-background:new 0 0 201.506 201.506;" xml:space="preserve">
<circle style="fill:#ED5481;" cx="100.753" cy="100.753" r="97.28"/>
<path d="M100.753,201.506C45.198,201.506,0,156.308,0,100.753S45.198,0,100.753,0s100.753,45.198,100.753,100.753
	S156.308,201.506,100.753,201.506z M100.753,6.946c-51.726,0-93.807,42.081-93.807,93.807s42.081,93.807,93.807,93.807
	s93.807-42.081,93.807-93.807S152.479,6.946,100.753,6.946z"/>
<path style="fill:#FFFFFF;" d="M185.477,52.966H74.324c-12.739,0-23.064,10.325-23.064,23.064v17.896h146.509
	C196.739,79.113,192.401,65.217,185.477,52.966z"/>
<path d="M201.426,97.34H47.846V76.032c0-14.601,11.877-26.479,26.477-26.479h113.143l0.98,1.734
	c7.398,13.09,11.68,27.356,12.725,42.404L201.426,97.34z M54.673,90.513h139.366c-1.297-12.029-4.847-23.487-10.578-34.133H74.324
	c-10.836,0-19.651,8.815-19.651,19.652L54.673,90.513L54.673,90.513z"/>
<circle style="fill:#ED5481;" cx="73.446" cy="75.153" r="8.533"/>
<path d="M73.446,87.1c-6.588,0-11.947-5.361-11.947-11.947s5.359-11.947,11.947-11.947c6.588,0,11.947,5.361,11.947,11.947
	S80.034,87.1,73.446,87.1z M73.446,70.033c-2.823,0-5.12,2.297-5.12,5.12s2.297,5.12,5.12,5.12c2.823,0,5.12-2.297,5.12-5.12
	S76.269,70.033,73.446,70.033z"/>
<circle style="fill:#FEDA4F;" cx="100.753" cy="75.153" r="8.533"/>
<path d="M100.753,87.1c-6.588,0-11.947-5.361-11.947-11.947s5.359-11.947,11.947-11.947c6.588,0,11.947,5.361,11.947,11.947
	S107.341,87.1,100.753,87.1z M100.753,70.033c-2.823,0-5.12,2.297-5.12,5.12s2.297,5.12,5.12,5.12s5.12-2.297,5.12-5.12
	S103.576,70.033,100.753,70.033z"/>
<circle style="fill:#9DFB45;" cx="128.06" cy="75.153" r="8.533"/>
<path d="M128.06,87.158c-6.62,0-12.005-5.385-12.005-12.005s5.385-12.005,12.005-12.005c6.62,0,12.005,5.385,12.005,12.005
	S134.68,87.158,128.06,87.158z M128.06,70.091c-2.79,0-5.062,2.27-5.062,5.062c0,2.792,2.272,5.062,5.062,5.062
	c2.79,0,5.062-2.27,5.062-5.062C133.122,72.361,130.85,70.091,128.06,70.091z"/>
<path style="fill:#2ABBE9;" d="M51.26,184.496c14.502,8.59,31.416,13.537,49.493,13.537c53.726,0,97.28-43.554,97.28-97.28
	c0-2.297-0.108-4.569-0.265-6.827H51.26V184.496z"/>
<path d="M100.753,201.446c-18.039,0-35.755-4.845-51.232-14.013l-1.674-0.992V90.513h153.107l0.22,3.176
	c0.186,2.686,0.273,4.932,0.273,7.064C201.446,156.274,156.276,201.446,100.753,201.446z M54.673,182.528
	c14.022,7.917,29.911,12.092,46.08,12.092c51.758,0,93.867-42.109,93.867-93.867c0-1.084-0.026-2.203-0.075-3.413H54.673V182.528z"
	/>
<circle style="fill:#DDDDDD;" cx="99.046" cy="134.886" r="20.48"/>
<path d="M99.046,158.78c-13.175,0-23.893-10.718-23.893-23.893c0-13.175,10.718-23.893,23.893-23.893s23.893,10.718,23.893,23.893
	C122.94,148.062,112.222,158.78,99.046,158.78z M99.046,117.82c-9.411,0-17.067,7.656-17.067,17.067s7.656,17.067,17.067,17.067
	s17.067-7.656,17.067-17.067S108.457,117.82,99.046,117.82z"/>
<path d="M136.593,175.846c-0.874,0-1.748-0.333-2.413-1l-22.187-22.187c-1.333-1.333-1.333-3.494,0-4.826
	c1.331-1.333,3.495-1.333,4.826,0l22.187,22.187c1.333,1.333,1.333,3.494,0,4.826C138.341,175.514,137.467,175.846,136.593,175.846z
	"/>
<g>
</g>
<g>
</g>
<g>
</g>
<g>
</g>
<g>
</g>
<g>
</g>
<g>
</g>
<g>
</g>
<g>
</g>
<g>
</g>
<g>
</g>
<g>
</g>
<g>
</g>
<g>
</g>
<g>
</g>
</svg>
