<?xml version="1.0" encoding="iso-8859-1"?>
<!-- Generator: Adobe Illustrator 19.0.0, SVG Export Plug-In . SVG Version: 6.00 Build 0)  -->
<svg version="1.1" id="Layer_1" xmlns="http://www.w3.org/2000/svg" xmlns:xlink="http://www.w3.org/1999/xlink" x="0px" y="0px"
	 viewBox="0 0 512 512" style="enable-background:new 0 0 512 512;" xml:space="preserve">
<circle style="fill:#FFEDB5;" cx="256" cy="256" r="256"/>
<path style="fill:#FEE187;" d="M511.955,259.491L364.013,111.549L198.546,293.917l-25.3,94.682l120.491,120.627
	C416.106,491.144,510.255,386.482,511.955,259.491z"/>
<path style="fill:#FFC61B;" d="M269.538,240.509c0-44.051-36.573-79.56-81.01-77.819c-39.815,1.56-72.425,33.606-74.628,73.39
	c-1.514,27.326,11.074,51.793,31.146,66.808c12.812,9.585,20.652,24.398,20.652,40.4v27.02c0,14.338,11.623,25.96,25.96,25.96l0,0
	c14.338,0,25.96-11.623,25.96-25.96v-26.588c0-16.219,7.92-31.239,20.871-40.998C257.346,288.515,269.538,265.94,269.538,240.509z"
	/>
<path style="fill:#EAA22F;" d="M188.528,162.692c-0.112,0.003-0.222,0.016-0.334,0.021v233.3c1.136,0.152,2.286,0.259,3.465,0.259
	c14.338,0,25.96-11.623,25.96-25.96v-26.588c0-16.217,7.92-31.237,20.871-40.998c18.856-14.208,31.048-36.785,31.048-62.214
	C269.538,196.46,232.965,160.951,188.528,162.692z"/>
<path style="fill:#A6A8AA;" d="M165.698,344.35v25.96c0,14.338,11.623,25.96,25.96,25.96l0,0c14.338,0,25.96-11.623,25.96-25.96
	v-25.962L165.698,344.35z"/>
<path style="fill:#808183;" d="M188.194,344.348v51.664c1.136,0.152,2.286,0.259,3.465,0.259c14.338,0,25.96-11.623,25.96-25.96
	v-25.962L188.194,344.348z"/>
<path style="fill:#FF5419;" d="M176.704,289.175c-1.588,0-3.191-0.484-4.57-1.495c-3.46-2.527-4.213-7.38-1.686-10.84l20.878-28.572
	h-14.617c-2.92,0-5.594-1.641-6.918-4.246c-1.322-2.605-1.069-5.73,0.655-8.089l29.894-40.907c2.526-3.46,7.378-4.218,10.84-1.686
	c3.46,2.527,4.213,7.38,1.686,10.84l-20.878,28.57h14.617c2.92,0,5.594,1.641,6.918,4.246c1.322,2.605,1.069,5.73-0.655,8.089
	l-29.894,40.907C181.455,288.073,179.097,289.175,176.704,289.175z"/>
<path style="fill:#C92F00;" d="M206.605,232.751h-14.617l20.878-28.57c2.529-3.46,1.774-8.313-1.686-10.84
	c-3.462-2.534-8.314-1.774-10.84,1.686l-12.148,16.624v36.617h3.132l-3.132,4.287v26.296l24.674-33.763
	c1.724-2.358,1.976-5.485,0.655-8.089C212.199,234.393,209.525,232.751,206.605,232.751z"/>
<path style="fill:#273B7A;" d="M429.982,294.233L429.982,294.233c-9.349,9.349-24.505,9.349-33.854,0l-67.708-67.708
	c-9.349-9.349-9.349-24.505,0-33.854l0,0c9.349-9.349,24.505-9.349,33.854,0l67.708,67.708
	C439.329,269.727,439.329,284.884,429.982,294.233z"/>
<path style="fill:#121149;" d="M328.418,226.525l67.708,67.708c9.321,9.321,24.414,9.344,33.768,0.078L328.339,192.757
	C319.074,202.111,319.097,217.204,328.418,226.525z"/>
<path style="fill:#71E2EF;" d="M353.809,116.498c-28.046-28.046-73.518-28.046-101.562,0c-0.028,0.028-0.052,0.057-0.079,0.083
	c-27.963,28.053-27.939,73.461,0.079,101.479c28.019,28.019,73.426,28.043,101.479,0.079c0.028-0.028,0.057-0.052,0.084-0.079
	C381.854,190.014,381.854,144.543,353.809,116.498z"/>
<path style="fill:#38C6D9;" d="M252.166,116.581c-27.963,28.053-27.939,73.461,0.079,101.479s73.426,28.043,101.479,0.079
	L252.166,116.581z"/>
<path style="fill:#386895;" d="M303.026,249.858c-21.157,0-42.312-8.052-58.418-24.161c-32.213-32.211-32.213-84.625,0-116.836
	c32.211-32.215,84.625-32.215,116.836,0c32.213,32.211,32.213,84.625,0,116.836C345.34,241.804,324.184,249.858,303.026,249.858z
	 M303.026,106.293c-15.624,0-31.249,5.947-43.144,17.841c-23.788,23.79-23.788,62.498,0,86.29c23.792,23.788,62.497,23.788,86.29,0
	c23.788-23.79,23.788-62.498,0-86.29C334.276,112.24,318.652,106.293,303.026,106.293z"/>
<path style="fill:#273B7A;" d="M346.088,210.503c-23.799,23.707-62.442,23.681-86.206-0.079
	c-23.761-23.762-23.786-62.409-0.079-86.206l-15.274-15.274c-32.132,32.218-32.106,84.568,0.079,116.753
	c16.106,16.108,37.26,24.161,58.418,24.161c21.121,0,42.239-8.028,58.335-24.081L346.088,210.503z"/>
<g>
</g>
<g>
</g>
<g>
</g>
<g>
</g>
<g>
</g>
<g>
</g>
<g>
</g>
<g>
</g>
<g>
</g>
<g>
</g>
<g>
</g>
<g>
</g>
<g>
</g>
<g>
</g>
<g>
</g>
</svg>
