<?xml version="1.0" encoding="iso-8859-1"?>
<!-- Generator: Adobe Illustrator 19.0.0, SVG Export Plug-In . SVG Version: 6.00 Build 0)  -->
<svg version="1.1" id="Capa_1" xmlns="http://www.w3.org/2000/svg" xmlns:xlink="http://www.w3.org/1999/xlink" x="0px" y="0px"
	 viewBox="0 0 497.371 497.371" style="enable-background:new 0 0 497.371 497.371;" xml:space="preserve">
<g>
	<path style="fill:#D4E1F4;" d="M208.457,358.4c0,26.122-20.898,47.02-47.02,47.02c-25.6,0-46.498-20.898-47.02-46.498V358.4
		c0-26.122,20.898-47.02,47.02-47.02S208.457,332.278,208.457,358.4z"/>
	<path style="fill:#D4E1F4;" d="M422.661,358.4C422.661,358.4,422.661,358.922,422.661,358.4c-0.522,26.122-21.42,47.02-47.02,47.02
		c-25.6,0-47.02-20.898-47.02-46.498V358.4c0-26.122,20.898-47.02,47.02-47.02C401.763,311.38,422.661,332.278,422.661,358.4z"/>
</g>
<polygon style="fill:#4DCFE0;" points="450.873,216.816 450.873,217.339 321.306,217.339 321.306,123.298 403.853,123.298 "/>
<g>
	<path style="fill:#3A2C51;" d="M494.237,247.641l-29.257-37.616l0,0l-47.02-93.518c-2.612-5.224-7.837-8.882-14.106-8.882H336.98
		V91.951c0-8.882-6.792-15.673-15.673-15.673H60.082c-8.882,0-15.673,6.792-15.673,15.673s6.792,15.673,15.673,15.673h245.551
		v109.714c0,8.882,6.792,15.673,15.673,15.673h121.731l22.988,29.257v80.98h-29.78c-6.792-27.167-31.347-47.543-60.604-47.543
		c-29.78,0-53.812,19.853-60.604,47.543h-92.996c-6.792-27.167-31.347-47.543-60.604-47.543s-53.812,20.376-60.604,47.543H60.082
		c-8.882,0-15.673,6.792-15.673,15.673c0,8.882,6.792,15.673,15.673,15.673h40.751c7.314,26.645,31.869,46.498,60.604,46.498
		c28.735,0,53.29-19.853,60.604-46.498h92.996c6.792,26.645,31.347,46.498,60.604,46.498c28.735,0,53.29-19.853,60.604-46.498
		h45.453c8.882,0,15.673-6.792,15.673-15.673V257.045C497.371,253.388,496.327,250.253,494.237,247.641z M336.98,138.971h57.469
		l31.347,62.694H336.98V138.971z M161.437,389.747c-16.718,0-30.824-14.106-31.347-31.347c0-17.763,13.584-31.347,31.347-31.347
		s31.347,13.584,31.347,31.347S179.2,389.747,161.437,389.747z M375.641,389.747c-17.241,0-31.347-14.106-31.347-30.824
		c0-17.763,13.584-31.869,31.347-31.869c17.763,0,31.347,13.584,31.347,31.347C406.465,375.641,392.359,389.747,375.641,389.747z"/>
	<path style="fill:#3A2C51;" d="M113.371,295.184H41.273c-8.882,0-15.673-6.792-15.673-15.673c0-8.882,6.792-15.673,15.673-15.673
		h72.098c8.882,0,15.673,6.792,15.673,15.673C129.045,288.392,122.253,295.184,113.371,295.184z"/>
	<path style="fill:#3A2C51;" d="M149.42,233.535H15.673C6.792,233.535,0,226.743,0,217.861c0-8.882,6.792-15.673,15.673-15.673
		H149.42c8.882,0,15.673,6.792,15.673,15.673C165.094,226.743,158.302,233.535,149.42,233.535z"/>
	<path style="fill:#3A2C51;" d="M175.02,171.886H41.273c-8.882,0-15.673-6.792-15.673-15.673s6.792-15.673,15.673-15.673H175.02
		c8.882,0,15.673,6.792,15.673,15.673S183.902,171.886,175.02,171.886z"/>
</g>
<g>
</g>
<g>
</g>
<g>
</g>
<g>
</g>
<g>
</g>
<g>
</g>
<g>
</g>
<g>
</g>
<g>
</g>
<g>
</g>
<g>
</g>
<g>
</g>
<g>
</g>
<g>
</g>
<g>
</g>
</svg>
