<?xml version="1.0"?>
<svg xmlns="http://www.w3.org/2000/svg" height="512px" viewBox="0 0 448 448" width="512px"><g><script xmlns="" id="tinyhippos-injected" class="active-path" style=""/><path d="m224 0c-123.710938 0-224 100.289062-224 224s100.289062 224 224 224 224-100.289062 224-224c-.140625-123.652344-100.347656-223.859375-224-224zm115.921875 301.191406c-27.058594 36.960938-70.117187 58.804688-115.921875 58.804688s-88.863281-21.84375-115.921875-58.804688c-1.347656-1.839844-1.847656-4.167968-1.375-6.398437 9.296875-42.410157 40.683594-76.542969 82.167969-89.351563-23.644532-15.527344-34.292969-44.730468-26.1875-71.832031 8.101562-27.097656 33.03125-45.667969 61.316406-45.667969s53.214844 18.570313 61.316406 45.667969c8.105469 27.101563-2.542968 56.304687-26.1875 71.832031 41.476563 12.808594 72.863282 46.929688 82.167969 89.335938.480469 2.234375-.023437 4.570312-1.375 6.414062zm0 0" data-original="#000000" class="active-path" fill="#999999"/><path d="m272 152c0 26.507812-21.492188 48-48 48s-48-21.492188-48-48 21.492188-48 48-48 48 21.492188 48 48zm0 0" data-original="#000000" class="active-path" fill="#999999"/><path d="m224 216c-47.578125.199219-89.015625 32.519531-100.800781 78.617188 24.175781 31.152343 61.398437 49.382812 100.832031 49.382812 39.4375 0 76.65625-18.230469 100.832031-49.382812-11.789062-46.121094-53.261719-78.445313-100.863281-78.617188zm0 0" data-original="#000000" class="active-path" fill="#999999"/></g> </svg>
