<svg xmlns="http://www.w3.org/2000/svg" width="90.856" height="56.6" viewBox="0 0 90.856 56.6">
  <g id="utp1" transform="translate(-171.402 -2302.298)">
    <path id="Path_35" data-name="Path 35" d="M240.78,2329.55a1.252,1.252,0,0,0,1.081-1.884c-1.954-3.34-5.018-9.952-6.115-9.952h-8.868a1.252,1.252,0,0,0-1.252,1.252v9.332a1.252,1.252,0,0,0,1.252,1.252Z" fill="none" stroke="#81bf3b" stroke-linecap="round" stroke-linejoin="round" stroke-width="1.6"/>
    <rect id="Rectangle_2" data-name="Rectangle 2" width="7.513" height="5.635" transform="translate(253.944 2345.732)" stroke-width="1.6" stroke="#81bf3b" stroke-linecap="round" stroke-linejoin="round" fill="none"/>
    <circle id="Ellipse_3" data-name="Ellipse 3" cx="7.983" cy="7.983" r="7.983" transform="translate(234.6 2342.132)" stroke-width="1.6" stroke="#81bf3b" stroke-linecap="round" stroke-linejoin="round" fill="none"/>
    <circle id="Ellipse_4" data-name="Ellipse 4" cx="2.418" cy="2.418" r="2.418" transform="translate(240.165 2347.697)" stroke-width="1.6" stroke="#81bf3b" stroke-linecap="round" stroke-linejoin="round" fill="none"/>
    <circle id="Ellipse_5" data-name="Ellipse 5" cx="7.983" cy="7.983" r="7.983" transform="translate(186.703 2342.132)" stroke-width="1.6" stroke="#81bf3b" stroke-linecap="round" stroke-linejoin="round" fill="none"/>
    <circle id="Ellipse_6" data-name="Ellipse 6" cx="2.315" cy="2.315" r="2.315" transform="translate(192.371 2347.8)" stroke-width="1.6" stroke="#81bf3b" stroke-linecap="round" stroke-linejoin="round" fill="none"/>
    <path id="Path_36" data-name="Path 36" d="M222.495,2350.115H234.6a7.983,7.983,0,0,1,15.966,0h3.378v-4.383h4.6v-12.364a2.5,2.5,0,0,0-2.174-2.482l-8.6-1.145a2.5,2.5,0,0,1-1.971-1.5c-1.551-3.645-6.09-13.661-9.163-13.661H225.626" fill="none" stroke="#81bf3b" stroke-linecap="round" stroke-linejoin="round" stroke-width="1.6"/>
    <rect id="Rectangle_3" data-name="Rectangle 3" width="7.513" height="5.635" transform="translate(172.202 2345.732)" stroke-width="1.6" stroke="#81bf3b" stroke-linecap="round" stroke-linejoin="round" fill="none"/>
    <path id="Path_37" data-name="Path 37" d="M218.739,2303.1H177.833a3.756,3.756,0,0,0-3.757,3.756v38.878h5.639v4.383H186.7a7.983,7.983,0,0,1,15.966,0h19.826v-43.261A3.756,3.756,0,0,0,218.739,2303.1Z" fill="none" stroke="#81bf3b" stroke-linecap="round" stroke-linejoin="round" stroke-width="1.6"/>
  </g>
</svg>
