<svg xmlns="http://www.w3.org/2000/svg" width="72.99" height="61.277" viewBox="0 0 72.99 61.277">
  <g id="utp2" transform="translate(-431.11 -2297.678)">
    <line id="Line_5" data-name="Line 5" y1="8.819" transform="translate(496.546 2316.681)" fill="none" stroke="#81bf3b" stroke-linecap="round" stroke-linejoin="round" stroke-width="1.6"/>
    <path id="Path_38" data-name="Path 38" d="M435.826,2316.681v37.8h37.183" fill="none" stroke="#81bf3b" stroke-linecap="round" stroke-linejoin="round" stroke-width="1.6"/>
    <path id="Path_39" data-name="Path 39" d="M458.077,2323.507v-25.029H474v25.029" fill="none" stroke="#81bf3b" stroke-linecap="round" stroke-linejoin="round" stroke-width="1.6"/>
    <path id="Path_40" data-name="Path 40" d="M474,2323.507l-3.978-3.413-3.979,3.413-3.985-3.413-3.985,3.413" fill="none" stroke="#81bf3b" stroke-linecap="round" stroke-linejoin="round" stroke-width="1.6"/>
    <line id="Line_6" data-name="Line 6" x2="5.688" transform="translate(442.718 2348.536)" fill="none" stroke="#81bf3b" stroke-linecap="round" stroke-linejoin="round" stroke-width="1.2"/>
    <line id="Line_7" data-name="Line 7" y2="5.688" transform="translate(445.562 2340.004)" fill="none" stroke="#81bf3b" stroke-linecap="round" stroke-linejoin="round" stroke-width="1.6"/>
    <path id="Path_41" data-name="Path 41" d="M443.287,2341.906l2.275-2.275,2.275,2.275" fill="none" stroke="#81bf3b" stroke-linecap="round" stroke-linejoin="round" stroke-width="1.6"/>
    <line id="Line_8" data-name="Line 8" x2="5.688" transform="translate(451.819 2348.536)" fill="none" stroke="#81bf3b" stroke-linecap="round" stroke-linejoin="round" stroke-width="1.2"/>
    <line id="Line_9" data-name="Line 9" y2="5.688" transform="translate(454.664 2340.004)" fill="none" stroke="#81bf3b" stroke-linecap="round" stroke-linejoin="round" stroke-width="1.6"/>
    <path id="Path_42" data-name="Path 42" d="M452.388,2341.906l2.275-2.275,2.275,2.275" fill="none" stroke="#81bf3b" stroke-linecap="round" stroke-linejoin="round" stroke-width="1.6"/>
    <path id="Path_43" data-name="Path 43" d="M479.184,2358.355c0-4.624-9.408-9.488-9.408-15.946a9.408,9.408,0,1,1,18.817,0C488.593,2349.345,479.184,2353.491,479.184,2358.355Z" fill="none" stroke="#81bf3b" stroke-miterlimit="10" stroke-width="1.6"/>
    <circle id="Ellipse_7" data-name="Ellipse 7" cx="5.023" cy="5.023" r="5.023" transform="translate(474.161 2337.625)" fill="none" stroke="#81bf3b" stroke-miterlimit="10" stroke-width="1.6"/>
    <path id="Path_44" data-name="Path 44" d="M497.184,2342c0-2.553-5.195-5.239-5.195-8.8a5.195,5.195,0,1,1,10.39,0C502.379,2337.025,497.184,2339.315,497.184,2342Z" fill="none" stroke="#81bf3b" stroke-miterlimit="10" stroke-width="1.6"/>
    <circle id="Ellipse_8" data-name="Ellipse 8" cx="2.774" cy="2.774" r="2.774" transform="translate(494.411 2330.554)" fill="none" stroke="#81bf3b" stroke-miterlimit="10" stroke-width="1.6"/>
    <path id="Path_45" data-name="Path 45" d="M481.815,2358.355H501a2.5,2.5,0,0,0,2.5-2.5V2355a2.5,2.5,0,0,0-2.5-2.5h-7a2.5,2.5,0,0,1-2.5-2.5h0a2.5,2.5,0,0,1,2.5-2.5h1.206a2.5,2.5,0,0,0,2.49-2.286l.041-.477" fill="none" stroke="#81bf3b" stroke-linecap="round" stroke-miterlimit="10" stroke-width="1.2" stroke-dasharray="1 3"/>
    <g id="Group_2" data-name="Group 2">
      <rect id="Rectangle_4" data-name="Rectangle 4" width="26.167" height="15.928" transform="translate(431.91 2300.754)" stroke-width="1.6" stroke="#81bf3b" stroke-linecap="round" stroke-linejoin="round" fill="none"/>
      <rect id="Rectangle_5" data-name="Rectangle 5" width="26.167" height="15.928" transform="translate(474.004 2300.754)" stroke-width="1.6" stroke="#81bf3b" stroke-linecap="round" stroke-linejoin="round" fill="none"/>
    </g>
  </g>
</svg>
