<svg xmlns="http://www.w3.org/2000/svg" width="56.911" height="61.878" viewBox="0 0 56.911 61.878">
  <g id="utp3" transform="translate(-692.578 -2293.099)">
    <path id="Path_46" data-name="Path 46" d="M706.726,2312.97h-8.1a5.052,5.052,0,0,0-5.25,4.827v1.164" fill="none" stroke="#81bf3b" stroke-linecap="round" stroke-linejoin="round" stroke-width="1.6"/>
    <path id="Path_47" data-name="Path 47" d="M737.914,2318.961v-4.382a1.684,1.684,0,0,0-1.75-1.609h-1.7" fill="none" stroke="#81bf3b" stroke-linecap="round" stroke-linejoin="round" stroke-width="1.6"/>
    <path id="Path_48" data-name="Path 48" d="M703.355,2318.961l13.666-24.29a1.316,1.316,0,0,1,1.792-.5l18.675,10.507a1.316,1.316,0,0,1,.5,1.792l-7.029,12.492" fill="none" stroke="#81bf3b" stroke-linecap="round" stroke-linejoin="round" stroke-width="1.6"/>
    <line id="Line_10" data-name="Line 10" y1="22.672" x2="12.756" transform="translate(709.378 2296.289)" fill="none" stroke="#81bf3b" stroke-linecap="round" stroke-linejoin="round" stroke-width="1.6"/>
    <line id="Line_11" data-name="Line 11" y1="20.098" x2="11.308" transform="translate(715.401 2298.863)" fill="none" stroke="#81bf3b" stroke-linecap="round" stroke-linejoin="round" stroke-width="1.6"/>
    <path id="Path_49" data-name="Path 49" d="M745,2342.469v8.49a3.218,3.218,0,0,1-3.218,3.218H696.6a3.218,3.218,0,0,1-3.218-3.218v-32h48.405a3.218,3.218,0,0,1,3.218,3.218v8.49" fill="none" stroke="#81bf3b" stroke-linecap="round" stroke-linejoin="round" stroke-width="1.6"/>
    <rect id="Rectangle_6" data-name="Rectangle 6" width="17.297" height="11.8" rx="2" transform="translate(731.392 2330.669)" stroke-width="1.6" stroke="#81bf3b" stroke-linecap="round" stroke-linejoin="round" fill="none"/>
    <rect id="Rectangle_7" data-name="Rectangle 7" width="2.548" height="2.548" rx="0.642" transform="translate(737.358 2335.295)" stroke-width="1.6" stroke="#81bf3b" stroke-linecap="round" stroke-linejoin="round" fill="none"/>
  </g>
</svg>
