<svg xmlns="http://www.w3.org/2000/svg" width="49.365" height="60.221" viewBox="0 0 49.365 60.221">
  <g id="utp4" transform="translate(-948.12 -2292.718)">
    <g id="Group_3" data-name="Group 3">
      <path id="Path_50" data-name="Path 50" d="M973.9,2313.223l1.8,5.476a1.084,1.084,0,0,0,1.031.746h5.593a1.086,1.086,0,0,1,.6,1.989l-4.387,2.925a1.086,1.086,0,0,0-.427,1.249l1.726,5.129a1.086,1.086,0,0,1-1.669,1.223l-4.672-3.41a1.084,1.084,0,0,0-1.269-.008l-4.673,3.321a1.085,1.085,0,0,1-1.655-1.237l1.712-4.991a1.085,1.085,0,0,0-.423-1.254l-4.4-2.948a1.086,1.086,0,0,1,.605-1.988H969a1.086,1.086,0,0,0,1.032-.746l1.8-5.476A1.085,1.085,0,0,1,973.9,2313.223Z" fill="none" stroke="#81bf3b" stroke-linecap="round" stroke-linejoin="round" stroke-width="1.6"/>
      <path id="Path_51" data-name="Path 51" d="M972.8,2352.139s-23.883-9.77-23.883-28.225v-22.8l23.883-7.6" fill="none" stroke="#81bf3b" stroke-linecap="round" stroke-linejoin="round" stroke-width="1.6"/>
      <path id="Path_52" data-name="Path 52" d="M971.717,2298.946l-18.455,5.346v19.622c0,15.362,19.328,22.71,19.541,22.8" fill="none" stroke="#81bf3b" stroke-linecap="round" stroke-linejoin="round" stroke-width="1.6"/>
      <path id="Path_53" data-name="Path 53" d="M972.8,2352.139s23.882-9.77,23.882-28.225v-22.8l-23.882-7.6" fill="none" stroke="#81bf3b" stroke-linecap="round" stroke-linejoin="round" stroke-width="1.6"/>
    </g>
  </g>
</svg>
