<svg xmlns="http://www.w3.org/2000/svg" width="67.15" height="60.228" viewBox="0 0 67.15 60.228">
  <g id="utp5" transform="translate(-1191.02 -2295.459)">
    <g id="Group_5" data-name="Group 5">
      <g id="Group_4" data-name="Group 4">
        <path id="Path_54" data-name="Path 54" d="M1214.749,2313.682s-2.59-12.494,9.8-12.494,9.8,12.357,9.8,12.357" fill="none" stroke="#81bf3b" stroke-linecap="round" stroke-linejoin="round" stroke-width="1.6"/>
      </g>
      <path id="Path_55" data-name="Path 55" d="M1234.343,2313.545a13.1,13.1,0,0,1-1.836,7.213c-2.314,3.45-6.133,5.773-7.966,5.773-2.126,0-5.877-2.348-8.093-5.829,0,0-1.7-1.824-1.7-7.02" fill="none" stroke="#81bf3b" stroke-linecap="round" stroke-linejoin="round" stroke-width="1.6"/>
      <path id="Path_56" data-name="Path 56" d="M1232.452,2313.72c-3.238,0-4.62-5.13-4.62-5.13s-2.171,6.18-11.412,6.18" fill="none" stroke="#81bf3b" stroke-linecap="round" stroke-linejoin="round" stroke-width="1.6"/>
      <path id="Path_57" data-name="Path 57" d="M1222.931,2301.188c-.42-3.78,1.615-5.6,5.391-4.69,2.416.582,4.447,1.038,4.877,3.617a3.311,3.311,0,0,1-1.627,3.223" fill="none" stroke="#81bf3b" stroke-linecap="round" stroke-linejoin="round" stroke-width="1.6"/>
      <path id="Path_58" data-name="Path 58" d="M1227.693,2325.359c0,2.526.3,5.793,2.869,5.793a12.874,12.874,0,0,1,3.742.465,12.726,12.726,0,0,1,8.469,8.814l2.7,14.456" fill="none" stroke="#81bf3b" stroke-linecap="round" stroke-linejoin="round" stroke-width="1.6"/>
      <line id="Line_12" data-name="Line 12" x1="6.029" y2="4.183" transform="translate(1224.533 2331.152)" fill="none" stroke="#81bf3b" stroke-linecap="round" stroke-linejoin="round" stroke-width="1.6"/>
      <path id="Path_59" data-name="Path 59" d="M1221.179,2325.359c0,2.526-.3,5.793-2.869,5.793a9.618,9.618,0,0,0-1.93.226,13.813,13.813,0,0,0-10.412,10.355l-1.719,13.154" fill="none" stroke="#81bf3b" stroke-linecap="round" stroke-linejoin="round" stroke-width="1.6"/>
      <line id="Line_13" data-name="Line 13" x2="6.029" y2="4.183" transform="translate(1218.31 2331.152)" fill="none" stroke="#81bf3b" stroke-linecap="round" stroke-linejoin="round" stroke-width="1.6"/>
      <rect id="Rectangle_8" data-name="Rectangle 8" width="26.866" height="15.939" transform="translate(1210.906 2338.948)" stroke-width="1.6" stroke="#81bf3b" stroke-linecap="round" stroke-linejoin="round" fill="none"/>
      <line id="Line_14" data-name="Line 14" x2="65.55" transform="translate(1191.82 2354.887)" fill="none" stroke="#81bf3b" stroke-linecap="round" stroke-linejoin="round" stroke-width="1.6"/>
      <circle id="Ellipse_9" data-name="Ellipse 9" cx="2.181" cy="2.181" r="2.181" transform="translate(1222.159 2344.737)" stroke-width="1.6" stroke="#81bf3b" stroke-linecap="round" stroke-linejoin="round" fill="none"/>
      <circle id="Ellipse_10" data-name="Ellipse 10" cx="0.772" cy="0.772" r="0.772" transform="translate(1223.567 2320.938)" stroke-width="1.6" stroke="#81bf3b" stroke-linecap="round" stroke-linejoin="round" fill="none"/>
      <path id="Path_60" data-name="Path 60" d="M1237.013,2313.69c0,4.69-2.345,8.207-11.725,8.207" fill="none" stroke="#81bf3b" stroke-linecap="round" stroke-linejoin="round" stroke-width="1.6"/>
      <rect id="Rectangle_9" data-name="Rectangle 9" width="2.345" height="4.69" rx="1" transform="translate(1236.426 2308.414)" stroke-width="1.6" stroke="#81bf3b" stroke-linecap="round" stroke-linejoin="round" fill="none"/>
      <rect id="Rectangle_10" data-name="Rectangle 10" width="2.345" height="4.69" rx="1" transform="translate(1210.047 2309)" stroke-width="1.6" stroke="#81bf3b" stroke-linecap="round" stroke-linejoin="round" fill="none"/>
      <path id="Path_61" data-name="Path 61" d="M1233.736,2301.7c.932.265,3.85,3.209,3.863,6.127" fill="none" stroke="#81bf3b" stroke-linecap="round" stroke-linejoin="round" stroke-width="1.6"/>
      <path id="Path_62" data-name="Path 62" d="M1211.219,2309c.007-5.947,5.989-9.623,11.3-10.217" fill="none" stroke="#81bf3b" stroke-linecap="round" stroke-linejoin="round" stroke-width="1.6"/>
    </g>
  </g>
</svg>
