<svg width="24" height="24" xmlns="http://www.w3.org/2000/svg"><g fill="none"><path d="M20 24H4a4 4 0 01-4-4V4a4 4 0 014-4h16a4 4 0 014 4v16a4 4 0 01-4 4z" fill="#635DAA"/><path d="M18.71 5.5c-.45-.41-2.25-1.72-6.26-1.74 0 0-4.73-.29-7 1.83-1.32 1.29-1.77 3.16-1.82 5.5-.05 2.34-.11 6.69 4.1 7.91v1.81s0 .73.45.88c.45.15.92-.37 1.48-1 .3-.33.73-.81 1-1.18a16.25 16.25 0 005.34-.39 5.26 5.26 0 004.4-5c.6-4.49-.21-7.34-1.69-8.62zm.49 8.31c-.45 3.64-3.12 3.88-3.61 4a14.93 14.93 0 01-4.6.39S9.17 20.42 8.6 21a.3.3 0 01-.26.11c-.1 0-.12-.14-.12-.31v-3c-3.56-1-3.35-4.7-3.31-6.65.04-1.95.42-3.55 1.5-4.62 2-1.77 6-1.5 6-1.5 3.39 0 5 1 5.4 1.38C19 7.48 19.66 10 19.2 13.8v.01z" fill="#FFF"/><path d="M12.76 9.36a.23.23 0 000 .45A1.08 1.08 0 0113.88 11a.23.23 0 00.23.22.23.23 0 00.22-.24 1.52 1.52 0 00-1.57-1.62z" fill="#FFF"/><path d="M15.26 11.6a.23.23 0 00.23-.22 3.09 3.09 0 00-.8-2.24 3.29 3.29 0 00-2.28-1 .23.23 0 100 .45 2.81 2.81 0 012 .86 2.61 2.61 0 01.59 1.92.23.23 0 00.26.23z" fill="#FFF"/><path d="M12 7a.23.23 0 000 .45 4.2 4.2 0 013 1.15 4.39 4.39 0 011.22 3.24.23.23 0 00.46 0 4.82 4.82 0 00-1.36-3.56A4.64 4.64 0 0012 7zm4.15 7.44s-.52-.43-.77-.62-.62-.41-.83-.53a.74.74 0 00-.93.13l-.33.42a.62.62 0 01-.49.19 4.39 4.39 0 01-3-3 .62.62 0 01.19-.49l.42-.33a.74.74 0 00.13-.93 9.76 9.76 0 00-.54-.8c-.19-.25-.62-.77-.62-.77a.64.64 0 00-.84-.14 3.43 3.43 0 00-.86.7 1.38 1.38 0 00-.31.73.4.4 0 000 .1.89.89 0 000 .3c.23.68.532 1.333.9 1.95A11.61 11.61 0 009.4 13c.203.255.42.5.65.73.23.23.475.447.73.65a11.46 11.46 0 001.63 1.08c.617.368 1.27.67 1.95.9a1 1 0 00.3 0h.1a1.38 1.38 0 00.71-.34 3.48 3.48 0 00.7-.86.64.64 0 00-.02-.72z" fill="#FFF"/></g></svg>