<svg xmlns="http://www.w3.org/2000/svg" xmlns:xlink="http://www.w3.org/1999/xlink" width="24" height="24" viewBox="0 0 24 24"><defs><path id="zdvna" d="M1633 177c0-.5.5-1 1-1h9c.5 0 1 .5 1 1v9c0 .5-.5 1-1 1h-9c-.5 0-1-.5-1-1z"/><path id="zdvnb" d="M1633 190c0-.5.5-1 1-1h9c.5 0 1 .5 1 1v9c0 .5-.5 1-1 1h-9c-.5 0-1-.5-1-1z"/><path id="zdvnc" d="M1646 177c0-.5.5-1 1-1h9c.5 0 1 .5 1 1v9c0 .5-.5 1-1 1h-9c-.5 0-1-.5-1-1z"/><path id="zdvnd" d="M1646 190c0-.5.5-1 1-1h9c.5 0 1 .5 1 1v9c0 .5-.5 1-1 1h-9c-.5 0-1-.5-1-1z"/></defs><g><g transform="translate(-1633 -176)"><g><use fill="#212529" xlink:href="#zdvna"/></g><g><use fill="#212529" xlink:href="#zdvnb"/></g><g><use fill="#212529" xlink:href="#zdvnc"/></g><g><use fill="#212529" xlink:href="#zdvnd"/></g></g></g></svg>