<svg width="51" height="16" viewBox="0 0 51 16" version="1.1" xmlns="http://www.w3.org/2000/svg" xmlns:xlink="http://www.w3.org/1999/xlink">
<g id="Canvas" fill="none">
<g id="Visa">
<g id="Vector">
<path d="M 17.7823 15.7691L 13.6509 15.7691L 16.235 0.280708L 20.3661 0.280708L 17.7823 15.7691Z" transform="translate(4.31787 0)" fill="#00579F"/>
<path d="M 32.7586 0.659404C 31.9437 0.346017 30.6513 0 29.0531 0C 24.9733 0 22.1003 2.10895 22.0826 5.12412C 22.0488 7.3487 24.1396 8.58429 25.7034 9.32603C 27.3018 10.084 27.8451 10.5787 27.8451 11.2543C 27.8289 12.2919 26.5536 12.7702 25.3641 12.7702C 23.7147 12.7702 22.8309 12.5236 21.4878 11.9463L 20.9438 11.6989L 20.3657 15.1757C 21.3346 15.6036 23.1198 15.9834 24.9733 16C 29.3082 16 32.1303 13.9237 32.1638 10.7105C 32.1803 8.94739 31.0762 7.59639 28.6959 6.49242C 27.251 5.78374 26.366 5.30589 26.366 4.58078C 26.383 3.9216 27.1145 3.24643 28.7456 3.24643C 30.0887 3.21336 31.0755 3.52631 31.8231 3.83947L 32.1968 4.00394L 32.7586 0.659404Z" transform="translate(4.31787 0)" fill="#00579F"/>
<path d="M 38.2495 10.2821C 38.5898 9.39234 39.899 5.9486 39.899 5.9486C 39.8818 5.98166 40.2385 5.04238 40.4425 4.46576L 40.7313 5.80033C 40.7313 5.80033 41.5136 9.50775 41.6835 10.2821C 41.0378 10.2821 39.0656 10.2821 38.2495 10.2821ZM 43.3492 0.280708L 40.1536 0.280708C 39.1681 0.280708 38.4194 0.560587 37.9943 1.56579L 31.8577 15.7689L 36.1926 15.7689C 36.1926 15.7689 36.9062 13.8573 37.0596 13.4456C 37.5352 13.4456 41.7522 13.4456 42.364 13.4456C 42.4826 13.9893 42.8569 15.7689 42.8569 15.7689L 46.6822 15.7689L 43.3492 0.280708Z" transform="translate(4.31787 0)" fill="#00579F"/>
<path d="M 10.2 0.280708L 6.154 10.8423L 5.71188 8.70031C 4.96386 6.22869 2.61793 3.54334 0 2.20811L 3.70595 15.7527L 8.07475 15.7527L 14.5685 0.280708L 10.2 0.280708Z" transform="translate(4.31787 0)" fill="#00579F"/>
</g>
<g id="path17">
<path d="M 1.5158 4.1488e-08L 0.0153502 4.1488e-08L 2.56794e-08 0.0706435C 1.17045 0.360781 1.94561 1.06015 2.26409 1.90075L 1.93791 0.293895C 1.88421 0.0705941 1.71918 0.00736595 1.5158 4.1488e-08Z" transform="translate(0 0.280762) scale(4.42996)" fill="#FAA61A"/>
</g>
</g>
</g>
</svg>

