<svg width="24" height="24" xmlns="http://www.w3.org/2000/svg"><g fill="none" fill-rule="evenodd"><path d="M20 24H4a4 4 0 01-4-4V4a4 4 0 014-4h16a4 4 0 014 4v16a4 4 0 01-4 4z" fill="#26D366" fill-rule="nonzero"/><path d="M20.49 11.277a8.58 8.58 0 01-12.75 7.45L3 20.227l1.55-4.56a8.41 8.41 0 01-1.23-4.39 8.57 8.57 0 0117.13 0h.04zm-8.61-7.14a7.18 7.18 0 00-7.2 7.15 7.07 7.07 0 001.37 4.2l-.9 2.65 2.77-.88a7.17 7.17 0 104-13.11l-.04-.01zm4.33 9.11c-.05-.09-.19-.14-.4-.24-.21-.1-1.24-.61-1.44-.68-.2-.07-.33-.1-.47.1-.14.2-.54.68-.67.82-.13.14-.24.16-.45.05a5.74 5.74 0 01-1.69-1 6.34 6.34 0 01-1.17-1.44c-.12-.21 0-.32.09-.42.09-.1.21-.24.32-.36a1.43 1.43 0 00.21-.35.38.38 0 000-.36c-.05-.1-.47-1.13-.65-1.55-.18-.42-.35-.35-.47-.35h-.4a.77.77 0 00-.56.26 2.33 2.33 0 00-.73 1.74 4 4 0 00.86 2.15 8.58 8.58 0 003.59 3.15c2.14.83 2.14.56 2.52.52a2.12 2.12 0 001.42-1 1.73 1.73 0 00.12-1l-.03-.04z" fill="#FFF"/></g></svg>