<?xml version="1.0" ?><!DOCTYPE svg  PUBLIC '-//W3C//DTD SVG 1.1//EN'  'http://www.w3.org/Graphics/SVG/1.1/DTD/svg11.dtd'><svg enable-background="new 0 0 32 32" height="32px" version="1.1" viewBox="0 0 32 32" width="32px" xml:space="preserve" xmlns="http://www.w3.org/2000/svg" xmlns:xlink="http://www.w3.org/1999/xlink"><g id="Facebook_x2C__messenger"><path d="M16,1.5c-8.156,0-14.5,6.094-14.5,14c0,3.995,1.675,7.534,4.367,10.057   c0.068,0.067,0.146,0.142,0.244,0.229c0.238,0.212,0.384,0.507,0.394,0.825l0.097,3.165c0.016,0.528,0.562,0.873,1.046,0.659   l3.411-1.504c0.173-0.077,0.359-0.091,0.545-0.078C12.991,29.272,14.467,29.5,16,29.5c8.008,0,14.5-6.156,14.5-14   C30.5,7.594,24.219,1.5,16,1.5z" fill="#FFFFFF"/><path d="M7.648,30.436l3.411-1.504c0.173-0.077,0.359-0.091,0.545-0.078C12.991,29.272,14.467,29.5,16,29.5   c8.008,0,14.5-6.156,14.5-14c0-1.314-0.188-2.571-0.516-3.766C27.896,6.547,22.766,3,16.5,3C8.344,3,2,9.094,2,17   c0,0.43-0.086,0.855-0.216,1.278c0.581,2.849,2.035,5.359,4.083,7.279c0.068,0.067,0.146,0.142,0.244,0.229   c0.238,0.212,0.384,0.507,0.394,0.825l0.097,3.165C6.618,30.305,7.164,30.649,7.648,30.436z" fill="#73C2E6"/><path d="M7.347,31c-0.231,0-0.461-0.064-0.664-0.192c-0.351-0.221-0.568-0.601-0.581-1.016l-0.097-3.165   C6,26.452,5.919,26.286,5.778,26.16c-0.105-0.095-0.19-0.175-0.263-0.248C2.607,23.187,1,19.485,1,15.5   c0-3.875,1.487-7.488,4.188-10.172C5.384,5.132,5.701,5.134,5.896,5.33s0.194,0.513-0.002,0.707C3.383,8.532,2,11.893,2,15.5   c0,3.706,1.495,7.148,4.208,9.692c0.073,0.072,0.146,0.141,0.236,0.222c0.347,0.31,0.546,0.73,0.561,1.183l0.097,3.165   c0.003,0.113,0.073,0.174,0.114,0.2c0.042,0.026,0.126,0.064,0.23,0.017l3.411-1.504c0.228-0.101,0.483-0.14,0.781-0.12   c0.037,0.003,0.074,0.009,0.11,0.021C13.124,28.79,14.554,29,16,29c7.851,0,14-5.93,14-13.5C30,7.804,23.981,2,16,2   c-2.281,0-4.437,0.481-6.407,1.43C9.346,3.55,9.046,3.445,8.925,3.196C8.806,2.947,8.91,2.648,9.159,2.528   C11.266,1.514,13.568,1,16,1c8.411,0,15,6.369,15,14.5S24.411,30,16,30c-1.523,0-3.031-0.219-4.481-0.65   c-0.115,0-0.19,0.009-0.257,0.04L7.85,30.894C7.688,30.964,7.518,31,7.347,31z" fill="#455A64"/><g><path d="M7.348,19.548l4.234-6.708c0.672-1.065,2.116-1.333,3.124-0.576l3.366,2.523    c0.31,0.23,0.733,0.229,1.042-0.003l4.546-3.447c0.605-0.46,1.4,0.266,0.992,0.91l-4.23,6.704    c-0.673,1.066-2.116,1.333-3.125,0.577l-3.365-2.523c-0.309-0.23-0.734-0.23-1.042,0.003L8.34,20.457    C7.734,20.918,6.939,20.19,7.348,19.548L7.348,19.548z" fill="#FFFFFF"/><path d="M7.928,21.102c-0.426,0-0.837-0.247-1.048-0.629c-0.207-0.377-0.189-0.823,0.046-1.193l4.233-6.707    c0.49-0.776,1.333-1.24,2.254-1.24c0.579,0,1.129,0.184,1.592,0.531l3.366,2.523c0.126,0.094,0.313,0.095,0.441-0.002l4.544-3.446    c0.566-0.43,1.425-0.229,1.762,0.382c0.207,0.376,0.19,0.823-0.045,1.194l-4.23,6.703c-0.49,0.777-1.333,1.241-2.255,1.241    c-0.579,0-1.129-0.184-1.593-0.531l-3.365-2.523c-0.127-0.094-0.313-0.094-0.441,0.002l-4.548,3.449    C8.43,21.016,8.183,21.102,7.928,21.102z M13.414,12.332c-0.576,0-1.103,0.289-1.409,0.774l-4.234,6.709    c-0.042,0.065-0.046,0.119-0.014,0.176c0.055,0.099,0.173,0.149,0.28,0.068l4.55-3.45c0.478-0.36,1.165-0.362,1.643-0.005    l3.366,2.524c0.753,0.562,1.906,0.346,2.403-0.443l4.23-6.704c0.042-0.066,0.046-0.12,0.014-0.178    c-0.055-0.101-0.174-0.148-0.28-0.068l-4.546,3.447c-0.479,0.36-1.165,0.362-1.642,0.005l-3.368-2.524    C14.118,12.446,13.774,12.332,13.414,12.332z" fill="#455A64"/></g><circle cx="7.5" cy="4" fill="#455A64" r="0.5"/></g></svg>