<?xml version="1.0" ?><!DOCTYPE svg  PUBLIC '-//W3C//DTD SVG 1.1//EN'  'http://www.w3.org/Graphics/SVG/1.1/DTD/svg11.dtd'><svg enable-background="new 0 0 32 32" height="32px" version="1.1" viewBox="0 0 32 32" width="32px" xml:space="preserve" xmlns="http://www.w3.org/2000/svg" xmlns:xlink="http://www.w3.org/1999/xlink"><g id="skype"><circle cx="9.91" cy="9.91" fill="#80D8FF" r="8.41"/><circle cx="22.09" cy="22.09" fill="#80D8FF" r="8.41"/><circle cx="9.91" cy="9.91" fill="#73C2E6" r="8.41"/><circle cx="22.09" cy="22.09" fill="#73C2E6" r="8.41"/><circle cx="16" cy="16" fill="#FFFFFF" r="13.5"/><path d="M16,3.5c-7.287,0-13.21,5.778-13.475,13c0.265,7.222,6.188,13,13.475,13s13.21-5.778,13.475-13   C29.21,9.278,23.287,3.5,16,3.5z" fill="#80D8FF"/><g><path d="M12.39,15.736c-0.544-0.359-0.998-0.838-1.326-1.401c-0.317-0.594-0.474-1.261-0.454-1.935    c-0.024-0.854,0.268-1.688,0.818-2.341c0.573-0.656,1.311-1.149,2.136-1.427c0.897-0.317,1.844-0.477,2.796-0.471    c0.623-0.006,1.245,0.042,1.86,0.143c0.439,0.068,0.872,0.179,1.29,0.333c0.384,0.13,0.729,0.351,1.009,0.645    c0.206,0.242,0.317,0.55,0.313,0.867c0.015,0.333-0.104,0.658-0.328,0.904c-0.213,0.227-0.513,0.352-0.824,0.343    c-0.212-0.001-0.421-0.048-0.613-0.137c-0.474-0.212-0.961-0.39-1.459-0.534c-0.458-0.121-0.932-0.18-1.405-0.175    c-0.618-0.023-1.229,0.133-1.761,0.449c-0.457,0.278-0.727,0.782-0.702,1.316c-0.004,0.344,0.127,0.676,0.364,0.925    c0.282,0.292,0.615,0.531,0.983,0.703c0.412,0.205,1.026,0.476,1.844,0.814c0.091,0.029,0.18,0.064,0.265,0.106    c0.798,0.315,1.563,0.708,2.283,1.173c0.569,0.371,1.05,0.864,1.406,1.443c0.351,0.608,0.526,1.302,0.507,2.003    c0.03,0.859-0.217,1.706-0.702,2.416c-0.495,0.671-1.181,1.18-1.967,1.459c-0.947,0.338-1.948,0.501-2.954,0.481    c-1.383,0.048-2.758-0.211-4.027-0.761c-0.325-0.145-0.609-0.366-0.83-0.645c-0.183-0.255-0.277-0.563-0.27-0.877    c-0.019-0.335,0.111-0.662,0.354-0.893c0.252-0.221,0.579-0.336,0.914-0.322c0.373,0.005,0.738,0.099,1.067,0.274    c0.409,0.205,0.731,0.358,0.968,0.46c0.27,0.113,0.549,0.202,0.835,0.264c0.352,0.078,0.712,0.115,1.072,0.111    c0.638,0.045,1.272-0.124,1.803-0.481c0.402-0.315,0.629-0.805,0.607-1.316c0.001-0.357-0.135-0.702-0.38-0.962    c-0.324-0.333-0.703-0.609-1.121-0.814c-0.493-0.261-1.188-0.578-2.082-0.952C13.878,16.606,13.111,16.208,12.39,15.736    L12.39,15.736z" fill="#FFFFFF"/><path d="M15.441,24.345c-1.35,0-2.662-0.272-3.899-0.808c-0.401-0.178-0.754-0.452-1.024-0.794    c-0.259-0.361-0.388-0.78-0.377-1.2c-0.026-0.441,0.159-0.909,0.51-1.243c0.345-0.302,0.767-0.461,1.204-0.461    c0.511,0.007,0.959,0.122,1.357,0.334c0.387,0.193,0.7,0.343,0.931,0.442c0.236,0.099,0.488,0.179,0.743,0.235    c0.301,0.066,0.61,0.1,0.92,0.1c0.138,0.005,0.193,0.007,0.249,0.007c0.473,0,0.929-0.14,1.32-0.403    c0.246-0.195,0.401-0.532,0.387-0.881c0.001-0.253-0.086-0.473-0.244-0.64c-0.279-0.288-0.61-0.528-0.978-0.708    c-0.486-0.257-1.173-0.571-2.055-0.939c-0.82-0.327-1.62-0.742-2.369-1.232c-0.607-0.401-1.12-0.942-1.484-1.567    c-0.367-0.686-0.544-1.441-0.522-2.201c-0.027-0.949,0.305-1.9,0.937-2.649c0.636-0.729,1.449-1.272,2.357-1.579    c0.931-0.329,1.91-0.497,2.905-0.497l0.152,0c0.614,0,1.233,0.05,1.84,0.15c0.469,0.072,0.935,0.192,1.382,0.357    c0.445,0.15,0.864,0.418,1.198,0.769c0.304,0.355,0.457,0.781,0.45,1.22c0.021,0.438-0.143,0.887-0.459,1.233    c-0.304,0.324-0.727,0.507-1.164,0.507c-0.317-0.002-0.593-0.064-0.853-0.184c-0.444-0.199-0.913-0.371-1.388-0.507    c-0.387-0.102-0.798-0.156-1.212-0.156l-0.174-0.002c-0.487,0-0.967,0.132-1.386,0.381c-0.298,0.181-0.475,0.513-0.459,0.864    c-0.002,0.243,0.079,0.447,0.228,0.603c0.238,0.247,0.52,0.448,0.833,0.595c0.414,0.205,1.023,0.474,1.823,0.805    c0.075,0.022,0.188,0.066,0.295,0.12c0.788,0.31,1.586,0.72,2.333,1.201c0.629,0.411,1.168,0.964,1.561,1.601    c0.404,0.701,0.603,1.485,0.581,2.279c0.033,0.927-0.247,1.891-0.789,2.684c-0.567,0.769-1.328,1.334-2.213,1.648    c-0.949,0.339-1.944,0.511-2.956,0.511l-0.175-0.001C15.671,24.343,15.556,24.345,15.441,24.345z M11.896,20.84    c-0.24,0-0.426,0.071-0.572,0.198c-0.122,0.117-0.194,0.301-0.185,0.489c-0.004,0.244,0.059,0.448,0.177,0.614    c0.156,0.196,0.378,0.368,0.627,0.479c1.201,0.521,2.486,0.757,3.807,0.719l0.183,0.001c0.896,0,1.778-0.152,2.621-0.453    c0.696-0.248,1.295-0.692,1.732-1.285c0.413-0.604,0.631-1.355,0.604-2.101c0.018-0.641-0.135-1.243-0.44-1.771    c-0.308-0.5-0.741-0.945-1.246-1.274c-0.689-0.445-1.429-0.825-2.193-1.127c-0.101-0.047-0.166-0.073-0.232-0.094    c-0.859-0.354-1.49-0.632-1.915-0.843c-0.414-0.194-0.795-0.466-1.12-0.804c-0.332-0.348-0.511-0.801-0.505-1.278    c-0.032-0.688,0.329-1.365,0.942-1.738c0.578-0.344,1.234-0.524,1.901-0.524l0.138,0.003c0.003,0,0.005,0,0.008,0    c0.533,0,1.028,0.064,1.507,0.191c0.529,0.152,1.042,0.34,1.535,0.561c0.135,0.062,0.271,0.093,0.413,0.094h0.001    c0.188,0,0.344-0.068,0.455-0.186c0.13-0.142,0.201-0.341,0.192-0.54c0.003-0.225-0.065-0.415-0.193-0.565    c-0.204-0.213-0.483-0.392-0.788-0.495c-0.397-0.146-0.799-0.25-1.206-0.313c-0.558-0.092-1.122-0.138-1.683-0.138l-0.104,0    c-0.001,0-0.001,0-0.002,0c-0.928,0-1.795,0.149-2.624,0.442c-0.748,0.252-1.411,0.696-1.926,1.285    c-0.468,0.554-0.717,1.266-0.695,1.998c-0.018,0.615,0.119,1.197,0.396,1.713c0.277,0.477,0.683,0.904,1.16,1.219    c0.691,0.452,1.432,0.836,2.198,1.142c0.93,0.388,1.624,0.706,2.131,0.974c0.457,0.224,0.881,0.531,1.246,0.907    c0.34,0.36,0.522,0.824,0.521,1.312c0.027,0.647-0.271,1.294-0.799,1.708c-0.587,0.396-1.236,0.595-1.908,0.595l0,0    c-0.079,0-0.159-0.003-0.238-0.009c-0.375,0.023-0.774-0.04-1.145-0.122c-0.314-0.068-0.624-0.167-0.921-0.292    c-0.247-0.106-0.578-0.264-0.998-0.474c-0.27-0.143-0.56-0.218-0.851-0.222C11.9,20.84,11.898,20.84,11.896,20.84z" fill="#455A64"/></g><path d="M22.09,31c-1.266,0-2.497-0.268-3.662-0.796C17.583,30.349,16.787,30.42,16,30.42   C8.049,30.42,1.58,23.951,1.58,16c0-0.785,0.07-1.58,0.216-2.428C1.268,12.407,1,11.176,1,9.91C1,4.997,4.997,1,9.91,1   c1.266,0,2.497,0.268,3.663,0.796l0.025-0.004c0.265-0.05,0.529,0.139,0.575,0.411c0.046,0.272-0.139,0.53-0.411,0.575   l-0.168,0.029c-0.102,0.019-0.209,0.005-0.304-0.04C12.217,2.258,11.079,2,9.91,2C5.549,2,2,5.548,2,9.91   c0,1.169,0.258,2.307,0.768,3.38c0.044,0.094,0.059,0.201,0.04,0.303C2.654,14.44,2.58,15.228,2.58,16   c0,7.4,6.021,13.42,13.42,13.42c0.775,0,1.563-0.074,2.406-0.228c0.102-0.019,0.209-0.005,0.303,0.041   C19.783,29.742,20.921,30,22.09,30c4.361,0,7.91-3.548,7.91-7.91c0-1.17-0.258-2.307-0.768-3.38c-0.044-0.094-0.059-0.2-0.04-0.303   C29.346,17.56,29.42,16.772,29.42,16c0-6.851-5.127-12.584-11.925-13.337c-0.274-0.03-0.473-0.278-0.442-0.552   c0.03-0.274,0.277-0.472,0.552-0.442C24.91,2.478,30.42,8.639,30.42,16c0,0.784-0.07,1.58-0.216,2.428   C30.732,19.592,31,20.824,31,22.09C31,27.003,27.003,31,22.09,31z" fill="#455A64"/><g><circle cx="15.499" cy="2" fill="#455A64" r="0.5"/></g></g></svg>