<svg width="480" height="378" viewBox="0 0 480 378" fill="none" xmlns="http://www.w3.org/2000/svg">
<path d="M311.294 323.709C295.492 323.709 282.419 318.588 272.076 308.346C261.876 297.958 256.776 284.498 256.776 267.964C256.776 252.455 261.732 239.361 271.645 228.68C281.701 217.853 294.342 212.439 309.57 212.439C324.942 212.439 337.296 217.853 346.634 228.68C356.115 239.507 360.856 253.333 360.856 270.159V275.646H280.48C281.341 283.986 284.717 290.935 290.607 296.495C296.497 302.055 304.183 304.835 313.664 304.835C318.98 304.835 324.295 303.811 329.61 301.762C335.069 299.714 339.595 296.861 343.186 293.203L353.529 308.346C343.042 318.588 328.964 323.709 311.294 323.709ZM338.876 259.405C338.589 252.09 335.931 245.579 330.903 239.873C326.019 234.167 318.908 231.314 309.57 231.314C300.663 231.314 293.696 234.167 288.668 239.873C283.64 245.433 280.839 251.943 280.264 259.405H338.876Z" fill="url(#paint0_linear_27_59)"/>
<path d="M244.793 319.601H222.151V251.407C222.151 238.851 216.473 232.573 205.116 232.573C200.372 232.573 195.771 233.944 191.315 236.686C186.858 239.428 183.408 242.675 180.964 246.428V319.601H158.322V251.407C158.322 238.851 152.572 232.573 141.071 232.573C136.471 232.573 131.943 233.944 127.486 236.686C123.173 239.428 119.723 242.748 117.136 246.644V319.601H94.4936V215.037H117.136V229.325C119.723 225.429 124.18 221.676 130.505 218.068C136.974 214.316 143.803 212.439 150.991 212.439C166.085 212.439 175.573 218.862 179.455 231.707C182.761 226.511 187.649 222.037 194.118 218.285C200.587 214.388 207.488 212.439 214.82 212.439C234.802 212.439 244.793 222.975 244.793 244.047V319.601Z" fill="url(#paint1_linear_27_59)"/>
<path d="M72.2397 279.201H0V254.893H72.2397V279.201Z" fill="url(#paint2_linear_27_59)"/>
<path d="M407.76 185.392H378.465L345.619 140.448L330.749 156.032V185.392H307.447V0H330.749V128.93L378.021 76.3068H406.873L362.264 125.768L407.76 185.392Z" fill="url(#paint3_linear_27_59)"/>
<path d="M288.616 185.392H264.993V0.171184H288.616V185.392Z" fill="url(#paint4_linear_27_59)"/>
<path d="M246.847 185.171H223.803V173.829C215.61 183.136 204.198 187.789 189.567 187.789C179.91 187.789 171.351 184.735 163.889 178.628C156.427 172.375 152.696 163.796 152.696 152.89C152.696 141.694 156.354 133.187 163.669 127.371C171.131 121.554 179.764 118.646 189.567 118.646C204.637 118.646 216.049 123.154 223.803 132.169V116.465C223.803 110.358 221.536 105.559 217 102.069C212.464 98.5794 206.465 96.8344 199.004 96.8344C187.152 96.8344 176.691 101.269 167.62 110.14L158.183 94.2171C170.18 82.875 185.031 77.204 202.735 77.204C215.756 77.204 226.364 80.2576 234.557 86.3649C242.751 92.4721 246.847 102.142 246.847 115.374V185.171ZM198.565 172.085C210.123 172.085 218.536 168.449 223.803 161.179V145.256C218.536 137.986 210.123 134.35 198.565 134.35C191.981 134.35 186.567 136.095 182.324 139.585C178.081 143.075 175.96 147.656 175.96 153.327C175.96 158.998 178.081 163.578 182.324 167.068C186.567 170.412 191.981 172.085 198.565 172.085Z" fill="url(#paint5_linear_27_59)"/>
<path d="M122.107 187.447C112.917 187.447 105.911 185.117 101.09 180.457C96.4197 175.798 94.0845 169.1 94.0845 160.363V99.4246H76.0057V79.3303H94.0845V50.4993H117.813V79.3303H139.96V99.4246H117.813V154.684C117.813 158.47 118.717 161.528 120.525 163.858C122.333 166.042 124.894 167.134 128.208 167.134C133.029 167.134 136.57 165.896 138.83 163.421L144.479 180.676C139.508 185.19 132.05 187.447 122.107 187.447Z" fill="url(#paint6_linear_27_59)"/>
<path fill-rule="evenodd" clip-rule="evenodd" d="M82.3398 23.7944C50.1954 23.7944 24.1372 49.8526 24.1372 81.997V232.81H0V71.8972C0 32.1894 32.1895 0 71.8973 0H242.568V23.7944H82.3398ZM352.468 0V23.7944H398.003C430.148 23.7944 456.206 49.8526 456.206 81.997V353.837H77.7178C48.1261 353.837 24.1372 329.848 24.1372 300.257H0V305.392C0 345.1 32.1895 377.29 71.8973 377.29H480V71.8973C480 32.1895 447.81 0 408.103 0H352.468Z" fill="url(#paint7_linear_27_59)"/>
<defs>
<linearGradient id="paint0_linear_27_59" x1="1.54835e-05" y1="-0.1712" x2="474.522" y2="373.866" gradientUnits="userSpaceOnUse">
<stop stop-color="#FF6400"/>
<stop offset="1" stop-color="#FF0100"/>
</linearGradient>
<linearGradient id="paint1_linear_27_59" x1="1.54835e-05" y1="-0.1712" x2="474.522" y2="373.866" gradientUnits="userSpaceOnUse">
<stop stop-color="#FF6400"/>
<stop offset="1" stop-color="#FF0100"/>
</linearGradient>
<linearGradient id="paint2_linear_27_59" x1="1.54835e-05" y1="-0.1712" x2="474.522" y2="373.866" gradientUnits="userSpaceOnUse">
<stop stop-color="#FF6400"/>
<stop offset="1" stop-color="#FF0100"/>
</linearGradient>
<linearGradient id="paint3_linear_27_59" x1="1.54835e-05" y1="-0.1712" x2="474.522" y2="373.866" gradientUnits="userSpaceOnUse">
<stop stop-color="#FF6400"/>
<stop offset="1" stop-color="#FF0100"/>
</linearGradient>
<linearGradient id="paint4_linear_27_59" x1="1.54835e-05" y1="-0.1712" x2="474.522" y2="373.866" gradientUnits="userSpaceOnUse">
<stop stop-color="#FF6400"/>
<stop offset="1" stop-color="#FF0100"/>
</linearGradient>
<linearGradient id="paint5_linear_27_59" x1="1.54835e-05" y1="-0.1712" x2="474.522" y2="373.866" gradientUnits="userSpaceOnUse">
<stop stop-color="#FF6400"/>
<stop offset="1" stop-color="#FF0100"/>
</linearGradient>
<linearGradient id="paint6_linear_27_59" x1="1.54835e-05" y1="-0.1712" x2="474.522" y2="373.866" gradientUnits="userSpaceOnUse">
<stop stop-color="#FF6400"/>
<stop offset="1" stop-color="#FF0100"/>
</linearGradient>
<linearGradient id="paint7_linear_27_59" x1="6.10253e-06" y1="-6.33382" x2="495.92" y2="389.786" gradientUnits="userSpaceOnUse">
<stop stop-color="#FF6400"/>
<stop offset="1" stop-color="#FF0100"/>
</linearGradient>
</defs>
</svg>
