<?xml version="1.0" ?><svg viewBox="0 0 69.45 69.45" xmlns="http://www.w3.org/2000/svg"><defs><style>.cls-1{fill:#7a519b;}.cls-2{fill:#fff;}</style></defs><title/><g data-name="Layer 2" id="Layer_2"><g data-name="Layer 1" id="Layer_1-2"><circle class="cls-1" cx="34.72" cy="34.72" r="34.72"/><path class="cls-2" d="M47.53,55.09c-1.59-.5-2.29-.66-3-.94C30.91,48.44,21,39,15.48,25.14a7.51,7.51,0,0,1,5.6-10.34c.65-.14,1.71-.15,2,.23a104.83,104.83,0,0,1,7.13,9.55c.39.63-.68,2.76-1.63,3.52-2.17,1.73-2.35,3.75-.91,5.61a47.63,47.63,0,0,0,6.81,7.17c2.2,1.87,4.45,2.16,6.74-.63s4.86-1.71,11,3.33c2.54,2.08,3.19,4.25,1,6.65A56.59,56.59,0,0,1,47.53,55.09Z"/><path class="cls-2" d="M54,33.11l-1.18,2.1a9.78,9.78,0,0,1-1.51-2.74C49.56,22.51,46.11,19,36,17c-.77-.16-1.4-.92-2.09-1.4.76-.41,1.5-1.13,2.28-1.19C45,13.76,53.9,22.68,54,33.11Z"/><path class="cls-2" d="M49.39,31.63l-1.48,1.7c-.47-.72-1.27-1.4-1.36-2.16-.57-5.37-3.5-8.36-8.79-9.32-.84-.15-1.54-1.09-2.31-1.66,1-.37,2-1.15,2.91-1A12.61,12.61,0,0,1,49.39,31.63Z"/><path class="cls-2" d="M44.67,30.29l-1,1.47c-.56-.48-1.14-.92-1.65-1.43-1.26-1.25-2.49-2.51-3.71-3.79-.52-.54-1-1.13-1.47-1.7.69-.36,1.37-1,2.06-1C41.69,23.77,44.65,26.87,44.67,30.29Z"/></g></g></svg>