<?xml version="1.0" ?><svg id="Layer_1" style="enable-background:new 0 0 512 512;" version="1.1" viewBox="0 0 512 512" xml:space="preserve" xmlns="http://www.w3.org/2000/svg" xmlns:xlink="http://www.w3.org/1999/xlink"><style type="text/css">
	.st0{fill:#54205E;}
	.st1{fill-rule:evenodd;clip-rule:evenodd;fill:#FFFFFF;}
</style><g><path class="st0" d="M512,397.1c0,63.5-51.5,114.9-114.9,114.9H114.9C51.5,512,0,460.5,0,397.1V114.9C0,51.5,51.5,0,114.9,0h282.2   C460.5,0,512,51.5,512,114.9V397.1z"/><g><path class="st1" d="M326.3,385.5c-9.7,0.3-18.9-1.9-28.2-4.5c-62.3-17.8-108.9-56.6-146.5-108c-14.2-19.3-27.3-39.3-31.7-63.4    c-5.2-28.7,3.1-53.2,24.5-73c6.8-6.4,27.7-9.1,36-5c3.1,1.5,5.1,4.2,6.3,7.2c7.9,18.6,15.6,37.1,23.3,55.8    c1.5,3.5,0.8,7.1-0.8,10.7c-3.9,8.6-10.3,15.5-16.7,22.3c-4.9,5.1-5.1,9.7-1.5,15.6c22,36.5,52.4,63.2,92.1,79.1    c5.9,2.4,10.4,1.6,14.4-3.4c6.6-8.3,13.7-16.3,19.9-24.9c4.3-5.9,9.2-6.8,15.2-4.1c13.2,6.1,26.3,12.3,39.4,18.5    c3,1.4,5.9,2.9,8.8,4.2c13.4,6.6,13.2,6.7,12,21.4c-2.2,28.8-23.8,42.9-49.3,50C338.1,385.6,332.2,385.7,326.3,385.5z"/><path class="st1" d="M351.1,163.6c10.5,9.3,17.9,21,23.9,33.6c4.8,10,7.8,20.6,9.7,31.5c0.4,2.2,1.4,4.7-0.8,6.6    c-6,0.4-11.9,0.6-17.9,1.3c-2.3,0.3-3-0.4-3.3-2.7c-2.7-20.6-11.1-38.6-25.3-53.6c-20.6-21.9-46.1-32.6-76.3-31.7    c-0.8,0-1.5,0-3.9,0.1c-0.2-6.8-0.3-13.5-0.5-20.3c1.3-2.3,3.7-1.9,5.7-1.9c12.4-0.3,24.7,1.4,36.6,5c9.7,2.9,19,6.8,27.7,12.2    c2.6,1.7,5.2,3.5,7.5,5.6c2,1.6,5.9,5,7.9,6.6C344.4,157.8,348.9,161.6,351.1,163.6z"/><path class="st1" d="M322,180.5c16.4,14.2,26.6,32.2,30,54c0.4,2.6-0.2,3.5-2.9,3.6c-5.3,0.2-10.6,0.7-15.9,1.3    c-1.6,0.2-2.2-0.1-2.5-2c-2.8-18.9-12.2-33.9-27.8-44.8c-11.5-8.1-24.5-12.1-38.7-11.6c-2.3,0.1-3-0.4-3.1-2.8    c-0.3-5.4-0.8-10.8-1.4-16.2c-0.2-1.9,0.3-2.4,2.2-2.4C284.5,159,304.4,166,322,180.5z"/><path class="st1" d="M299.7,242.1c-2.4-17.6-15.9-29.8-33.3-30c-1.6,0-2.3-0.2-2.5-2c-0.4-5.4-0.9-10.8-1.4-16.1    c-0.2-1.7,0.1-2.1,1.8-2.2c26.2-1.8,52.9,20.7,55.6,46.9c0.2,1.6-0.4,1.8-1.7,1.9C312.1,241,306,241.5,299.7,242.1z"/></g></g></svg>