<svg xmlns="http://www.w3.org/2000/svg" xmlns:xlink="http://www.w3.org/1999/xlink">
	
	<symbol viewBox="0 0 20 20" id="svg-account"><path d="M10,10.9c2.373,0,4.303-1.932,4.303-4.306c0-2.372-1.93-4.302-4.303-4.302S5.696,4.223,5.696,6.594C5.696,8.969,7.627,10.9,10,10.9z M10,3.331c1.801,0,3.266,1.463,3.266,3.263c0,1.802-1.465,3.267-3.266,3.267c-1.8,0-3.265-1.465-3.265-3.267C6.735,4.794,8.2,3.331,10,3.331z"/>
							<path d="M10,12.503c-4.418,0-7.878,2.058-7.878,4.685c0,0.288,0.231,0.52,0.52,0.52c0.287,0,0.519-0.231,0.519-0.52c0-1.976,3.132-3.646,6.84-3.646c3.707,0,6.838,1.671,6.838,3.646c0,0.288,0.234,0.52,0.521,0.52s0.52-0.231,0.52-0.52C17.879,14.561,14.418,12.503,10,12.503z"/></symbol>
	<symbol id="svg-wishlist" viewBox="0 0 20 20"><path d="M13.22,2.984c-1.125,0-2.504,0.377-3.53,1.182C8.756,3.441,7.502,2.984,6.28,2.984c-2.6,0-4.714,2.116-4.714,4.716c0,0.32,0.032,0.644,0.098,0.96c0.799,4.202,6.781,7.792,7.46,8.188c0.193,0.111,0.41,0.168,0.627,0.168c0.187,0,0.376-0.041,0.55-0.127c0.011-0.006,1.349-0.689,2.91-1.865c0.021-0.016,0.043-0.031,0.061-0.043c0.021-0.016,0.045-0.033,0.064-0.053c3.012-2.309,4.6-4.805,4.6-7.229C17.935,5.1,15.819,2.984,13.22,2.984z M12.544,13.966c-0.004,0.004-0.018,0.014-0.021,0.018s-0.018,0.012-0.023,0.016c-1.423,1.076-2.674,1.734-2.749,1.771c0,0-6.146-3.576-6.866-7.363C2.837,8.178,2.811,7.942,2.811,7.7c0-1.917,1.554-3.47,3.469-3.47c1.302,0,2.836,0.736,3.431,1.794c0.577-1.121,2.161-1.794,3.509-1.794c1.914,0,3.469,1.553,3.469,3.47C16.688,10.249,14.474,12.495,12.544,13.966z"/></symbol>
	<symbol id="svg-cart" viewBox="0 0 20 20"><g id="surface1">
<path d="M 14.476562 13.695312 C 13.398438 13.695312 12.523438 14.574219 12.523438 15.652344 C 12.523438 16.730469 13.398438 17.609375 14.476562 17.609375 C 15.558594 17.609375 16.433594 16.730469 16.433594 15.652344 C 16.433594 14.574219 15.558594 13.695312 14.476562 13.695312 Z M 14.476562 16.824219 C 13.832031 16.824219 13.304688 16.300781 13.304688 15.652344 C 13.304688 15.003906 13.832031 14.476562 14.476562 14.476562 C 15.125 14.476562 15.652344 15.003906 15.652344 15.652344 C 15.652344 16.300781 15.125 16.824219 14.476562 16.824219 Z M 14.476562 16.824219 "/>
<path d="M 6.652344 13.695312 C 5.574219 13.695312 4.695312 14.574219 4.695312 15.652344 C 4.695312 16.730469 5.574219 17.609375 6.652344 17.609375 C 7.730469 17.609375 8.609375 16.730469 8.609375 15.652344 C 8.609375 14.574219 7.730469 13.695312 6.652344 13.695312 Z M 6.652344 16.824219 C 6.003906 16.824219 5.476562 16.300781 5.476562 15.652344 C 5.476562 15.003906 6.003906 14.476562 6.652344 14.476562 C 7.300781 14.476562 7.824219 15.003906 7.824219 15.652344 C 7.824219 16.300781 7.300781 16.824219 6.652344 16.824219 Z M 6.652344 16.824219 "/>
<path d="M 16.042969 12.128906 L 7.011719 12.128906 C 6.082031 12.128906 5.277344 11.46875 5.09375 10.558594 L 3.121094 0.707031 C 3.085938 0.523438 2.925781 0.390625 2.738281 0.390625 L 0.390625 0.390625 C 0.175781 0.390625 0 0.566406 0 0.78125 C 0 1 0.175781 1.175781 0.390625 1.175781 L 2.417969 1.175781 L 4.324219 10.710938 C 4.582031 11.988281 5.710938 12.914062 7.011719 12.914062 L 16.042969 12.914062 C 16.257812 12.914062 16.433594 12.738281 16.433594 12.523438 C 16.433594 12.304688 16.257812 12.128906 16.042969 12.128906 Z M 16.042969 12.128906 "/>
<path d="M 17.902344 2.871094 C 17.828125 2.789062 17.722656 2.738281 17.609375 2.738281 L 3.523438 2.738281 C 3.304688 2.738281 3.128906 2.914062 3.128906 3.128906 C 3.128906 3.347656 3.304688 3.523438 3.523438 3.523438 L 17.164062 3.523438 L 16.609375 7.972656 C 16.535156 8.558594 16.035156 9 15.445312 9 L 4.695312 9 C 4.480469 9 4.304688 9.175781 4.304688 9.390625 C 4.304688 9.605469 4.480469 9.78125 4.695312 9.78125 L 15.445312 9.78125 C 16.429688 9.78125 17.261719 9.046875 17.386719 8.070312 L 17.996094 3.179688 C 18.011719 3.066406 17.976562 2.957031 17.902344 2.871094 Z M 17.902344 2.871094 "/>
</g></symbol>
	<symbol id="svg-maps" viewBox="0 0 20 20"><path d="M17.218,2.268L2.477,8.388C2.13,8.535,2.164,9.05,2.542,9.134L9.33,10.67l1.535,6.787c0.083,0.377,0.602,0.415,0.745,0.065l6.123-14.74C17.866,2.46,17.539,2.134,17.218,2.268 M3.92,8.641l11.772-4.89L9.535,9.909L3.92,8.641zM11.358,16.078l-1.268-5.613l6.157-6.157L11.358,16.078z"/></symbol>
	<symbol id="svg-contact" viewBox="0 0 20 20"><path d="M14.9,6.707c-0.804-2.497-3.649-4.351-7.035-4.351c-4.008,0-7.27,2.594-7.27,5.782c0,2.163,1.516,4.133,3.903,5.122v3.091c0,0.251,0.144,0.478,0.372,0.586c0.087,0.042,0.182,0.062,0.276,0.062 c0.148,0,0.295-0.051,0.412-0.15l3.678-3.038c0.14-0.022,0.275-0.057,0.413-0.084c0.655,0.666,1.544,1.185,2.607,1.46 c0.198,0.051,0.401,0.094,0.608,0.125l2.641,2.182c0.118,0.099,0.264,0.15,0.413,0.15c0.094,0,0.188-0.02,0.276-0.062 c0.228-0.108,0.372-0.335,0.372-0.586v-2.135c1.74-0.761,2.84-2.231,2.84-3.846C19.405,8.862,17.456,7.073,14.9,6.707z M8.885,12.552c-0.019,0.003-0.032,0.018-0.051,0.022c-0.101,0.022-0.2,0.056-0.281,0.123l-2.76,2.28v-2.161 c0-0.275-0.175-0.521-0.434-0.612C3.253,11.467,1.89,9.871,1.89,8.138c0-2.474,2.68-4.487,5.975-4.487 c2.604,0,4.801,1.265,5.617,3.014c0.187,0.401,0.302,0.823,0.33,1.268c0.005,0.069,0.028,0.134,0.028,0.205 c0,1.819-1.481,3.438-3.706,4.129c-0.115,0.037-0.224,0.08-0.343,0.111C9.497,12.455,9.196,12.513,8.885,12.552z M15.703,13.809 c-0.259,0.091-0.434,0.336-0.434,0.612v1.199l-1.723-1.422c-0.095-0.079-0.211-0.129-0.333-0.144 c-0.219-0.028-0.431-0.068-0.636-0.121c-0.545-0.14-1.023-0.364-1.433-0.64c2.423-0.969,3.99-2.942,3.99-5.155 c0-0.024-0.004-0.047-0.005-0.071c1.718,0.385,2.98,1.553,2.98,2.948C18.11,12.202,17.165,13.299,15.703,13.809z"/><path fill="none" d="M4.68,7.591h6.167c0.358,0,0.648-0.29,0.648-0.648s-0.29-0.648-0.648-0.648H4.68 c-0.358,0-0.648,0.29-0.648,0.648S4.323,7.591,4.68,7.591z"/><path fill="none" d="M8.709,8.636H4.68c-0.358,0-0.648,0.29-0.648,0.648c0,0.358,0.29,0.648,0.648,0.648h4.028 c0.358,0,0.648-0.29,0.648-0.648C9.356,8.926,9.067,8.636,8.709,8.636z"/></symbol>
	<symbol id="svg-cart-top" viewBox="0 0 20 20"><path d="M18.037,18.517L16.787,4.646c-0.034-0.38-0.355-0.672-0.735-0.672h-2.1c-0.258-1.968-1.93-3.499-3.967-3.499c-2.039,0-3.71,1.531-3.967,3.499H3.921c-0.381,0-0.7,0.291-0.735,0.672L1.915,18.72c-0.02,0.206,0.049,0.411,0.19,0.564c0.138,0.152,0.338,0.241,0.545,0.241h14.67c0.012-0.002,0.02-0.002,0.03,0c0.408,0,0.738-0.331,0.738-0.738C18.088,18.692,18.07,18.601,18.037,18.517z M9.985,1.951c1.225,0,2.25,0.87,2.49,2.023h-4.98C7.735,2.821,8.76,1.951,9.985,1.951zM3.457,18.049l1.139-12.6h10.782l1.135,12.6H3.457z"/></symbol>
	<symbol id="svg-checkout-top" viewBox="0 0 20 20"><path d="M16.76,7.51l-5.199-5.196c-0.234-0.239-0.633-0.066-0.633,0.261v2.534c-0.267-0.035-0.575-0.063-0.881-0.063c-3.813,0-6.915,3.042-6.915,6.783c0,2.516,1.394,4.729,3.729,5.924c0.367,0.189,0.71-0.266,0.451-0.572c-0.678-0.793-1.008-1.645-1.008-2.602c0-2.348,1.93-4.258,4.303-4.258c0.108,0,0.215,0.003,0.321,0.011v2.634c0,0.326,0.398,0.5,0.633,0.262l5.199-5.193C16.906,7.891,16.906,7.652,16.76,7.51 M11.672,12.068V9.995c0-0.185-0.137-0.341-0.318-0.367c-0.219-0.032-0.49-0.05-0.747-0.05c-2.78,0-5.046,2.241-5.046,5c0,0.557,0.099,1.092,0.292,1.602c-1.261-1.111-1.979-2.656-1.979-4.352c0-3.331,2.77-6.041,6.172-6.041c0.438,0,0.886,0.067,1.184,0.123c0.231,0.043,0.441-0.134,0.441-0.366V3.472l4.301,4.3L11.672,12.068z"/></symbol>
	<symbol id="svg-search" viewBox="0 0 20 20"><path  d="M12.323,2.398c-0.741-0.312-1.523-0.472-2.319-0.472c-2.394,0-4.544,1.423-5.476,3.625C3.907,7.013,3.896,8.629,4.49,10.102c0.528,1.304,1.494,2.333,2.72,2.99L5.467,17.33c-0.113,0.273,0.018,0.59,0.292,0.703c0.068,0.027,0.137,0.041,0.206,0.041c0.211,0,0.412-0.127,0.498-0.334l1.74-4.23c0.583,0.186,1.18,0.309,1.795,0.309c2.394,0,4.544-1.424,5.478-3.629C16.755,7.173,15.342,3.68,12.323,2.398z M14.488,9.77c-0.769,1.807-2.529,2.975-4.49,2.975c-0.651,0-1.291-0.131-1.897-0.387c-0.002-0.004-0.002-0.004-0.002-0.004c-0.003,0-0.003,0-0.003,0s0,0,0,0c-1.195-0.508-2.121-1.452-2.607-2.656c-0.489-1.205-0.477-2.53,0.03-3.727c0.764-1.805,2.525-2.969,4.487-2.969c0.651,0,1.292,0.129,1.898,0.386C14.374,4.438,15.533,7.3,14.488,9.77z"/></symbol>
	<symbol id="svg-select-category" viewBox="0 0 20 20"><path d="M2.25,12.584c-0.713,0-1.292,0.578-1.292,1.291s0.579,1.291,1.292,1.291c0.713,0,1.292-0.578,1.292-1.291S2.963,12.584,2.25,12.584z M2.25,14.307c-0.238,0-0.43-0.193-0.43-0.432s0.192-0.432,0.43-0.432c0.238,0,0.431,0.193,0.431,0.432S2.488,14.307,2.25,14.307z M5.694,6.555H18.61c0.237,0,0.431-0.191,0.431-0.43s-0.193-0.431-0.431-0.431H5.694c-0.238,0-0.43,0.192-0.43,0.431S5.457,6.555,5.694,6.555z M2.25,8.708c-0.713,0-1.292,0.578-1.292,1.291c0,0.715,0.579,1.292,1.292,1.292c0.713,0,1.292-0.577,1.292-1.292C3.542,9.287,2.963,8.708,2.25,8.708z M2.25,10.43c-0.238,0-0.43-0.192-0.43-0.431c0-0.237,0.192-0.43,0.43-0.43c0.238,0,0.431,0.192,0.431,0.43C2.681,10.238,2.488,10.43,2.25,10.43z M18.61,9.57H5.694c-0.238,0-0.43,0.192-0.43,0.43c0,0.238,0.192,0.431,0.43,0.431H18.61c0.237,0,0.431-0.192,0.431-0.431C19.041,9.762,18.848,9.57,18.61,9.57z M18.61,13.443H5.694c-0.238,0-0.43,0.193-0.43,0.432s0.192,0.432,0.43,0.432H18.61c0.237,0,0.431-0.193,0.431-0.432S18.848,13.443,18.61,13.443z M2.25,4.833c-0.713,0-1.292,0.578-1.292,1.292c0,0.713,0.579,1.291,1.292,1.291c0.713,0,1.292-0.578,1.292-1.291C3.542,5.412,2.963,4.833,2.25,4.833z M2.25,6.555c-0.238,0-0.43-0.191-0.43-0.43s0.192-0.431,0.43-0.431c0.238,0,0.431,0.192,0.431,0.431S2.488,6.555,2.25,6.555z"/></symbol>
	<symbol id="svg-more" viewBox="0 0 20 20"><path d="M3.936,7.979c-1.116,0-2.021,0.905-2.021,2.021s0.905,2.021,2.021,2.021S5.957,11.116,5.957,10 S5.052,7.979,3.936,7.979z M3.936,11.011c-0.558,0-1.011-0.452-1.011-1.011s0.453-1.011,1.011-1.011S4.946,9.441,4.946,10 S4.494,11.011,3.936,11.011z M16.064,7.979c-1.116,0-2.021,0.905-2.021,2.021s0.905,2.021,2.021,2.021s2.021-0.905,2.021-2.021 S17.181,7.979,16.064,7.979z M16.064,11.011c-0.559,0-1.011-0.452-1.011-1.011s0.452-1.011,1.011-1.011S17.075,9.441,17.075,10 S16.623,11.011,16.064,11.011z M10,7.979c-1.116,0-2.021,0.905-2.021,2.021S8.884,12.021,10,12.021s2.021-0.905,2.021-2.021 S11.116,7.979,10,7.979z M10,11.011c-0.558,0-1.011-0.452-1.011-1.011S9.442,8.989,10,8.989S11.011,9.441,11.011,10 S10.558,11.011,10,11.011z"/></symbol>
	<symbol id="svg-mode" viewBox="0 0 20 20"><path d="M11.088,2.542c0.063-0.146,0.103-0.306,0.103-0.476c0-0.657-0.534-1.19-1.19-1.19c-0.657,0-1.19,0.533-1.19,1.19c0,0.17,0.038,0.33,0.102,0.476c-4.085,0.535-7.243,4.021-7.243,8.252c0,4.601,3.73,8.332,8.332,8.332c4.601,0,8.331-3.73,8.331-8.332C18.331,6.562,15.173,3.076,11.088,2.542z  M10,1.669c0.219,0,0.396,0.177,0.396,0.396S10.219,2.462,10,2.462c-0.22,0-0.397-0.177-0.397-0.396S9.78,1.669,10,1.669z M10,18.332c-4.163,0-7.538-3.375-7.538-7.539c0-4.163,3.375-7.538,7.538-7.538c4.162,0,7.538,3.375,7.538,7.538C17.538,14.957,14.162,18.332,10,18.332z M10.386,9.26c0.002-0.018,0.011-0.034,0.011-0.053V5.24c0-0.219-0.177-0.396-0.396-0.396c-0.22,0-0.397,0.177-0.397,0.396v3.967c0,0.019,0.008,0.035,0.011,0.053c-0.689,0.173-1.201,0.792-1.201,1.534c0,0.324,0.098,0.625,0.264,0.875c-0.079,0.014-0.155,0.043-0.216,0.104l-2.244,2.244c-0.155,0.154-0.155,0.406,0,0.561s0.406,0.154,0.561,0l2.244-2.242c0.061-0.062,0.091-0.139,0.104-0.217c0.251,0.166,0.551,0.264,0.875,0.264c0.876,0,1.587-0.711,1.587-1.587C11.587,10.052,11.075,9.433,10.386,9.26z M10,11.586c-0.438,0-0.793-0.354-0.793-0.792c0-0.438,0.355-0.792,0.793-0.792c0.438,0,0.793,0.355,0.793,0.792C10.793,11.232,10.438,11.586,10,11.586z"/></symbol>
	<symbol id="svg-article" viewBox="0 0 20 20"><path d="M17.659,3.681H8.468c-0.211,0-0.383,0.172-0.383,0.383v2.681H2.341c-0.21,0-0.383,0.172-0.383,0.383v6.126c0,0.211,0.172,0.383,0.383,0.383h1.532v2.298c0,0.566,0.554,0.368,0.653,0.27l2.569-2.567h4.437c0.21,0,0.383-0.172,0.383-0.383v-2.681h1.013l2.546,2.567c0.242,0.249,0.652,0.065,0.652-0.27v-2.298h1.533c0.211,0,0.383-0.172,0.383-0.382V4.063C18.042,3.853,17.87,3.681,17.659,3.681 M11.148,12.87H6.937c-0.102,0-0.199,0.04-0.27,0.113l-2.028,2.025v-1.756c0-0.211-0.172-0.383-0.383-0.383H2.724V7.51h5.361v2.68c0,0.21,0.172,0.382,0.383,0.382h2.68V12.87z M17.276,9.807h-1.533c-0.211,0-0.383,0.172-0.383,0.383v1.755L13.356,9.92c-0.07-0.073-0.169-0.113-0.27-0.113H8.851v-5.36h8.425V9.807z"/></symbol>
	<symbol id="svg-list" viewBox="0 0 20 20"><path d="M3.314,4.8h13.372c0.41,0,0.743-0.333,0.743-0.743c0-0.41-0.333-0.743-0.743-0.743H3.314 c-0.41,0-0.743,0.333-0.743,0.743C2.571,4.467,2.904,4.8,3.314,4.8z M16.686,15.2H3.314c-0.41,0-0.743,0.333-0.743,0.743 s0.333,0.743,0.743,0.743h13.372c0.41,0,0.743-0.333,0.743-0.743S17.096,15.2,16.686,15.2z M16.686,9.257H3.314 c-0.41,0-0.743,0.333-0.743,0.743s0.333,0.743,0.743,0.743h13.372c0.41,0,0.743-0.333,0.743-0.743S17.096,9.257,16.686,9.257z"/></symbol>
	<symbol id="svg-currency" viewBox="0 0 20 20"><path d="M17.728,4.419H2.273c-0.236,0-0.429,0.193-0.429,0.429v10.304c0,0.234,0.193,0.428,0.429,0.428h15.455c0.235,0,0.429-0.193,0.429-0.428V4.849C18.156,4.613,17.963,4.419,17.728,4.419 M17.298,14.721H2.702V9.57h14.596V14.721zM17.298,8.712H2.702V7.424h14.596V8.712z M17.298,6.566H2.702V5.278h14.596V6.566z M9.142,13.005c0,0.235-0.193,0.43-0.43,0.43H4.419c-0.236,0-0.429-0.194-0.429-0.43c0-0.236,0.193-0.429,0.429-0.429h4.292C8.948,12.576,9.142,12.769,9.142,13.005"/></symbol>
	<symbol id="svg-language" viewBox="0 0 20 20"><path d="M14.467,1.771H5.533c-0.258,0-0.47,0.211-0.47,0.47v15.516c0,0.414,0.504,0.634,0.802,0.331L10,13.955l4.136,4.133c0.241,0.241,0.802,0.169,0.802-0.331V2.241C14.938,1.982,14.726,1.771,14.467,1.771 M13.997,16.621l-3.665-3.662c-0.186-0.186-0.479-0.186-0.664,0l-3.666,3.662V2.711h7.994V16.621z"/></symbol>
	<symbol id="svg-phone" viewBox="0 0 20 20"><path d="M14.911,1.295H5.09c-0.737,0-1.339,0.603-1.339,1.339v14.733c0,0.736,0.603,1.338,1.339,1.338h9.821c0.737,0,1.339-0.602,1.339-1.338V2.634C16.25,1.898,15.648,1.295,14.911,1.295 M15.357,17.367c0,0.24-0.205,0.445-0.446,0.445H5.09c-0.241,0-0.446-0.205-0.446-0.445v-0.893h10.714V17.367z M15.357,15.58H4.644V4.42h10.714V15.58z M15.357,3.527H4.644V2.634c0-0.241,0.205-0.446,0.446-0.446h9.821c0.241,0,0.446,0.206,0.446,0.446V3.527z"/></symbol>
	<symbol id="svg-callback" viewBox="0 0 20 20"><path d="M17.659,3.681H8.468c-0.211,0-0.383,0.172-0.383,0.383v2.681H2.341c-0.21,0-0.383,0.172-0.383,0.383v6.126c0,0.211,0.172,0.383,0.383,0.383h1.532v2.298c0,0.566,0.554,0.368,0.653,0.27l2.569-2.567h4.437c0.21,0,0.383-0.172,0.383-0.383v-2.681h1.013l2.546,2.567c0.242,0.249,0.652,0.065,0.652-0.27v-2.298h1.533c0.211,0,0.383-0.172,0.383-0.382V4.063C18.042,3.853,17.87,3.681,17.659,3.681 M11.148,12.87H6.937c-0.102,0-0.199,0.04-0.27,0.113l-2.028,2.025v-1.756c0-0.211-0.172-0.383-0.383-0.383H2.724V7.51h5.361v2.68c0,0.21,0.172,0.382,0.383,0.382h2.68V12.87z M17.276,9.807h-1.533c-0.211,0-0.383,0.172-0.383,0.383v1.755L13.356,9.92c-0.07-0.073-0.169-0.113-0.27-0.113H8.851v-5.36h8.425V9.807z"/></symbol>
	<symbol id="svg-close" viewBox="0 0 20 20"><path d="M15.898,4.045c-0.271-0.272-0.713-0.272-0.986,0l-4.71,4.711L5.493,4.045c-0.272-0.272-0.714-0.272-0.986,0s-0.272,0.714,0,0.986l4.709,4.711l-4.71,4.711c-0.272,0.271-0.272,0.713,0,0.986c0.136,0.136,0.314,0.203,0.492,0.203c0.179,0,0.357-0.067,0.493-0.203l4.711-4.711l4.71,4.711c0.137,0.136,0.314,0.203,0.494,0.203c0.178,0,0.355-0.067,0.492-0.203c0.273-0.273,0.273-0.715,0-0.986l-4.711-4.711l4.711-4.711C16.172,4.759,16.172,4.317,15.898,4.045z"/></symbol>
	<symbol id="svg-blog" viewBox="0 0 20 20"><path d="M12.871,9.337H7.377c-0.304,0-0.549,0.246-0.549,0.549c0,0.303,0.246,0.55,0.549,0.55h5.494 c0.305,0,0.551-0.247,0.551-0.55C13.422,9.583,13.176,9.337,12.871,9.337z M15.07,6.04H5.179c-0.304,0-0.549,0.246-0.549,0.55 c0,0.303,0.246,0.549,0.549,0.549h9.891c0.303,0,0.549-0.247,0.549-0.549C15.619,6.286,15.373,6.04,15.07,6.04z M17.268,1.645 H2.981c-0.911,0-1.648,0.738-1.648,1.648v10.988c0,0.912,0.738,1.648,1.648,1.648h4.938l2.205,2.205l2.206-2.205h4.938 c0.91,0,1.648-0.736,1.648-1.648V3.293C18.916,2.382,18.178,1.645,17.268,1.645z M17.816,13.732c0,0.607-0.492,1.1-1.098,1.1 h-4.939l-1.655,1.654l-1.656-1.654H3.531c-0.607,0-1.099-0.492-1.099-1.1v-9.89c0-0.607,0.492-1.099,1.099-1.099h13.188 c0.605,0,1.098,0.492,1.098,1.099V13.732z"/></symbol>
	<symbol id="svg-right-arrow" viewBox="0 0 20 20"><path d="M11.611,10.049l-4.76-4.873c-0.303-0.31-0.297-0.804,0.012-1.105c0.309-0.304,0.803-0.293,1.105,0.012l5.306,5.433c0.304,0.31,0.296,0.805-0.012,1.105L7.83,15.928c-0.152,0.148-0.35,0.223-0.547,0.223c-0.203,0-0.406-0.08-0.559-0.236c-0.303-0.309-0.295-0.803,0.012-1.104L11.611,10.049z"/></symbol>
	<symbol id="svg-plus" viewBox="0 0 20 20"><path d="M11.469,10l7.08-7.08c0.406-0.406,0.406-1.064,0-1.469c-0.406-0.406-1.063-0.406-1.469,0L10,8.53l-7.081-7.08 c-0.406-0.406-1.064-0.406-1.469,0c-0.406,0.406-0.406,1.063,0,1.469L8.531,10L1.45,17.081c-0.406,0.406-0.406,1.064,0,1.469 c0.203,0.203,0.469,0.304,0.735,0.304c0.266,0,0.531-0.101,0.735-0.304L10,11.469l7.08,7.081c0.203,0.203,0.469,0.304,0.735,0.304 c0.267,0,0.532-0.101,0.735-0.304c0.406-0.406,0.406-1.064,0-1.469L11.469,10z"/></symbol>
	<symbol id="svg-plus-plus" viewBox="0 0 20 20"><path d="M14.613,10c0,0.23-0.188,0.419-0.419,0.419H10.42v3.774c0,0.23-0.189,0.42-0.42,0.42s-0.419-0.189-0.419-0.42v-3.774H5.806c-0.23,0-0.419-0.189-0.419-0.419s0.189-0.419,0.419-0.419h3.775V5.806c0-0.23,0.189-0.419,0.419-0.419s0.42,0.189,0.42,0.419v3.775h3.774C14.425,9.581,14.613,9.77,14.613,10"></path></symbol>
	<symbol id="svg-minus" viewBox="0 0 20 20"><path d="M14.776,10c0,0.239-0.195,0.434-0.435,0.434H5.658c-0.239,0-0.434-0.195-0.434-0.434s0.195-0.434,0.434-0.434h8.684C14.581,9.566,14.776,9.762,14.776,10"></path></symbol>
	<symbol id="svg-telephone" viewBox="0 0 410 410"><path d="M499.639,396.039l-103.646-69.12c-13.153-8.701-30.784-5.838-40.508,6.579l-30.191,38.818
	c-3.88,5.116-10.933,6.6-16.546,3.482l-5.743-3.166c-19.038-10.377-42.726-23.296-90.453-71.04s-60.672-71.45-71.049-90.453 l-3.149-5.743c-3.161-5.612-1.705-12.695,3.413-16.606l38.792-30.182c12.412-9.725,15.279-27.351,6.588-40.508l-69.12-103.646 C109.12,1.056,91.25-2.966,77.461,5.323L34.12,31.358C20.502,39.364,10.511,52.33,6.242,67.539
	 c-15.607,56.866-3.866,155.008,140.706,299.597c115.004,114.995,200.619,145.92,259.465,145.92 c13.543,0.058,27.033-1.704,40.107-5.239c15.212-4.264,28.18-14.256,36.181-27.878l26.061-43.315 C517.063,422.832,513.043,404.951,499.639,396.039z M494.058,427.868l-26.001,43.341c-5.745,9.832-15.072,17.061-26.027,20.173
	 c-52.497,14.413-144.213,2.475-283.008-136.32S8.29,124.559,22.703,72.054c3.116-10.968,10.354-20.307,20.198-26.061
	 l43.341-26.001c5.983-3.6,13.739-1.855,17.604,3.959l37.547,56.371l31.514,47.266c3.774,5.707,2.534,13.356-2.85,17.579
	 l-38.801,30.182c-11.808,9.029-15.18,25.366-7.91,38.332l3.081,5.598c10.906,20.002,24.465,44.885,73.967,94.379
	 c49.502,49.493,74.377,63.053,94.37,73.958l5.606,3.089c12.965,7.269,29.303,3.898,38.332-7.91l30.182-38.801
	 c4.224-5.381,11.87-6.62,17.579-2.85l103.637,69.12C495.918,414.126,497.663,421.886,494.058,427.868z"/>
	 <path d="M291.161,86.39c80.081,0.089,144.977,64.986,145.067,145.067c0,4.713,3.82,8.533,8.533,8.533s8.533-3.82,8.533-8.533
	 c-0.099-89.503-72.63-162.035-162.133-162.133c-4.713,0-8.533,3.82-8.533,8.533S286.448,86.39,291.161,86.39z"/>
	 <path d="M291.161,137.59c51.816,0.061,93.806,42.051,93.867,93.867c0,4.713,3.821,8.533,8.533,8.533
	 c4.713,0,8.533-3.82,8.533-8.533c-0.071-61.238-49.696-110.863-110.933-110.933c-4.713,0-8.533,3.82-8.533,8.533
	 S286.448,137.59,291.161,137.59z"/><path  d="M291.161,188.79c23.552,0.028,42.638,19.114,42.667,42.667c0,4.713,3.821,8.533,8.533,8.533s8.533-3.82,8.533-8.533c-0.038-32.974-26.759-59.696-59.733-59.733c-4.713,0-8.533,3.82-8.533,8.533S286.448,188.79,291.161,188.79z"/></symbol>	 
	<symbol id="svg-right" viewBox="0 0 20 20"><path  d="M1.729,9.212h14.656l-4.184-4.184c-0.307-0.306-0.307-0.801,0-1.107c0.305-0.306,0.801-0.306,1.106,0 l5.481,5.482c0.018,0.014,0.037,0.019,0.053,0.034c0.181,0.181,0.242,0.425,0.209,0.66c-0.004,0.038-0.012,0.071-0.021,0.109 c-0.028,0.098-0.075,0.188-0.143,0.271c-0.021,0.026-0.021,0.061-0.045,0.085c-0.015,0.016-0.034,0.02-0.051,0.033l-5.483,5.483 c-0.306,0.307-0.802,0.307-1.106,0c-0.307-0.305-0.307-0.801,0-1.105l4.184-4.185H1.729c-0.436,0-0.788-0.353-0.788-0.788 S1.293,9.212,1.729,9.212z"></path></symbol>
	<symbol id="svg-icon-list" viewBox="0 0 20 20"><path d="M16.803,18.615h-4.535c-1,0-1.814-0.812-1.814-1.812v-4.535c0-1.002,0.814-1.814,1.814-1.814h4.535c1.001,0,1.813,0.812,1.813,1.814v4.535C18.616,17.803,17.804,18.615,16.803,18.615zM17.71,12.268c0-0.502-0.405-0.906-0.907-0.906h-4.535c-0.501,0-0.906,0.404-0.906,0.906v4.535c0,0.502,0.405,0.906,0.906,0.906h4.535c0.502,0,0.907-0.404,0.907-0.906V12.268z M16.803,9.546h-4.535c-1,0-1.814-0.812-1.814-1.814V3.198c0-1.002,0.814-1.814,1.814-1.814h4.535c1.001,0,1.813,0.812,1.813,1.814v4.534C18.616,8.734,17.804,9.546,16.803,9.546zM17.71,3.198c0-0.501-0.405-0.907-0.907-0.907h-4.535c-0.501,0-0.906,0.406-0.906,0.907v4.534c0,0.501,0.405,0.908,0.906,0.908h4.535c0.502,0,0.907-0.406,0.907-0.908V3.198z M7.733,18.615H3.198c-1.002,0-1.814-0.812-1.814-1.812v-4.535c0-1.002,0.812-1.814,1.814-1.814h4.535c1.002,0,1.814,0.812,1.814,1.814v4.535C9.547,17.803,8.735,18.615,7.733,18.615zM8.64,12.268c0-0.502-0.406-0.906-0.907-0.906H3.198c-0.501,0-0.907,0.404-0.907,0.906v4.535c0,0.502,0.406,0.906,0.907,0.906h4.535c0.501,0,0.907-0.404,0.907-0.906V12.268z M7.733,9.546H3.198c-1.002,0-1.814-0.812-1.814-1.814V3.198c0-1.002,0.812-1.814,1.814-1.814h4.535c1.002,0,1.814,0.812,1.814,1.814v4.534C9.547,8.734,8.735,9.546,7.733,9.546z M8.64,3.198c0-0.501-0.406-0.907-0.907-0.907H3.198c-0.501,0-0.907,0.406-0.907,0.907v4.534c0,0.501,0.406,0.908,0.907,0.908h4.535c0.501,0,0.907-0.406,0.907-0.908V3.198z"></path></symbol>
	<symbol id="svg-icon-tag" viewBox="0 0 20 20"><path d="M17.35,2.219h-5.934c-0.115,0-0.225,0.045-0.307,0.128l-8.762,8.762c-0.171,0.168-0.171,0.443,0,0.611l5.933,5.934c0.167,0.171,0.443,0.169,0.612,0l8.762-8.763c0.083-0.083,0.128-0.192,0.128-0.307V2.651C17.781,2.414,17.587,2.219,17.35,2.219M16.916,8.405l-8.332,8.332l-5.321-5.321l8.333-8.332h5.32V8.405z M13.891,4.367c-0.957,0-1.729,0.772-1.729,1.729c0,0.957,0.771,1.729,1.729,1.729s1.729-0.772,1.729-1.729C15.619,5.14,14.848,4.367,13.891,4.367 M14.502,6.708c-0.326,0.326-0.896,0.326-1.223,0c-0.338-0.342-0.338-0.882,0-1.224c0.342-0.337,0.881-0.337,1.223,0C14.84,5.826,14.84,6.366,14.502,6.708"></path></symbol>
	<symbol id="svg-icon-left" viewBox="0 0 20 20"><path d="M8.388,10.049l4.76-4.873c0.303-0.31,0.297-0.804-0.012-1.105c-0.309-0.304-0.803-0.293-1.105,0.012L6.726,9.516c-0.303,0.31-0.296,0.805,0.012,1.105l5.433,5.307c0.152,0.148,0.35,0.223,0.547,0.223c0.203,0,0.406-0.08,0.559-0.236c0.303-0.309,0.295-0.803-0.012-1.104L8.388,10.049z"></path></symbol>
	<symbol id="svg-icon-right" viewBox="0 0 20 20"><path d="M11.611,10.049l-4.76-4.873c-0.303-0.31-0.297-0.804,0.012-1.105c0.309-0.304,0.803-0.293,1.105,0.012l5.306,5.433c0.304,0.31,0.296,0.805-0.012,1.105L7.83,15.928c-0.152,0.148-0.35,0.223-0.547,0.223c-0.203,0-0.406-0.08-0.559-0.236c-0.303-0.309-0.295-0.803,0.012-1.104L11.611,10.049z"></path></symbol>
	<symbol id="svg-icon-fixed" viewBox="0 0 20 20"><path d="M4.317,16.411c-1.423-1.423-1.423-3.737,0-5.16l8.075-7.984c0.994-0.996,2.613-0.996,3.611,0.001C17,4.264,17,5.884,16.004,6.88l-8.075,7.984c-0.568,0.568-1.493,0.569-2.063-0.001c-0.569-0.569-0.569-1.495,0-2.064L9.93,8.828c0.145-0.141,0.376-0.139,0.517,0.005c0.141,0.144,0.139,0.375-0.006,0.516l-4.062,3.968c-0.282,0.282-0.282,0.745,0.003,1.03c0.285,0.284,0.747,0.284,1.032,0l8.074-7.985c0.711-0.71,0.711-1.868-0.002-2.579c-0.711-0.712-1.867-0.712-2.58,0l-8.074,7.984c-1.137,1.137-1.137,2.988,0.001,4.127c1.14,1.14,2.989,1.14,4.129,0l6.989-6.896c0.143-0.142,0.375-0.14,0.516,0.003c0.143,0.143,0.141,0.374-0.002,0.516l-6.988,6.895C8.054,17.836,5.743,17.836,4.317,16.411"></path>/</symbol>
	<symbol id="svg-compare" viewBox="0 0 20 20"><path d="M15.396,2.292H4.604c-0.212,0-0.385,0.174-0.385,0.386v14.646c0,0.212,0.173,0.385,0.385,0.385h10.792c0.211,0,0.385-0.173,0.385-0.385V2.677C15.781,2.465,15.607,2.292,15.396,2.292 M15.01,16.938H4.99v-2.698h1.609c0.156,0.449,0.586,0.771,1.089,0.771c0.638,0,1.156-0.519,1.156-1.156s-0.519-1.156-1.156-1.156c-0.503,0-0.933,0.321-1.089,0.771H4.99v-3.083h1.609c0.156,0.449,0.586,0.771,1.089,0.771c0.638,0,1.156-0.518,1.156-1.156c0-0.638-0.519-1.156-1.156-1.156c-0.503,0-0.933,0.322-1.089,0.771H4.99V6.531h1.609C6.755,6.98,7.185,7.302,7.688,7.302c0.638,0,1.156-0.519,1.156-1.156c0-0.638-0.519-1.156-1.156-1.156c-0.503,0-0.933,0.322-1.089,0.771H4.99V3.062h10.02V16.938z M7.302,13.854c0-0.212,0.173-0.386,0.385-0.386s0.385,0.174,0.385,0.386s-0.173,0.385-0.385,0.385S7.302,14.066,7.302,13.854 M7.302,10c0-0.212,0.173-0.385,0.385-0.385S8.073,9.788,8.073,10s-0.173,0.385-0.385,0.385S7.302,10.212,7.302,10 M7.302,6.146c0-0.212,0.173-0.386,0.385-0.386s0.385,0.174,0.385,0.386S7.899,6.531,7.688,6.531S7.302,6.358,7.302,6.146"></path></symbol>
	<symbol id="svg-star" viewBox="0 0 20 20"><path d="M17.684,7.925l-5.131-0.67L10.329,2.57c-0.131-0.275-0.527-0.275-0.658,0L7.447,7.255l-5.131,0.67C2.014,7.964,1.892,8.333,2.113,8.54l3.76,3.568L4.924,17.21c-0.056,0.297,0.261,0.525,0.533,0.379L10,15.109l4.543,2.479c0.273,0.153,0.587-0.089,0.533-0.379l-0.949-5.103l3.76-3.568C18.108,8.333,17.986,7.964,17.684,7.925 M13.481,11.723c-0.089,0.083-0.129,0.205-0.105,0.324l0.848,4.547l-4.047-2.208c-0.055-0.03-0.116-0.045-0.176-0.045s-0.122,0.015-0.176,0.045l-4.047,2.208l0.847-4.547c0.023-0.119-0.016-0.241-0.105-0.324L3.162,8.54L7.74,7.941c0.124-0.016,0.229-0.093,0.282-0.203L10,3.568l1.978,4.17c0.053,0.11,0.158,0.187,0.282,0.203l4.578,0.598L13.481,11.723z"></path></symbol>
	<symbol id="svg-slider" viewBox="0 0 20 20"><path d="M 13.816406 0 L 1.976562 0 C 0.890625 0 0 0.972656 0 2.054688 L 0 13.828125 C 0 14.914062 0.878906 15.789062 1.960938 15.789062 L 13.726562 15.789062 C 14.808594 15.789062 15.789062 14.898438 15.789062 13.816406 L 15.789062 1.976562 C 15.789062 0.890625 14.898438 0 13.816406 0 Z M 14.804688 13.816406 C 14.804688 14.359375 14.265625 14.808594 13.726562 14.808594 L 1.960938 14.808594 C 1.417969 14.808594 0.980469 14.367188 0.980469 13.828125 L 0.980469 2.054688 C 0.980469 1.511719 1.433594 0.988281 1.976562 0.988281 L 13.816406 0.988281 C 14.355469 0.988281 14.804688 1.429688 14.804688 1.976562 Z M 11.839844 9.867188 L 3.945312 9.867188 C 3.675781 9.867188 3.453125 10.089844 3.453125 10.363281 C 3.453125 10.632812 3.675781 10.855469 3.945312 10.855469 L 11.839844 10.855469 C 12.113281 10.855469 12.335938 10.632812 12.335938 10.363281 C 12.335938 10.089844 12.113281 9.867188 11.839844 9.867188 Z M 11.839844 6.910156 L 3.945312 6.910156 C 3.675781 6.910156 3.453125 7.132812 3.453125 7.398438 C 3.453125 7.671875 3.675781 7.894531 3.945312 7.894531 L 11.839844 7.894531 C 12.113281 7.894531 12.335938 7.671875 12.335938 7.398438 C 12.335938 7.132812 12.113281 6.910156 11.839844 6.910156 Z M 11.839844 3.945312 L 3.945312 3.945312 C 3.675781 3.945312 3.453125 4.167969 3.453125 4.441406 C 3.453125 4.710938 3.675781 4.933594 3.945312 4.933594 L 11.839844 4.933594 C 12.113281 4.933594 12.335938 4.710938 12.335938 4.441406 C 12.335938 4.167969 12.113281 3.945312 11.839844 3.945312 Z M 11.839844 3.945312 "/></symbol>
	<symbol id="svg-home" viewBox="0 0 20 20"><g id="surface1">
<path style=" stroke:none;fill-rule:nonzero;fill-opacity:1;" d="M 11.761719 5.574219 L 10.683594 4.492188 L 6.382812 0.1875 C 6.128906 -0.0664062 5.71875 -0.0664062 5.46875 0.1875 L 1.164062 4.488281 L 0.0820312 5.574219 C -0.0234375 5.679688 -0.0195312 5.851562 0.0898438 5.957031 C 0.195312 6.0625 0.363281 6.066406 0.476562 5.964844 L 1.082031 5.355469 L 1.082031 11.195312 C 1.082031 11.550781 1.371094 11.84375 1.730469 11.84375 L 4.253906 11.84375 C 4.613281 11.84375 4.902344 11.550781 4.902344 11.195312 L 4.902344 7.492188 C 4.902344 7.441406 4.945312 7.402344 4.996094 7.402344 L 6.847656 7.402344 C 6.898438 7.402344 6.9375 7.441406 6.9375 7.492188 L 6.9375 11.195312 C 6.9375 11.550781 7.230469 11.84375 7.585938 11.84375 L 10.113281 11.84375 C 10.472656 11.84375 10.761719 11.550781 10.761719 11.195312 L 10.761719 5.359375 L 11.367188 5.964844 C 11.476562 6.066406 11.648438 6.0625 11.753906 5.957031 C 11.859375 5.851562 11.863281 5.679688 11.761719 5.574219 Z M 10.207031 11.195312 C 10.207031 11.246094 10.167969 11.285156 10.113281 11.285156 L 7.585938 11.285156 C 7.535156 11.285156 7.492188 11.246094 7.492188 11.195312 L 7.492188 7.492188 C 7.492188 7.136719 7.203125 6.847656 6.847656 6.847656 L 4.996094 6.847656 C 4.636719 6.847656 4.347656 7.136719 4.347656 7.492188 L 4.347656 11.195312 C 4.347656 11.246094 4.308594 11.285156 4.253906 11.285156 L 1.730469 11.285156 C 1.675781 11.285156 1.636719 11.246094 1.636719 11.195312 L 1.636719 4.800781 L 5.855469 0.582031 C 5.890625 0.546875 5.949219 0.546875 5.984375 0.582031 L 10.207031 4.804688 Z M 10.207031 11.195312 "/>
</g></symbol>
	<symbol id="svg-description" viewBox="0 0 20 20"><g id="surface1">
<path style=" stroke:none;fill-rule:nonzero;fill-opacity:1;" d="M 7.640625 0.363281 L 1.09375 0.363281 L 1.09375 11.320312 L 10.773438 11.320312 L 10.773438 3.5 Z M 10.042969 3.804688 L 10.042969 3.832031 L 7.300781 3.832031 L 7.300781 1.09375 L 7.332031 1.09375 Z M 1.824219 10.589844 L 1.824219 1.09375 L 6.574219 1.09375 L 6.574219 4.5625 L 10.042969 4.5625 L 10.042969 10.589844 Z M 1.824219 10.589844 "/>
<path style=" stroke:none;fill-rule:nonzero;fill-opacity:1;" d="M 3.105469 6.757812 L 8.214844 6.757812 L 8.214844 7.488281 L 3.105469 7.488281 Z M 3.105469 6.757812 "/>
<path style=" stroke:none;fill-rule:nonzero;fill-opacity:1;" d="M 3.105469 8.582031 L 8.214844 8.582031 L 8.214844 9.3125 L 3.105469 9.3125 Z M 3.105469 8.582031 "/>
</g></symbol>
	<symbol id="svg-reviews" viewBox="0 0 20 20"><g id="surface1">
<path style=" stroke:none;fill-rule:nonzero;fill-opacity:1;" d="M 11.960938 4.585938 C 11.871094 4.304688 11.617188 4.09375 11.324219 4.046875 L 8.132812 3.585938 L 6.707031 0.695312 C 6.578125 0.429688 6.296875 0.253906 6 0.253906 C 5.703125 0.253906 5.421875 0.425781 5.292969 0.695312 L 3.867188 3.585938 L 0.675781 4.046875 C 0.378906 4.089844 0.128906 4.304688 0.0390625 4.585938 C -0.0546875 4.871094 0.0234375 5.1875 0.238281 5.394531 L 2.546875 7.644531 L 2 10.820312 C 1.949219 11.117188 2.074219 11.417969 2.316406 11.59375 C 2.449219 11.691406 2.613281 11.746094 2.78125 11.746094 C 2.90625 11.746094 3.035156 11.714844 3.148438 11.65625 L 6 10.15625 L 8.851562 11.65625 C 8.964844 11.714844 9.09375 11.746094 9.21875 11.746094 C 9.386719 11.746094 9.550781 11.691406 9.683594 11.59375 C 9.925781 11.417969 10.050781 11.117188 10 10.820312 L 9.453125 7.644531 L 11.761719 5.394531 C 11.976562 5.1875 12.054688 4.871094 11.960938 4.585938 Z M 11.53125 5.160156 L 9.160156 7.46875 C 9.121094 7.507812 9.105469 7.5625 9.113281 7.617188 L 9.671875 10.878906 C 9.703125 11.046875 9.628906 11.226562 9.488281 11.328125 C 9.410156 11.382812 9.316406 11.414062 9.21875 11.414062 C 9.144531 11.414062 9.070312 11.398438 9.007812 11.363281 L 6.078125 9.820312 C 6.054688 9.808594 6.027344 9.804688 6 9.804688 C 5.972656 9.804688 5.949219 9.808594 5.921875 9.820312 L 2.992188 11.363281 C 2.84375 11.441406 2.648438 11.429688 2.507812 11.328125 C 2.371094 11.226562 2.296875 11.050781 2.328125 10.878906 L 2.886719 7.617188 C 2.894531 7.5625 2.878906 7.507812 2.839844 7.46875 L 0.46875 5.160156 C 0.34375 5.039062 0.300781 4.851562 0.351562 4.6875 C 0.40625 4.523438 0.550781 4.402344 0.722656 4.375 L 4 3.898438 C 4.054688 3.890625 4.097656 3.859375 4.125 3.808594 L 5.585938 0.839844 C 5.664062 0.6875 5.828125 0.585938 6 0.585938 C 6.171875 0.585938 6.335938 0.6875 6.410156 0.839844 L 7.875 3.808594 C 7.902344 3.859375 7.945312 3.890625 8 3.898438 L 11.277344 4.375 C 11.449219 4.402344 11.59375 4.523438 11.648438 4.6875 C 11.699219 4.851562 11.65625 5.039062 11.53125 5.160156 Z M 11.53125 5.160156 "/>
</g></symbol>
<symbol id="svg-letter" viewBox="0 0 20 20"><path d="M17.218,2.268L2.477,8.388C2.13,8.535,2.164,9.05,2.542,9.134L9.33,10.67l1.535,6.787c0.083,0.377,0.602,0.415,0.745,0.065l6.123-14.74C17.866,2.46,17.539,2.134,17.218,2.268 M3.92,8.641l11.772-4.89L9.535,9.909L3.92,8.641z M11.358,16.078l-1.268-5.613l6.157-6.157L11.358,16.078z"></path></symbol>
<symbol id="svg-articul" viewBox="0 0 20 20"><path d="M18.303,4.742l-1.454-1.455c-0.171-0.171-0.475-0.171-0.646,0l-3.061,3.064H2.019c-0.251,0-0.457,0.205-0.457,0.456v9.578c0,0.251,0.206,0.456,0.457,0.456h13.683c0.252,0,0.457-0.205,0.457-0.456V7.533l2.144-2.146C18.481,5.208,18.483,4.917,18.303,4.742 M15.258,15.929H2.476V7.263h9.754L9.695,9.792c-0.057,0.057-0.101,0.13-0.119,0.212L9.18,11.36h-3.98c-0.251,0-0.457,0.205-0.457,0.456c0,0.253,0.205,0.456,0.457,0.456h4.336c0.023,0,0.899,0.02,1.498-0.127c0.312-0.077,0.55-0.137,0.55-0.137c0.08-0.018,0.155-0.059,0.212-0.118l3.463-3.443V15.929z M11.241,11.156l-1.078,0.267l0.267-1.076l6.097-6.091l0.808,0.808L11.241,11.156z"></path></symbol>
<symbol id="svg-stock" viewBox="0 0 20 20"><path d="M12.546,4.6h-5.2C4.398,4.6,2,7.022,2,10c0,2.978,2.398,5.4,5.346,5.4h5.2C15.552,15.4,18,12.978,18,10C18,7.022,15.552,4.6,12.546,4.6 M12.546,14.6h-5.2C4.838,14.6,2.8,12.536,2.8,10s2.038-4.6,4.546-4.6h5.2c2.522,0,4.654,2.106,4.654,4.6S15.068,14.6,12.546,14.6 M12.562,6.2C10.488,6.2,8.8,7.904,8.8,10c0,2.096,1.688,3.8,3.763,3.8c2.115,0,3.838-1.706,3.838-3.8C16.4,7.904,14.678,6.2,12.562,6.2 M12.562,13C10.93,13,9.6,11.654,9.6,10c0-1.654,1.33-3,2.962-3C14.21,7,15.6,8.374,15.6,10S14.208,13,12.562,13"></path></symbol>
<symbol id="svg-reward" viewBox="0 0 20 20"><path d="M17.701,3.919H2.299c-0.223,0-0.405,0.183-0.405,0.405v11.349c0,0.223,0.183,0.406,0.405,0.406h15.402c0.224,0,0.405-0.184,0.405-0.406V4.325C18.106,4.102,17.925,3.919,17.701,3.919 M17.296,15.268H2.704V7.162h14.592V15.268zM17.296,6.352H2.704V4.73h14.592V6.352z M5.947,5.541c0,0.223-0.183,0.405-0.405,0.405H3.515c-0.223,0-0.405-0.182-0.405-0.405c0-0.223,0.183-0.405,0.405-0.405h2.027C5.764,5.135,5.947,5.318,5.947,5.541"></path></symbol>
<symbol id="svg-weight" viewBox="0 0 20 20"><path d="M17.896,12.706v-0.005v-0.003L15.855,2.507c-0.046-0.24-0.255-0.413-0.5-0.413H4.899c-0.24,0-0.447,0.166-0.498,0.4L2.106,12.696c-0.008,0.035-0.013,0.071-0.013,0.107v4.593c0,0.28,0.229,0.51,0.51,0.51h14.792c0.28,0,0.51-0.229,0.51-0.51v-4.593C17.906,12.77,17.904,12.737,17.896,12.706 M5.31,3.114h9.625l1.842,9.179h-4.481c-0.28,0-0.51,0.229-0.51,0.511c0,0.703-1.081,1.546-1.785,1.546c-0.704,0-1.785-0.843-1.785-1.546c0-0.281-0.229-0.511-0.51-0.511H3.239L5.31,3.114zM16.886,16.886H3.114v-3.572H7.25c0.235,1.021,1.658,2.032,2.75,2.032c1.092,0,2.515-1.012,2.749-2.032h4.137V16.886z"></path></symbol>
<symbol id="svg-sizes" viewBox="0 0 20 20"><path d="M17.659,9.597h-1.224c-0.199-3.235-2.797-5.833-6.032-6.033V2.341c0-0.222-0.182-0.403-0.403-0.403S9.597,2.119,9.597,2.341v1.223c-3.235,0.2-5.833,2.798-6.033,6.033H2.341c-0.222,0-0.403,0.182-0.403,0.403s0.182,0.403,0.403,0.403h1.223c0.2,3.235,2.798,5.833,6.033,6.032v1.224c0,0.222,0.182,0.403,0.403,0.403s0.403-0.182,0.403-0.403v-1.224c3.235-0.199,5.833-2.797,6.032-6.032h1.224c0.222,0,0.403-0.182,0.403-0.403S17.881,9.597,17.659,9.597 M14.435,10.403h1.193c-0.198,2.791-2.434,5.026-5.225,5.225v-1.193c0-0.222-0.182-0.403-0.403-0.403s-0.403,0.182-0.403,0.403v1.193c-2.792-0.198-5.027-2.434-5.224-5.225h1.193c0.222,0,0.403-0.182,0.403-0.403S5.787,9.597,5.565,9.597H4.373C4.57,6.805,6.805,4.57,9.597,4.373v1.193c0,0.222,0.182,0.403,0.403,0.403s0.403-0.182,0.403-0.403V4.373c2.791,0.197,5.026,2.433,5.225,5.224h-1.193c-0.222,0-0.403,0.182-0.403,0.403S14.213,10.403,14.435,10.403"></path></symbol>
<symbol id="svg-mail" viewBox="0 0 20 20"><path d="M17.388,4.751H2.613c-0.213,0-0.389,0.175-0.389,0.389v9.72c0,0.216,0.175,0.389,0.389,0.389h14.775c0.214,0,0.389-0.173,0.389-0.389v-9.72C17.776,4.926,17.602,4.751,17.388,4.751 M16.448,5.53L10,11.984L3.552,5.53H16.448zM3.002,6.081l3.921,3.925l-3.921,3.925V6.081z M3.56,14.471l3.914-3.916l2.253,2.253c0.153,0.153,0.395,0.153,0.548,0l2.253-2.253l3.913,3.916H3.56z M16.999,13.931l-3.921-3.925l3.921-3.925V13.931z"></path></symbol>
<symbol id="svg-comment" viewBox="0 0 20 20"><path d="M14.999,8.543c0,0.229-0.188,0.417-0.416,0.417H5.417C5.187,8.959,5,8.772,5,8.543s0.188-0.417,0.417-0.417h9.167C14.812,8.126,14.999,8.314,14.999,8.543 M12.037,10.213H5.417C5.187,10.213,5,10.4,5,10.63c0,0.229,0.188,0.416,0.417,0.416h6.621c0.229,0,0.416-0.188,0.416-0.416C12.453,10.4,12.266,10.213,12.037,10.213 M14.583,6.046H5.417C5.187,6.046,5,6.233,5,6.463c0,0.229,0.188,0.417,0.417,0.417h9.167c0.229,0,0.416-0.188,0.416-0.417C14.999,6.233,14.812,6.046,14.583,6.046 M17.916,3.542v10c0,0.229-0.188,0.417-0.417,0.417H9.373l-2.829,2.796c-0.117,0.116-0.71,0.297-0.71-0.296v-2.5H2.5c-0.229,0-0.417-0.188-0.417-0.417v-10c0-0.229,0.188-0.417,0.417-0.417h15C17.729,3.126,17.916,3.313,17.916,3.542 M17.083,3.959H2.917v9.167H6.25c0.229,0,0.417,0.187,0.417,0.416v1.919l2.242-2.215c0.079-0.077,0.184-0.12,0.294-0.12h7.881V3.959z"></path></symbol>
<symbol id="svg-left" viewBox="0 0 20 20"><path d="M18.271,9.212H3.615l4.184-4.184c0.306-0.306,0.306-0.801,0-1.107c-0.306-0.306-0.801-0.306-1.107,0	L1.21,9.403C1.194,9.417,1.174,9.421,1.158,9.437c-0.181,0.181-0.242,0.425-0.209,0.66c0.005,0.038,0.012,0.071,0.022,0.109	c0.028,0.098,0.075,0.188,0.142,0.271c0.021,0.026,0.021,0.061,0.045,0.085c0.015,0.016,0.034,0.02,0.05,0.033l5.484,5.483 c0.306,0.307,0.801,0.307,1.107,0c0.306-0.305,0.306-0.801,0-1.105l-4.184-4.185h14.656c0.436,0,0.788-0.353,0.788-0.788 S18.707,9.212,18.271,9.212z"></path></symbol>
<symbol id="svg-right" viewBox="0 0 20 20"><path d="M1.729,9.212h14.656l-4.184-4.184c-0.307-0.306-0.307-0.801,0-1.107c0.305-0.306,0.801-0.306,1.106,0	l5.481,5.482c0.018,0.014,0.037,0.019,0.053,0.034c0.181,0.181,0.242,0.425,0.209,0.66c-0.004,0.038-0.012,0.071-0.021,0.109	c-0.028,0.098-0.075,0.188-0.143,0.271c-0.021,0.026-0.021,0.061-0.045,0.085c-0.015,0.016-0.034,0.02-0.051,0.033l-5.483,5.483	c-0.306,0.307-0.802,0.307-1.106,0c-0.307-0.305-0.307-0.801,0-1.105l4.184-4.185H1.729c-0.436,0-0.788-0.353-0.788-0.788	S1.293,9.212,1.729,9.212z"></path></symbol>
<symbol id="svg-justify" viewBox="0 0 20 20"><path d="M3.314,4.8h13.372c0.41,0,0.743-0.333,0.743-0.743c0-0.41-0.333-0.743-0.743-0.743H3.314 c-0.41,0-0.743,0.333-0.743,0.743C2.571,4.467,2.904,4.8,3.314,4.8z M16.686,15.2H3.314c-0.41,0-0.743,0.333-0.743,0.743 s0.333,0.743,0.743,0.743h13.372c0.41,0,0.743-0.333,0.743-0.743S17.096,15.2,16.686,15.2z M16.686,9.257H3.314 c-0.41,0-0.743,0.333-0.743,0.743s0.333,0.743,0.743,0.743h13.372c0.41,0,0.743-0.333,0.743-0.743S17.096,9.257,16.686,9.257z"></path></symbol>
<symbol id="svg-large" viewBox="0 0 20 20"><path d="M7.228,11.464H1.996c-0.723,0-1.308,0.587-1.308,1.309v5.232c0,0.722,0.585,1.308,1.308,1.308h5.232
		c0.723,0,1.308-0.586,1.308-1.308v-5.232C8.536,12.051,7.95,11.464,7.228,11.464z M7.228,17.351c0,0.361-0.293,0.654-0.654,0.654
		H2.649c-0.361,0-0.654-0.293-0.654-0.654v-3.924c0-0.361,0.292-0.654,0.654-0.654h3.924c0.361,0,0.654,0.293,0.654,0.654V17.351z
		 M17.692,11.464H12.46c-0.723,0-1.308,0.587-1.308,1.309v5.232c0,0.722,0.585,1.308,1.308,1.308h5.232
		c0.722,0,1.308-0.586,1.308-1.308v-5.232C19,12.051,18.414,11.464,17.692,11.464z M17.692,17.351c0,0.361-0.293,0.654-0.654,0.654
		h-3.924c-0.361,0-0.654-0.293-0.654-0.654v-3.924c0-0.361,0.293-0.654,0.654-0.654h3.924c0.361,0,0.654,0.293,0.654,0.654V17.351z
		 M7.228,1H1.996C1.273,1,0.688,1.585,0.688,2.308V7.54c0,0.723,0.585,1.308,1.308,1.308h5.232c0.723,0,1.308-0.585,1.308-1.308
		V2.308C8.536,1.585,7.95,1,7.228,1z M7.228,6.886c0,0.361-0.293,0.654-0.654,0.654H2.649c-0.361,0-0.654-0.292-0.654-0.654V2.962
		c0-0.361,0.292-0.654,0.654-0.654h3.924c0.361,0,0.654,0.292,0.654,0.654V6.886z M17.692,1H12.46c-0.723,0-1.308,0.585-1.308,1.308
		V7.54c0,0.723,0.585,1.308,1.308,1.308h5.232C18.414,8.848,19,8.263,19,7.54V2.308C19,1.585,18.414,1,17.692,1z M17.692,6.886
		c0,0.361-0.293,0.654-0.654,0.654h-3.924c-0.361,0-0.654-0.292-0.654-0.654V2.962c0-0.361,0.293-0.654,0.654-0.654h3.924
		c0.361,0,0.654,0.292,0.654,0.654V6.886z"></path></symbol>


<symbol id="svg-list-view" viewBox="0 0 20 20"><g id="surface1">
<path d="M 4.359375 0.00390625 L 1.875 0.00390625 C 0.839844 0.00390625 0 0.84375 0 1.878906 L 0 4.359375 C 0 5.394531 0.839844 6.234375 1.875 6.234375 L 4.359375 6.234375 C 5.390625 6.234375 6.234375 5.394531 6.234375 4.359375 L 6.234375 1.878906 C 6.234375 0.84375 5.390625 0.00390625 4.359375 0.00390625 Z M 4.984375 4.359375 C 4.984375 4.703125 4.703125 4.984375 4.359375 4.984375 L 1.875 4.984375 C 1.53125 4.984375 1.25 4.703125 1.25 4.359375 L 1.25 1.878906 C 1.25 1.53125 1.53125 1.253906 1.875 1.253906 L 4.359375 1.253906 C 4.703125 1.253906 4.984375 1.53125 4.984375 1.878906 Z M 4.984375 4.359375 "/>
<path d="M 18.125 0 L 8.753906 0 C 7.722656 0 6.878906 0.839844 6.878906 1.875 L 6.878906 4.355469 C 6.878906 5.390625 7.722656 6.230469 8.753906 6.230469 L 18.125 6.230469 C 19.160156 6.230469 20 5.390625 20 4.355469 L 20 1.875 C 20 0.839844 19.160156 0 18.125 0 Z M 18.75 4.355469 C 18.75 4.703125 18.46875 4.980469 18.125 4.980469 L 8.753906 4.980469 C 8.410156 4.980469 8.128906 4.703125 8.128906 4.355469 L 8.128906 1.875 C 8.128906 1.53125 8.410156 1.25 8.753906 1.25 L 18.125 1.25 C 18.46875 1.25 18.75 1.53125 18.75 1.875 Z M 18.75 4.355469 "/>
<path d="M 4.359375 6.886719 L 1.875 6.886719 C 0.839844 6.886719 0 7.726562 0 8.761719 L 0 11.242188 C 0 12.277344 0.839844 13.117188 1.875 13.117188 L 4.359375 13.117188 C 5.390625 13.117188 6.234375 12.277344 6.234375 11.242188 L 6.234375 8.761719 C 6.234375 7.726562 5.390625 6.886719 4.359375 6.886719 Z M 4.984375 11.242188 C 4.984375 11.589844 4.703125 11.867188 4.359375 11.867188 L 1.875 11.867188 C 1.53125 11.867188 1.25 11.589844 1.25 11.242188 L 1.25 8.761719 C 1.25 8.417969 1.53125 8.136719 1.875 8.136719 L 4.359375 8.136719 C 4.703125 8.136719 4.984375 8.417969 4.984375 8.761719 Z M 4.984375 11.242188 "/>
<path d="M 18.125 6.882812 L 8.753906 6.882812 C 7.722656 6.882812 6.878906 7.726562 6.878906 8.757812 L 6.878906 11.242188 C 6.878906 12.273438 7.722656 13.117188 8.753906 13.117188 L 18.125 13.117188 C 19.160156 13.117188 20 12.273438 20 11.242188 L 20 8.757812 C 20 7.726562 19.160156 6.882812 18.125 6.882812 Z M 18.75 11.242188 C 18.75 11.585938 18.46875 11.867188 18.125 11.867188 L 8.753906 11.867188 C 8.410156 11.867188 8.128906 11.585938 8.128906 11.242188 L 8.128906 8.757812 C 8.128906 8.414062 8.410156 8.132812 8.753906 8.132812 L 18.125 8.132812 C 18.46875 8.132812 18.75 8.414062 18.75 8.757812 Z M 18.75 11.242188 "/>
<path d="M 4.359375 13.769531 L 1.875 13.769531 C 0.839844 13.769531 0 14.609375 0 15.644531 L 0 18.125 C 0 19.160156 0.839844 20 1.875 20 L 4.359375 20 C 5.390625 20 6.234375 19.160156 6.234375 18.125 L 6.234375 15.644531 C 6.234375 14.609375 5.390625 13.769531 4.359375 13.769531 Z M 4.984375 18.125 C 4.984375 18.46875 4.703125 18.75 4.359375 18.75 L 1.875 18.75 C 1.53125 18.75 1.25 18.46875 1.25 18.125 L 1.25 15.644531 C 1.25 15.296875 1.53125 15.019531 1.875 15.019531 L 4.359375 15.019531 C 4.703125 15.019531 4.984375 15.296875 4.984375 15.644531 Z M 4.984375 18.125 "/>
<path d="M 18.125 13.765625 L 8.753906 13.765625 C 7.722656 13.765625 6.878906 14.605469 6.878906 15.640625 L 6.878906 18.121094 C 6.878906 19.15625 7.722656 19.996094 8.753906 19.996094 L 18.125 19.996094 C 19.160156 19.996094 20 19.15625 20 18.121094 L 20 15.640625 C 20 14.605469 19.160156 13.765625 18.125 13.765625 Z M 18.75 18.121094 C 18.75 18.46875 18.46875 18.746094 18.125 18.746094 L 8.753906 18.746094 C 8.410156 18.746094 8.128906 18.46875 8.128906 18.121094 L 8.128906 15.640625 C 8.128906 15.296875 8.410156 15.015625 8.753906 15.015625 L 18.125 15.015625 C 18.46875 15.015625 18.75 15.296875 18.75 15.640625 Z M 18.75 18.121094 "/>
</g></symbol>
<symbol id="svg-grid" viewBox="0 0 20 20"><g id="surface1">
<path style=" stroke:none;fill-rule:nonzero;fill-opacity:1;" d="M 4.375 7.5 L 0.625 7.5 C 0.28125 7.5 0 7.78125 0 8.125 L 0 11.875 C 0 12.21875 0.28125 12.5 0.625 12.5 L 4.375 12.5 C 4.71875 12.5 5 12.21875 5 11.875 L 5 8.125 C 5 7.78125 4.71875 7.5 4.375 7.5 Z M 3.75 10.625 C 3.75 10.96875 3.46875 11.25 3.125 11.25 L 1.875 11.25 C 1.53125 11.25 1.25 10.96875 1.25 10.625 L 1.25 9.375 C 1.25 9.03125 1.53125 8.75 1.875 8.75 L 3.125 8.75 C 3.46875 8.75 3.75 9.03125 3.75 9.375 Z M 4.375 0 L 0.625 0 C 0.28125 0 0 0.28125 0 0.625 L 0 4.375 C 0 4.71875 0.28125 5 0.625 5 L 4.375 5 C 4.71875 5 5 4.09375 5 3.75 L 5 0.625 C 5 0.28125 4.71875 0 4.375 0 Z M 3.75 3.125 C 3.75 3.46875 3.46875 3.75 3.125 3.75 L 1.875 3.75 C 1.53125 3.75 1.25 3.46875 1.25 3.125 L 1.25 1.875 C 1.25 1.53125 1.53125 1.25 1.875 1.25 L 3.125 1.25 C 3.46875 1.25 3.75 1.53125 3.75 1.875 Z M 4.375 15 L 0.625 15 C 0.28125 15 0 15.28125 0 15.625 L 0 19.375 C 0 19.71875 0.28125 20 0.625 20 L 4.375 20 C 4.71875 20 5 19.71875 5 19.375 L 5 15.625 C 5 15.28125 4.71875 15 4.375 15 Z M 3.75 18.125 C 3.75 18.46875 3.46875 18.75 3.125 18.75 L 1.875 18.75 C 1.53125 18.75 1.25 18.46875 1.25 18.125 L 1.25 16.875 C 1.25 16.53125 1.53125 16.25 1.875 16.25 L 3.125 16.25 C 3.46875 16.25 3.75 16.53125 3.75 16.875 Z M 11.875 7.5 L 8.125 7.5 C 7.78125 7.5 7.5 7.78125 7.5 8.125 L 7.5 11.875 C 7.5 12.21875 7.78125 12.5 8.125 12.5 L 11.875 12.5 C 12.21875 12.5 12.5 12.21875 12.5 11.875 L 12.5 8.125 C 12.5 7.78125 12.21875 7.5 11.875 7.5 Z M 11.25 10.625 C 11.25 10.96875 10.96875 11.25 10.625 11.25 L 9.375 11.25 C 9.03125 11.25 8.75 10.96875 8.75 10.625 L 8.75 9.375 C 8.75 9.03125 9.03125 8.75 9.375 8.75 L 10.625 8.75 C 10.96875 8.75 11.25 9.03125 11.25 9.375 Z M 11.875 15 L 8.125 15 C 7.78125 15 7.5 15.28125 7.5 15.625 L 7.5 19.375 C 7.5 19.71875 7.78125 20 8.125 20 L 11.875 20 C 12.21875 20 12.5 19.71875 12.5 19.375 L 12.5 15.625 C 12.5 15.28125 12.21875 15 11.875 15 Z M 11.25 18.125 C 11.25 18.46875 10.96875 18.75 10.625 18.75 L 9.375 18.75 C 9.03125 18.75 8.75 18.46875 8.75 18.125 L 8.75 16.875 C 8.75 16.53125 9.03125 16.25 9.375 16.25 L 10.625 16.25 C 10.96875 16.25 11.25 16.53125 11.25 16.875 Z M 19.375 7.5 L 15.625 7.5 C 15.28125 7.5 15 7.78125 15 8.125 L 15 11.875 C 15 12.21875 15.28125 12.5 15.625 12.5 L 19.375 12.5 C 19.71875 12.5 20 12.21875 20 11.875 L 20 8.125 C 20 7.78125 19.71875 7.5 19.375 7.5 Z M 18.75 10.625 C 18.75 10.96875 18.46875 11.25 18.125 11.25 L 16.875 11.25 C 16.53125 11.25 16.25 10.96875 16.25 10.625 L 16.25 9.375 C 16.25 9.03125 16.53125 8.75 16.875 8.75 L 18.125 8.75 C 18.46875 8.75 18.75 9.03125 18.75 9.375 Z M 19.375 0 L 15.625 0 C 15.28125 0 15 0.28125 15 0.625 L 15 4.375 C 15 4.71875 15.28125 5 15.625 5 L 19.375 5 C 19.71875 5 20 4.09375 20 3.75 L 20 0.625 C 20 0.28125 19.71875 0 19.375 0 Z M 18.75 3.125 C 18.75 3.46875 18.46875 3.75 18.125 3.75 L 16.875 3.75 C 16.53125 3.75 16.25 3.46875 16.25 3.125 L 16.25 1.875 C 16.25 1.53125 16.53125 1.25 16.875 1.25 L 18.125 1.25 C 18.46875 1.25 18.75 1.53125 18.75 1.875 Z M 11.875 0 L 8.125 0 C 7.78125 0 7.5 0.28125 7.5 0.625 L 7.5 4.375 C 7.5 4.71875 7.78125 5 8.125 5 L 11.875 5 C 12.21875 5 12.5 4.09375 12.5 3.75 L 12.5 0.625 C 12.5 0.28125 12.21875 0 11.875 0 Z M 11.25 3.125 C 11.25 3.46875 10.96875 3.75 10.625 3.75 L 9.375 3.75 C 9.03125 3.75 8.75 3.46875 8.75 3.125 L 8.75 1.875 C 8.75 1.53125 9.03125 1.25 9.375 1.25 L 10.625 1.25 C 10.96875 1.25 11.25 1.53125 11.25 1.875 Z M 19.375 15 L 15.625 15 C 15.28125 15 15 15.28125 15 15.625 L 15 19.375 C 15 19.71875 15.28125 20 15.625 20 L 19.375 20 C 19.71875 20 20 19.71875 20 19.375 L 20 15.625 C 20 15.28125 19.71875 15 19.375 15 Z M 18.75 18.125 C 18.75 18.46875 18.46875 18.75 18.125 18.75 L 16.875 18.75 C 16.53125 18.75 16.25 18.46875 16.25 18.125 L 16.25 16.875 C 16.25 16.53125 16.53125 16.25 16.875 16.25 L 18.125 16.25 C 18.46875 16.25 18.75 16.53125 18.75 16.875 Z M 18.75 18.125 "/>
</g></symbol>
<symbol id="svg-return-right" viewBox="0 0 20 20"><path d="M16.76,7.51l-5.199-5.196c-0.234-0.239-0.633-0.066-0.633,0.261v2.534c-0.267-0.035-0.575-0.063-0.881-0.063c-3.813,0-6.915,3.042-6.915,6.783c0,2.516,1.394,4.729,3.729,5.924c0.367,0.189,0.71-0.266,0.451-0.572c-0.678-0.793-1.008-1.645-1.008-2.602c0-2.348,1.93-4.258,4.303-4.258c0.108,0,0.215,0.003,0.321,0.011v2.634c0,0.326,0.398,0.5,0.633,0.262l5.199-5.193C16.906,7.891,16.906,7.652,16.76,7.51 M11.672,12.068V9.995c0-0.185-0.137-0.341-0.318-0.367c-0.219-0.032-0.49-0.05-0.747-0.05c-2.78,0-5.046,2.241-5.046,5c0,0.557,0.099,1.092,0.292,1.602c-1.261-1.111-1.979-2.656-1.979-4.352c0-3.331,2.77-6.041,6.172-6.041c0.438,0,0.886,0.067,1.184,0.123c0.231,0.043,0.441-0.134,0.441-0.366V3.472l4.301,4.3L11.672,12.068z"></path></symbol>
<symbol id="svg-" viewBox="0 0 20 20"></symbol>
<symbol id="svg-" viewBox="0 0 20 20"></symbol>
<symbol id="svg-" viewBox="0 0 20 20"></symbol>
<symbol id="svg-" viewBox="0 0 20 20"></symbol>
<symbol id="svg-" viewBox="0 0 20 20"></symbol>















</svg>